<?xml version="1.0" encoding="utf-8"?>
<svg version="1.1" xmlns:xlink="http://www.w3.org/1999/xlink" width="12px" height="12px" viewBox="2696 422  12 12" xmlns="http://www.w3.org/2000/svg">
  <path d="M 2702 422  C 2705.36 422  2708 424.64  2708 428  C 2708 431.36  2705.36 434  2702 434  C 2698.64 434  2696 431.36  2696 428  C 2696 424.64  2698.64 422  2702 422  Z " fill-rule="nonzero" fill="#f0f0f0" stroke="none" />
  <path d="M 2702 422.5  C 2705.08 422.5  2707.5 424.92  2707.5 428  C 2707.5 431.08  2705.08 433.5  2702 433.5  C 2698.92 433.5  2696.5 431.08  2696.5 428  C 2696.5 424.92  2698.92 422.5  2702 422.5  Z " stroke-width="1" stroke="#797979" fill="none" />
  <path d="M 2702 431  C 2700.32 431  2699 429.68  2699 428  C 2699 426.32  2700.32 425  2702 425  C 2703.68 425  2705 426.32  2705 428  C 2705 429.68  2703.68 431  2702 431  " fill-rule="nonzero" fill="#797979" stroke="none" />
</svg>