<?xml version="1.0" encoding="utf-8"?>
<svg version="1.1" xmlns:xlink="http://www.w3.org/1999/xlink" width="13px" height="13px" viewBox="1439 577  13 13" xmlns="http://www.w3.org/2000/svg">
  <path d="M 1445.5 577  C 1449.14 577  1452 579.86  1452 583.5  C 1452 587.14  1449.14 590  1445.5 590  C 1441.86 590  1439 587.14  1439 583.5  C 1439 579.86  1441.86 577  1445.5 577  Z " fill-rule="nonzero" fill="#ffffff" stroke="none" />
  <path d="M 1445.5 577.5  C 1448.86 577.5  1451.5 580.14  1451.5 583.5  C 1451.5 586.86  1448.86 589.5  1445.5 589.5  C 1442.14 589.5  1439.5 586.86  1439.5 583.5  C 1439.5 580.14  1442.14 577.5  1445.5 577.5  Z " stroke-width="1" stroke="#797979" fill="none" />
  <path d="M 1445.5 586.75  C 1443.68 586.75  1442.25 585.32  1442.25 583.5  C 1442.25 581.68  1443.68 580.25  1445.5 580.25  C 1447.32 580.25  1448.75 581.68  1448.75 583.5  C 1448.75 585.32  1447.32 586.75  1445.5 586.75  " fill-rule="nonzero" fill="#797979" stroke="none" />
</svg>