<?xml version="1.0" encoding="utf-8"?>
<svg version="1.1" xmlns:xlink="http://www.w3.org/1999/xlink" width="13px" height="13px" viewBox="1532 577  13 13" xmlns="http://www.w3.org/2000/svg">
  <path d="M 1538.5 577  C 1542.14 577  1545 579.86  1545 583.5  C 1545 587.14  1542.14 590  1538.5 590  C 1534.86 590  1532 587.14  1532 583.5  C 1532 579.86  1534.86 577  1538.5 577  Z " fill-rule="nonzero" fill="#ffffff" stroke="none" />
  <path d="M 1538.5 577.5  C 1541.86 577.5  1544.5 580.14  1544.5 583.5  C 1544.5 586.86  1541.86 589.5  1538.5 589.5  C 1535.14 589.5  1532.5 586.86  1532.5 583.5  C 1532.5 580.14  1535.14 577.5  1538.5 577.5  Z " stroke-width="1" stroke="#797979" fill="none" />
  <path d="M 1538.5 586.75  C 1536.68 586.75  1535.25 585.32  1535.25 583.5  C 1535.25 581.68  1536.68 580.25  1538.5 580.25  C 1540.32 580.25  1541.75 581.68  1541.75 583.5  C 1541.75 585.32  1540.32 586.75  1538.5 586.75  " fill-rule="nonzero" fill="#797979" stroke="none" />
</svg>