<?xml version="1.0" encoding="utf-8"?>
<svg version="1.1" xmlns:xlink="http://www.w3.org/1999/xlink" width="13px" height="13px" viewBox="1439 765  13 13" xmlns="http://www.w3.org/2000/svg">
  <path d="M 1445.5 765  C 1449.14 765  1452 767.86  1452 771.5  C 1452 775.14  1449.14 778  1445.5 778  C 1441.86 778  1439 775.14  1439 771.5  C 1439 767.86  1441.86 765  1445.5 765  Z " fill-rule="nonzero" fill="#f0f0f0" stroke="none" />
  <path d="M 1445.5 765.5  C 1448.86 765.5  1451.5 768.14  1451.5 771.5  C 1451.5 774.86  1448.86 777.5  1445.5 777.5  C 1442.14 777.5  1439.5 774.86  1439.5 771.5  C 1439.5 768.14  1442.14 765.5  1445.5 765.5  Z " stroke-width="1" stroke="#797979" fill="none" />
  <path d="M 1445.5 774.75  C 1443.68 774.75  1442.25 773.32  1442.25 771.5  C 1442.25 769.68  1443.68 768.25  1445.5 768.25  C 1447.32 768.25  1448.75 769.68  1448.75 771.5  C 1448.75 773.32  1447.32 774.75  1445.5 774.75  " fill-rule="nonzero" fill="#797979" stroke="none" />
</svg>