<?xml version="1.0" encoding="utf-8"?>
<svg version="1.1" xmlns:xlink="http://www.w3.org/1999/xlink" width="13px" height="13px" viewBox="1532 765  13 13" xmlns="http://www.w3.org/2000/svg">
  <path d="M 1538.5 765  C 1542.14 765  1545 767.86  1545 771.5  C 1545 775.14  1542.14 778  1538.5 778  C 1534.86 778  1532 775.14  1532 771.5  C 1532 767.86  1534.86 765  1538.5 765  Z " fill-rule="nonzero" fill="#f0f0f0" stroke="none" />
  <path d="M 1538.5 765.5  C 1541.86 765.5  1544.5 768.14  1544.5 771.5  C 1544.5 774.86  1541.86 777.5  1538.5 777.5  C 1535.14 777.5  1532.5 774.86  1532.5 771.5  C 1532.5 768.14  1535.14 765.5  1538.5 765.5  Z " stroke-width="1" stroke="#797979" fill="none" />
  <path d="M 1538.5 774.75  C 1536.68 774.75  1535.25 773.32  1535.25 771.5  C 1535.25 769.68  1536.68 768.25  1538.5 768.25  C 1540.32 768.25  1541.75 769.68  1541.75 771.5  C 1541.75 773.32  1540.32 774.75  1538.5 774.75  " fill-rule="nonzero" fill="#797979" stroke="none" />
</svg>