<?xml version="1.0" encoding="utf-8"?>
<svg version="1.1" xmlns:xlink="http://www.w3.org/1999/xlink" width="13px" height="13px" viewBox="1609 577  13 13" xmlns="http://www.w3.org/2000/svg">
  <path d="M 1615.5 577  C 1619.14 577  1622 579.86  1622 583.5  C 1622 587.14  1619.14 590  1615.5 590  C 1611.86 590  1609 587.14  1609 583.5  C 1609 579.86  1611.86 577  1615.5 577  Z " fill-rule="nonzero" fill="#ffffff" stroke="none" />
  <path d="M 1615.5 577.5  C 1618.86 577.5  1621.5 580.14  1621.5 583.5  C 1621.5 586.86  1618.86 589.5  1615.5 589.5  C 1612.14 589.5  1609.5 586.86  1609.5 583.5  C 1609.5 580.14  1612.14 577.5  1615.5 577.5  Z " stroke-width="1" stroke="#797979" fill="none" />
  <path d="M 1615.5 586.75  C 1613.68 586.75  1612.25 585.32  1612.25 583.5  C 1612.25 581.68  1613.68 580.25  1615.5 580.25  C 1617.32 580.25  1618.75 581.68  1618.75 583.5  C 1618.75 585.32  1617.32 586.75  1615.5 586.75  " fill-rule="nonzero" fill="#797979" stroke="none" />
</svg>