<?xml version="1.0" encoding="utf-8"?>
<svg version="1.1" xmlns:xlink="http://www.w3.org/1999/xlink" width="13px" height="13px" viewBox="1609 765  13 13" xmlns="http://www.w3.org/2000/svg">
  <path d="M 1615.5 765  C 1619.14 765  1622 767.86  1622 771.5  C 1622 775.14  1619.14 778  1615.5 778  C 1611.86 778  1609 775.14  1609 771.5  C 1609 767.86  1611.86 765  1615.5 765  Z " fill-rule="nonzero" fill="#ffffff" stroke="none" />
  <path d="M 1615.5 765.5  C 1618.86 765.5  1621.5 768.14  1621.5 771.5  C 1621.5 774.86  1618.86 777.5  1615.5 777.5  C 1612.14 777.5  1609.5 774.86  1609.5 771.5  C 1609.5 768.14  1612.14 765.5  1615.5 765.5  Z " stroke-width="1" stroke="#797979" fill="none" />
  <path d="M 1615.5 774.75  C 1613.68 774.75  1612.25 773.32  1612.25 771.5  C 1612.25 769.68  1613.68 768.25  1615.5 768.25  C 1617.32 768.25  1618.75 769.68  1618.75 771.5  C 1618.75 773.32  1617.32 774.75  1615.5 774.75  " fill-rule="nonzero" fill="#797979" stroke="none" />
</svg>