<?xml version="1.0" encoding="utf-8"?>
<svg version="1.1" xmlns:xlink="http://www.w3.org/1999/xlink" width="13px" height="13px" viewBox="1441 264  13 13" xmlns="http://www.w3.org/2000/svg">
  <path d="M 1447.5 264  C 1451.14 264  1454 266.86  1454 270.5  C 1454 274.14  1451.14 277  1447.5 277  C 1443.86 277  1441 274.14  1441 270.5  C 1441 266.86  1443.86 264  1447.5 264  Z " fill-rule="nonzero" fill="#f0f0f0" stroke="none" />
  <path d="M 1447.5 264.5  C 1450.86 264.5  1453.5 267.14  1453.5 270.5  C 1453.5 273.86  1450.86 276.5  1447.5 276.5  C 1444.14 276.5  1441.5 273.86  1441.5 270.5  C 1441.5 267.14  1444.14 264.5  1447.5 264.5  Z " stroke-width="1" stroke="#797979" fill="none" />
  <path d="M 1447.5 273.75  C 1445.68 273.75  1444.25 272.32  1444.25 270.5  C 1444.25 268.68  1445.68 267.25  1447.5 267.25  C 1449.32 267.25  1450.75 268.68  1450.75 270.5  C 1450.75 272.32  1449.32 273.75  1447.5 273.75  " fill-rule="nonzero" fill="#797979" stroke="none" />
</svg>