<?xml version="1.0" encoding="utf-8"?>
<svg version="1.1" xmlns:xlink="http://www.w3.org/1999/xlink" width="13px" height="13px" viewBox="1616 264  13 13" xmlns="http://www.w3.org/2000/svg">
  <path d="M 1622.5 264  C 1626.14 264  1629 266.86  1629 270.5  C 1629 274.14  1626.14 277  1622.5 277  C 1618.86 277  1616 274.14  1616 270.5  C 1616 266.86  1618.86 264  1622.5 264  Z " fill-rule="nonzero" fill="#f0f0f0" stroke="none" />
  <path d="M 1622.5 264.5  C 1625.86 264.5  1628.5 267.14  1628.5 270.5  C 1628.5 273.86  1625.86 276.5  1622.5 276.5  C 1619.14 276.5  1616.5 273.86  1616.5 270.5  C 1616.5 267.14  1619.14 264.5  1622.5 264.5  Z " stroke-width="1" stroke="#797979" fill="none" />
  <path d="M 1622.5 273.75  C 1620.68 273.75  1619.25 272.32  1619.25 270.5  C 1619.25 268.68  1620.68 267.25  1622.5 267.25  C 1624.32 267.25  1625.75 268.68  1625.75 270.5  C 1625.75 272.32  1624.32 273.75  1622.5 273.75  " fill-rule="nonzero" fill="#797979" stroke="none" />
</svg>