<?xml version="1.0" encoding="utf-8"?>
<svg version="1.1" xmlns:xlink="http://www.w3.org/1999/xlink" width="13px" height="13px" viewBox="1535 264  13 13" xmlns="http://www.w3.org/2000/svg">
  <path d="M 1541.5 264  C 1545.14 264  1548 266.86  1548 270.5  C 1548 274.14  1545.14 277  1541.5 277  C 1537.86 277  1535 274.14  1535 270.5  C 1535 266.86  1537.86 264  1541.5 264  Z " fill-rule="nonzero" fill="#ffffff" stroke="none" />
  <path d="M 1541.5 264.5  C 1544.86 264.5  1547.5 267.14  1547.5 270.5  C 1547.5 273.86  1544.86 276.5  1541.5 276.5  C 1538.14 276.5  1535.5 273.86  1535.5 270.5  C 1535.5 267.14  1538.14 264.5  1541.5 264.5  Z " stroke-width="1" stroke="#797979" fill="none" />
  <path d="M 1541.5 273.75  C 1539.68 273.75  1538.25 272.32  1538.25 270.5  C 1538.25 268.68  1539.68 267.25  1541.5 267.25  C 1543.32 267.25  1544.75 268.68  1544.75 270.5  C 1544.75 272.32  1543.32 273.75  1541.5 273.75  " fill-rule="nonzero" fill="#797979" stroke="none" />
</svg>