<?xml version="1.0" encoding="utf-8"?>
<svg version="1.1" xmlns:xlink="http://www.w3.org/1999/xlink" width="68px" height="30px" xmlns="http://www.w3.org/2000/svg">
  <defs>
    <mask fill="white" id="clip16">
      <path d="M 0 26  L 0 4  C 0 1.759999999999991  1.2466666666666604 0  2.833333333333333 0  L 49.05208333333333 0  L 65.16666666666667 0  C 66.75333333333334 0  68 1.759999999999991  68 4  L 68 26  C 68 28.24000000000001  66.75333333333334 30  65.16666666666667 30  L 2.833333333333333 30  C 1.2466666666666604 30  0 28.24000000000001  0 26  Z " fill-rule="evenodd" />
    </mask>
  </defs>
  <g transform="matrix(1 0 0 1 -1924 -1168 )">
    <path d="M 0 26  L 0 4  C 0 1.759999999999991  1.2466666666666604 0  2.833333333333333 0  L 49.05208333333333 0  L 65.16666666666667 0  C 66.75333333333334 0  68 1.759999999999991  68 4  L 68 26  C 68 28.24000000000001  66.75333333333334 30  65.16666666666667 30  L 2.833333333333333 30  C 1.2466666666666604 30  0 28.24000000000001  0 26  Z " fill-rule="nonzero" fill="#e4e4e4" stroke="none" transform="matrix(1 0 0 1 1924 1168 )" />
    <path d="M 0 26  L 0 4  C 0 1.759999999999991  1.2466666666666604 0  2.833333333333333 0  L 49.05208333333333 0  L 65.16666666666667 0  C 66.75333333333334 0  68 1.759999999999991  68 4  L 68 26  C 68 28.24000000000001  66.75333333333334 30  65.16666666666667 30  L 2.833333333333333 30  C 1.2466666666666604 30  0 28.24000000000001  0 26  Z " stroke-width="2" stroke="#d9d9d9" fill="none" transform="matrix(1 0 0 1 1924 1168 )" mask="url(#clip16)" />
  </g>
</svg>