<?xml version="1.0" encoding="utf-8"?>
<svg version="1.1" xmlns:xlink="http://www.w3.org/1999/xlink" width="12px" height="12px" viewBox="1181 1289  12 12" xmlns="http://www.w3.org/2000/svg">
  <path d="M 1187 1289  C 1190.36 1289  1193 1291.64  1193 1295  C 1193 1298.36  1190.36 1301  1187 1301  C 1183.64 1301  1181 1298.36  1181 1295  C 1181 1291.64  1183.64 1289  1187 1289  Z " fill-rule="nonzero" fill="#ffffff" stroke="none" />
  <path d="M 1187 1289.5  C 1190.08 1289.5  1192.5 1291.92  1192.5 1295  C 1192.5 1298.08  1190.08 1300.5  1187 1300.5  C 1183.92 1300.5  1181.5 1298.08  1181.5 1295  C 1181.5 1291.92  1183.92 1289.5  1187 1289.5  Z " stroke-width="1" stroke="#797979" fill="none" />
  <path d="M 1187 1298  C 1185.32 1298  1184 1296.68  1184 1295  C 1184 1293.32  1185.32 1292  1187 1292  C 1188.68 1292  1190 1293.32  1190 1295  C 1190 1296.68  1188.68 1298  1187 1298  " fill-rule="nonzero" fill="#797979" stroke="none" />
</svg>