<?xml version="1.0" encoding="utf-8"?>
<svg version="1.1" xmlns:xlink="http://www.w3.org/1999/xlink" width="12px" height="12px" viewBox="458 1254  12 12" xmlns="http://www.w3.org/2000/svg">
  <path d="M 464 1254  C 467.36 1254  470 1256.64  470 1260  C 470 1263.36  467.36 1266  464 1266  C 460.64 1266  458 1263.36  458 1260  C 458 1256.64  460.64 1254  464 1254  Z " fill-rule="nonzero" fill="#f0f0f0" stroke="none" />
  <path d="M 464 1254.5  C 467.08 1254.5  469.5 1256.92  469.5 1260  C 469.5 1263.08  467.08 1265.5  464 1265.5  C 460.92 1265.5  458.5 1263.08  458.5 1260  C 458.5 1256.92  460.92 1254.5  464 1254.5  Z " stroke-width="1" stroke="#797979" fill="none" />
  <path d="M 464 1263  C 462.32 1263  461 1261.68  461 1260  C 461 1258.32  462.32 1257  464 1257  C 465.68 1257  467 1258.32  467 1260  C 467 1261.68  465.68 1263  464 1263  " fill-rule="nonzero" fill="#797979" stroke="none" />
</svg>