<?xml version="1.0" encoding="utf-8"?>
<svg version="1.1" xmlns:xlink="http://www.w3.org/1999/xlink" width="12px" height="12px" viewBox="242 1254  12 12" xmlns="http://www.w3.org/2000/svg">
  <path d="M 248 1254  C 251.36 1254  254 1256.64  254 1260  C 254 1263.36  251.36 1266  248 1266  C 244.64 1266  242 1263.36  242 1260  C 242 1256.64  244.64 1254  248 1254  Z " fill-rule="nonzero" fill="#f0f0f0" stroke="none" />
  <path d="M 248 1254.5  C 251.08 1254.5  253.5 1256.92  253.5 1260  C 253.5 1263.08  251.08 1265.5  248 1265.5  C 244.92 1265.5  242.5 1263.08  242.5 1260  C 242.5 1256.92  244.92 1254.5  248 1254.5  Z " stroke-width="1" stroke="#797979" fill="none" />
  <path d="M 248 1263  C 246.32 1263  245 1261.68  245 1260  C 245 1258.32  246.32 1257  248 1257  C 249.68 1257  251 1258.32  251 1260  C 251 1261.68  249.68 1263  248 1263  " fill-rule="nonzero" fill="#797979" stroke="none" />
</svg>