<?xml version="1.0" encoding="utf-8"?>
<svg version="1.1" xmlns:xlink="http://www.w3.org/1999/xlink" width="12px" height="12px" viewBox="1054 1255  12 12" xmlns="http://www.w3.org/2000/svg">
  <path d="M 1060 1255  C 1063.36 1255  1066 1257.64  1066 1261  C 1066 1264.36  1063.36 1267  1060 1267  C 1056.64 1267  1054 1264.36  1054 1261  C 1054 1257.64  1056.64 1255  1060 1255  Z " fill-rule="nonzero" fill="#f0f0f0" stroke="none" />
  <path d="M 1060 1255.5  C 1063.08 1255.5  1065.5 1257.92  1065.5 1261  C 1065.5 1264.08  1063.08 1266.5  1060 1266.5  C 1056.92 1266.5  1054.5 1264.08  1054.5 1261  C 1054.5 1257.92  1056.92 1255.5  1060 1255.5  Z " stroke-width="1" stroke="#797979" fill="none" />
  <path d="M 1060 1264  C 1058.32 1264  1057 1262.68  1057 1261  C 1057 1259.32  1058.32 1258  1060 1258  C 1061.68 1258  1063 1259.32  1063 1261  C 1063 1262.68  1061.68 1264  1060 1264  " fill-rule="nonzero" fill="#797979" stroke="none" />
</svg>