<?xml version="1.0" encoding="utf-8"?>
<svg version="1.1" xmlns:xlink="http://www.w3.org/1999/xlink" width="12px" height="12px" viewBox="258 1325  12 12" xmlns="http://www.w3.org/2000/svg">
  <path d="M 264 1325  C 267.36 1325  270 1327.64  270 1331  C 270 1334.36  267.36 1337  264 1337  C 260.64 1337  258 1334.36  258 1331  C 258 1327.64  260.64 1325  264 1325  Z " fill-rule="nonzero" fill="#ffffff" stroke="none" />
  <path d="M 264 1325.5  C 267.08 1325.5  269.5 1327.92  269.5 1331  C 269.5 1334.08  267.08 1336.5  264 1336.5  C 260.92 1336.5  258.5 1334.08  258.5 1331  C 258.5 1327.92  260.92 1325.5  264 1325.5  Z " stroke-width="1" stroke="#797979" fill="none" />
  <path d="M 264 1334  C 262.32 1334  261 1332.68  261 1331  C 261 1329.32  262.32 1328  264 1328  C 265.68 1328  267 1329.32  267 1331  C 267 1332.68  265.68 1334  264 1334  " fill-rule="nonzero" fill="#797979" stroke="none" />
</svg>