<?xml version="1.0" encoding="utf-8"?>
<svg version="1.1" xmlns:xlink="http://www.w3.org/1999/xlink" width="12px" height="12px" viewBox="1470 1255  12 12" xmlns="http://www.w3.org/2000/svg">
  <path d="M 1476 1255  C 1479.36 1255  1482 1257.64  1482 1261  C 1482 1264.36  1479.36 1267  1476 1267  C 1472.64 1267  1470 1264.36  1470 1261  C 1470 1257.64  1472.64 1255  1476 1255  Z " fill-rule="nonzero" fill="#ffffff" stroke="none" />
  <path d="M 1476 1255.5  C 1479.08 1255.5  1481.5 1257.92  1481.5 1261  C 1481.5 1264.08  1479.08 1266.5  1476 1266.5  C 1472.92 1266.5  1470.5 1264.08  1470.5 1261  C 1470.5 1257.92  1472.92 1255.5  1476 1255.5  Z " stroke-width="1" stroke="#797979" fill="none" />
  <path d="M 1476 1264  C 1474.32 1264  1473 1262.68  1473 1261  C 1473 1259.32  1474.32 1258  1476 1258  C 1477.68 1258  1479 1259.32  1479 1261  C 1479 1262.68  1477.68 1264  1476 1264  " fill-rule="nonzero" fill="#797979" stroke="none" />
</svg>