<?xml version="1.0" encoding="utf-8"?>
<svg version="1.1" xmlns:xlink="http://www.w3.org/1999/xlink" width="12px" height="12px" viewBox="364 1325  12 12" xmlns="http://www.w3.org/2000/svg">
  <path d="M 370 1325  C 373.36 1325  376 1327.64  376 1331  C 376 1334.36  373.36 1337  370 1337  C 366.64 1337  364 1334.36  364 1331  C 364 1327.64  366.64 1325  370 1325  Z " fill-rule="nonzero" fill="#ffffff" stroke="none" />
  <path d="M 370 1325.5  C 373.08 1325.5  375.5 1327.92  375.5 1331  C 375.5 1334.08  373.08 1336.5  370 1336.5  C 366.92 1336.5  364.5 1334.08  364.5 1331  C 364.5 1327.92  366.92 1325.5  370 1325.5  Z " stroke-width="1" stroke="#797979" fill="none" />
  <path d="M 370 1334  C 368.32 1334  367 1332.68  367 1331  C 367 1329.32  368.32 1328  370 1328  C 371.68 1328  373 1329.32  373 1331  C 373 1332.68  371.68 1334  370 1334  " fill-rule="nonzero" fill="#797979" stroke="none" />
</svg>