<?xml version="1.0" encoding="utf-8"?>
<svg version="1.1" xmlns:xlink="http://www.w3.org/1999/xlink" width="13px" height="13px" viewBox="727 1098  13 13" xmlns="http://www.w3.org/2000/svg">
  <path d="M 733.5 1098  C 737.14 1098  740 1100.86  740 1104.5  C 740 1108.14  737.14 1111  733.5 1111  C 729.86 1111  727 1108.14  727 1104.5  C 727 1100.86  729.86 1098  733.5 1098  Z " fill-rule="nonzero" fill="#f0f0f0" stroke="none" />
  <path d="M 733.5 1098.5  C 736.86 1098.5  739.5 1101.14  739.5 1104.5  C 739.5 1107.86  736.86 1110.5  733.5 1110.5  C 730.14 1110.5  727.5 1107.86  727.5 1104.5  C 727.5 1101.14  730.14 1098.5  733.5 1098.5  Z " stroke-width="1" stroke="#797979" fill="none" />
  <path d="M 733.5 1107.75  C 731.68 1107.75  730.25 1106.32  730.25 1104.5  C 730.25 1102.68  731.68 1101.25  733.5 1101.25  C 735.32 1101.25  736.75 1102.68  736.75 1104.5  C 736.75 1106.32  735.32 1107.75  733.5 1107.75  " fill-rule="nonzero" fill="#797979" stroke="none" />
</svg>