<?xml version="1.0" encoding="utf-8"?>
<svg version="1.1" xmlns:xlink="http://www.w3.org/1999/xlink" width="13px" height="13px" viewBox="633 1098  13 13" xmlns="http://www.w3.org/2000/svg">
  <path d="M 639.5 1098  C 643.14 1098  646 1100.86  646 1104.5  C 646 1108.14  643.14 1111  639.5 1111  C 635.86 1111  633 1108.14  633 1104.5  C 633 1100.86  635.86 1098  639.5 1098  Z " fill-rule="nonzero" fill="#f0f0f0" stroke="none" />
  <path d="M 639.5 1098.5  C 642.86 1098.5  645.5 1101.14  645.5 1104.5  C 645.5 1107.86  642.86 1110.5  639.5 1110.5  C 636.14 1110.5  633.5 1107.86  633.5 1104.5  C 633.5 1101.14  636.14 1098.5  639.5 1098.5  Z " stroke-width="1" stroke="#797979" fill="none" />
  <path d="M 639.5 1107.75  C 637.68 1107.75  636.25 1106.32  636.25 1104.5  C 636.25 1102.68  637.68 1101.25  639.5 1101.25  C 641.32 1101.25  642.75 1102.68  642.75 1104.5  C 642.75 1106.32  641.32 1107.75  639.5 1107.75  " fill-rule="nonzero" fill="#797979" stroke="none" />
</svg>