<?xml version="1.0" encoding="utf-8"?>
<svg version="1.1" xmlns:xlink="http://www.w3.org/1999/xlink" width="13px" height="13px" viewBox="966 1108  13 13" xmlns="http://www.w3.org/2000/svg">
  <path d="M 972.5 1108  C 976.14 1108  979 1110.86  979 1114.5  C 979 1118.14  976.14 1121  972.5 1121  C 968.86 1121  966 1118.14  966 1114.5  C 966 1110.86  968.86 1108  972.5 1108  Z " fill-rule="nonzero" fill="#ffffff" stroke="none" />
  <path d="M 972.5 1108.5  C 975.86 1108.5  978.5 1111.14  978.5 1114.5  C 978.5 1117.86  975.86 1120.5  972.5 1120.5  C 969.14 1120.5  966.5 1117.86  966.5 1114.5  C 966.5 1111.14  969.14 1108.5  972.5 1108.5  Z " stroke-width="1" stroke="#797979" fill="none" />
  <path d="M 972.5 1117.75  C 970.68 1117.75  969.25 1116.32  969.25 1114.5  C 969.25 1112.68  970.68 1111.25  972.5 1111.25  C 974.32 1111.25  975.75 1112.68  975.75 1114.5  C 975.75 1116.32  974.32 1117.75  972.5 1117.75  " fill-rule="nonzero" fill="#797979" stroke="none" />
</svg>