<?xml version="1.0" encoding="utf-8"?>
<svg version="1.1" xmlns:xlink="http://www.w3.org/1999/xlink" width="13px" height="19px" xmlns="http://www.w3.org/2000/svg">
  <g transform="matrix(1 0 0 1 -914 -4411 )">
    <path d="M 8.7978515625 8.572265625  C 9.4326171875 7.953776041666666  9.75 7.207465277777778  9.75 6.333333333333334  C 9.75 5.4592013888888875  9.4326171875 4.712890625  8.7978515625 4.094401041666666  C 8.1630859375 3.475911458333334  7.397135416666668 3.166666666666666  6.5 3.166666666666666  C 5.602864583333334 3.166666666666666  4.8369140625 3.475911458333334  4.2021484375 4.094401041666666  C 3.5673828125 4.712890625  3.25 5.4592013888888875  3.25 6.333333333333334  C 3.25 7.207465277777778  3.5673828125 7.953776041666666  4.2021484375 8.572265625  C 4.8369140625 9.190755208333334  5.602864583333334 9.5  6.5 9.5  C 7.397135416666668 9.5  8.1630859375 9.190755208333334  8.7978515625 8.572265625  Z M 11.095703125 1.85546875  C 12.365234375 3.092447916666666  13 4.585069444444442  13 6.333333333333334  C 13 7.23220486111111  12.8603515625 7.970269097222222  12.5810546875 8.547526041666666  L 7.9599609375 18.121744791666664  C 7.824544270833334 18.393880208333336  7.62353515625 18.608289930555554  7.35693359375 18.764973958333336  C 7.09033203125 18.92165798611111  6.8046875 19  6.5 19  C 6.1953125 19  5.90966796875 18.92165798611111  5.64306640625 18.764973958333336  C 5.37646484375 18.608289930555554  5.1796875 18.393880208333336  5.052734375 18.121744791666664  L 0.4189453125 8.547526041666666  C 0.1396484375 7.970269097222222  0 7.23220486111111  0 6.333333333333334  C 0 4.585069444444442  0.634765625 3.092447916666666  1.904296875 1.85546875  C 3.1738281250000004 0.618489583333334  4.705729166666667 0  6.5 0  C 8.294270833333334 0  9.826171875 0.618489583333334  11.095703125 1.85546875  Z " fill-rule="nonzero" fill="#aaaaaa" stroke="none" transform="matrix(1 0 0 1 914 4411 )" />
  </g>
</svg>