<?xml version="1.0" encoding="utf-8"?>
<svg version="1.1" xmlns:xlink="http://www.w3.org/1999/xlink" width="13px" height="13px" viewBox="2699 331  13 13" xmlns="http://www.w3.org/2000/svg">
  <path d="M 2705.5 331  C 2709.14 331  2712 333.86  2712 337.5  C 2712 341.14  2709.14 344  2705.5 344  C 2701.86 344  2699 341.14  2699 337.5  C 2699 333.86  2701.86 331  2705.5 331  Z " fill-rule="nonzero" fill="#ffffff" stroke="none" />
  <path d="M 2705.5 331.5  C 2708.86 331.5  2711.5 334.14  2711.5 337.5  C 2711.5 340.86  2708.86 343.5  2705.5 343.5  C 2702.14 343.5  2699.5 340.86  2699.5 337.5  C 2699.5 334.14  2702.14 331.5  2705.5 331.5  Z " stroke-width="1" stroke="#797979" fill="none" />
  <path d="M 2705.5 340.75  C 2703.68 340.75  2702.25 339.32  2702.25 337.5  C 2702.25 335.68  2703.68 334.25  2705.5 334.25  C 2707.32 334.25  2708.75 335.68  2708.75 337.5  C 2708.75 339.32  2707.32 340.75  2705.5 340.75  " fill-rule="nonzero" fill="#797979" stroke="none" />
</svg>