<?xml version="1.0" encoding="utf-8"?>
<svg version="1.1" xmlns:xlink="http://www.w3.org/1999/xlink" width="13px" height="13px" viewBox="2585 333  13 13" xmlns="http://www.w3.org/2000/svg">
  <path d="M 2591.5 333  C 2595.14 333  2598 335.86  2598 339.5  C 2598 343.14  2595.14 346  2591.5 346  C 2587.86 346  2585 343.14  2585 339.5  C 2585 335.86  2587.86 333  2591.5 333  Z " fill-rule="nonzero" fill="#ffffff" stroke="none" />
  <path d="M 2591.5 333.5  C 2594.86 333.5  2597.5 336.14  2597.5 339.5  C 2597.5 342.86  2594.86 345.5  2591.5 345.5  C 2588.14 345.5  2585.5 342.86  2585.5 339.5  C 2585.5 336.14  2588.14 333.5  2591.5 333.5  Z " stroke-width="1" stroke="#797979" fill="none" />
  <path d="M 2591.5 342.75  C 2589.68 342.75  2588.25 341.32  2588.25 339.5  C 2588.25 337.68  2589.68 336.25  2591.5 336.25  C 2593.32 336.25  2594.75 337.68  2594.75 339.5  C 2594.75 341.32  2593.32 342.75  2591.5 342.75  " fill-rule="nonzero" fill="#797979" stroke="none" />
</svg>