<?xml version="1.0" encoding="utf-8"?>
<svg version="1.1" xmlns:xlink="http://www.w3.org/1999/xlink" width="13px" height="13px" viewBox="3121 744  13 13" xmlns="http://www.w3.org/2000/svg">
  <path d="M 3127.5 744  C 3131.14 744  3134 746.86  3134 750.5  C 3134 754.14  3131.14 757  3127.5 757  C 3123.86 757  3121 754.14  3121 750.5  C 3121 746.86  3123.86 744  3127.5 744  Z " fill-rule="nonzero" fill="#f0f0f0" stroke="none" />
  <path d="M 3127.5 744.5  C 3130.86 744.5  3133.5 747.14  3133.5 750.5  C 3133.5 753.86  3130.86 756.5  3127.5 756.5  C 3124.14 756.5  3121.5 753.86  3121.5 750.5  C 3121.5 747.14  3124.14 744.5  3127.5 744.5  Z " stroke-width="1" stroke="#797979" fill="none" />
  <path d="M 3127.5 753.75  C 3125.68 753.75  3124.25 752.32  3124.25 750.5  C 3124.25 748.68  3125.68 747.25  3127.5 747.25  C 3129.32 747.25  3130.75 748.68  3130.75 750.5  C 3130.75 752.32  3129.32 753.75  3127.5 753.75  " fill-rule="nonzero" fill="#797979" stroke="none" />
</svg>