<?xml version="1.0" encoding="utf-8"?>
<svg version="1.1" xmlns:xlink="http://www.w3.org/1999/xlink" width="12px" height="12px" viewBox="2626 422  12 12" xmlns="http://www.w3.org/2000/svg">
  <path d="M 2632 422  C 2635.36 422  2638 424.64  2638 428  C 2638 431.36  2635.36 434  2632 434  C 2628.64 434  2626 431.36  2626 428  C 2626 424.64  2628.64 422  2632 422  Z " fill-rule="nonzero" fill="#ffffff" stroke="none" />
  <path d="M 2632 422.5  C 2635.08 422.5  2637.5 424.92  2637.5 428  C 2637.5 431.08  2635.08 433.5  2632 433.5  C 2628.92 433.5  2626.5 431.08  2626.5 428  C 2626.5 424.92  2628.92 422.5  2632 422.5  Z " stroke-width="1" stroke="#797979" fill="none" />
  <path d="M 2632 431  C 2630.32 431  2629 429.68  2629 428  C 2629 426.32  2630.32 425  2632 425  C 2633.68 425  2635 426.32  2635 428  C 2635 429.68  2633.68 431  2632 431  " fill-rule="nonzero" fill="#797979" stroke="none" />
</svg>