<?xml version="1.0" encoding="utf-8"?>
<svg version="1.1" xmlns:xlink="http://www.w3.org/1999/xlink" width="13px" height="13px" viewBox="1617 231  13 13" xmlns="http://www.w3.org/2000/svg">
  <path d="M 1623.5 231  C 1627.14 231  1630 233.86  1630 237.5  C 1630 241.14  1627.14 244  1623.5 244  C 1619.86 244  1617 241.14  1617 237.5  C 1617 233.86  1619.86 231  1623.5 231  Z " fill-rule="nonzero" fill="#f0f0f0" stroke="none" />
  <path d="M 1623.5 231.5  C 1626.86 231.5  1629.5 234.14  1629.5 237.5  C 1629.5 240.86  1626.86 243.5  1623.5 243.5  C 1620.14 243.5  1617.5 240.86  1617.5 237.5  C 1617.5 234.14  1620.14 231.5  1623.5 231.5  Z " stroke-width="1" stroke="#797979" fill="none" />
  <path d="M 1623.5 240.75  C 1621.68 240.75  1620.25 239.32  1620.25 237.5  C 1620.25 235.68  1621.68 234.25  1623.5 234.25  C 1625.32 234.25  1626.75 235.68  1626.75 237.5  C 1626.75 239.32  1625.32 240.75  1623.5 240.75  " fill-rule="nonzero" fill="#797979" stroke="none" />
</svg>