<?xml version="1.0" encoding="utf-8"?>
<svg version="1.1" xmlns:xlink="http://www.w3.org/1999/xlink" width="13px" height="13px" viewBox="1617 202  13 13" xmlns="http://www.w3.org/2000/svg">
  <path d="M 1623.5 202  C 1627.14 202  1630 204.86  1630 208.5  C 1630 212.14  1627.14 215  1623.5 215  C 1619.86 215  1617 212.14  1617 208.5  C 1617 204.86  1619.86 202  1623.5 202  Z " fill-rule="nonzero" fill="#ffffff" stroke="none" />
  <path d="M 1623.5 202.5  C 1626.86 202.5  1629.5 205.14  1629.5 208.5  C 1629.5 211.86  1626.86 214.5  1623.5 214.5  C 1620.14 214.5  1617.5 211.86  1617.5 208.5  C 1617.5 205.14  1620.14 202.5  1623.5 202.5  Z " stroke-width="1" stroke="#797979" fill="none" />
  <path d="M 1623.5 211.75  C 1621.68 211.75  1620.25 210.32  1620.25 208.5  C 1620.25 206.68  1621.68 205.25  1623.5 205.25  C 1625.32 205.25  1626.75 206.68  1626.75 208.5  C 1626.75 210.32  1625.32 211.75  1623.5 211.75  " fill-rule="nonzero" fill="#797979" stroke="none" />
</svg>