<?xml version="1.0" encoding="utf-8"?>
<svg version="1.1" xmlns:xlink="http://www.w3.org/1999/xlink" width="13px" height="13px" viewBox="2466 167  13 13" xmlns="http://www.w3.org/2000/svg">
  <path d="M 2472.5 167  C 2476.14 167  2479 169.86  2479 173.5  C 2479 177.14  2476.14 180  2472.5 180  C 2468.86 180  2466 177.14  2466 173.5  C 2466 169.86  2468.86 167  2472.5 167  Z " fill-rule="nonzero" fill="#ffffff" stroke="none" />
  <path d="M 2472.5 167.5  C 2475.86 167.5  2478.5 170.14  2478.5 173.5  C 2478.5 176.86  2475.86 179.5  2472.5 179.5  C 2469.14 179.5  2466.5 176.86  2466.5 173.5  C 2466.5 170.14  2469.14 167.5  2472.5 167.5  Z " stroke-width="1" stroke="#797979" fill="none" />
  <path d="M 2472.5 176.75  C 2470.68 176.75  2469.25 175.32  2469.25 173.5  C 2469.25 171.68  2470.68 170.25  2472.5 170.25  C 2474.32 170.25  2475.75 171.68  2475.75 173.5  C 2475.75 175.32  2474.32 176.75  2472.5 176.75  " fill-rule="nonzero" fill="#797979" stroke="none" />
</svg>