<?xml version="1.0" encoding="utf-8"?>
<svg version="1.1" xmlns:xlink="http://www.w3.org/1999/xlink" width="13px" height="13px" viewBox="2560 167  13 13" xmlns="http://www.w3.org/2000/svg">
  <path d="M 2566.5 167  C 2570.14 167  2573 169.86  2573 173.5  C 2573 177.14  2570.14 180  2566.5 180  C 2562.86 180  2560 177.14  2560 173.5  C 2560 169.86  2562.86 167  2566.5 167  Z " fill-rule="nonzero" fill="#ffffff" stroke="none" />
  <path d="M 2566.5 167.5  C 2569.86 167.5  2572.5 170.14  2572.5 173.5  C 2572.5 176.86  2569.86 179.5  2566.5 179.5  C 2563.14 179.5  2560.5 176.86  2560.5 173.5  C 2560.5 170.14  2563.14 167.5  2566.5 167.5  Z " stroke-width="1" stroke="#797979" fill="none" />
  <path d="M 2566.5 176.75  C 2564.68 176.75  2563.25 175.32  2563.25 173.5  C 2563.25 171.68  2564.68 170.25  2566.5 170.25  C 2568.32 170.25  2569.75 171.68  2569.75 173.5  C 2569.75 175.32  2568.32 176.75  2566.5 176.75  " fill-rule="nonzero" fill="#797979" stroke="none" />
</svg>