<?xml version="1.0" encoding="utf-8"?>
<svg version="1.1" xmlns:xlink="http://www.w3.org/1999/xlink" width="13px" height="13px" viewBox="2637 167  13 13" xmlns="http://www.w3.org/2000/svg">
  <path d="M 2643.5 167  C 2647.14 167  2650 169.86  2650 173.5  C 2650 177.14  2647.14 180  2643.5 180  C 2639.86 180  2637 177.14  2637 173.5  C 2637 169.86  2639.86 167  2643.5 167  Z " fill-rule="nonzero" fill="#f0f0f0" stroke="none" />
  <path d="M 2643.5 167.5  C 2646.86 167.5  2649.5 170.14  2649.5 173.5  C 2649.5 176.86  2646.86 179.5  2643.5 179.5  C 2640.14 179.5  2637.5 176.86  2637.5 173.5  C 2637.5 170.14  2640.14 167.5  2643.5 167.5  Z " stroke-width="1" stroke="#797979" fill="none" />
  <path d="M 2643.5 176.75  C 2641.68 176.75  2640.25 175.32  2640.25 173.5  C 2640.25 171.68  2641.68 170.25  2643.5 170.25  C 2645.32 170.25  2646.75 171.68  2646.75 173.5  C 2646.75 175.32  2645.32 176.75  2643.5 176.75  " fill-rule="nonzero" fill="#797979" stroke="none" />
</svg>