<?xml version="1.0" encoding="utf-8"?>
<svg version="1.1" xmlns:xlink="http://www.w3.org/1999/xlink" width="13px" height="13px" viewBox="2637 366  13 13" xmlns="http://www.w3.org/2000/svg">
  <path d="M 2643.5 366  C 2647.14 366  2650 368.86  2650 372.5  C 2650 376.14  2647.14 379  2643.5 379  C 2639.86 379  2637 376.14  2637 372.5  C 2637 368.86  2639.86 366  2643.5 366  Z " fill-rule="nonzero" fill="#f0f0f0" stroke="none" />
  <path d="M 2643.5 366.5  C 2646.86 366.5  2649.5 369.14  2649.5 372.5  C 2649.5 375.86  2646.86 378.5  2643.5 378.5  C 2640.14 378.5  2637.5 375.86  2637.5 372.5  C 2637.5 369.14  2640.14 366.5  2643.5 366.5  Z " stroke-width="1" stroke="#797979" fill="none" />
  <path d="M 2643.5 375.75  C 2641.68 375.75  2640.25 374.32  2640.25 372.5  C 2640.25 370.68  2641.68 369.25  2643.5 369.25  C 2645.32 369.25  2646.75 370.68  2646.75 372.5  C 2646.75 374.32  2645.32 375.75  2643.5 375.75  " fill-rule="nonzero" fill="#797979" stroke="none" />
</svg>