<?xml version="1.0" encoding="utf-8"?>
<svg version="1.1" xmlns:xlink="http://www.w3.org/1999/xlink" width="13px" height="13px" viewBox="2039 170  13 13" xmlns="http://www.w3.org/2000/svg">
  <path d="M 2045.5 170  C 2049.14 170  2052 172.86  2052 176.5  C 2052 180.14  2049.14 183  2045.5 183  C 2041.86 183  2039 180.14  2039 176.5  C 2039 172.86  2041.86 170  2045.5 170  Z " fill-rule="nonzero" fill="#f0f0f0" stroke="none" />
  <path d="M 2045.5 170.5  C 2048.86 170.5  2051.5 173.14  2051.5 176.5  C 2051.5 179.86  2048.86 182.5  2045.5 182.5  C 2042.14 182.5  2039.5 179.86  2039.5 176.5  C 2039.5 173.14  2042.14 170.5  2045.5 170.5  Z " stroke-width="1" stroke="#797979" fill="none" />
  <path d="M 2045.5 179.75  C 2043.68 179.75  2042.25 178.32  2042.25 176.5  C 2042.25 174.68  2043.68 173.25  2045.5 173.25  C 2047.32 173.25  2048.75 174.68  2048.75 176.5  C 2048.75 178.32  2047.32 179.75  2045.5 179.75  " fill-rule="nonzero" fill="#797979" stroke="none" />
</svg>