<?xml version="1.0" encoding="utf-8"?>
<svg version="1.1" xmlns:xlink="http://www.w3.org/1999/xlink" width="13px" height="13px" viewBox="2214 170  13 13" xmlns="http://www.w3.org/2000/svg">
  <path d="M 2220.5 170  C 2224.14 170  2227 172.86  2227 176.5  C 2227 180.14  2224.14 183  2220.5 183  C 2216.86 183  2214 180.14  2214 176.5  C 2214 172.86  2216.86 170  2220.5 170  Z " fill-rule="nonzero" fill="#f0f0f0" stroke="none" />
  <path d="M 2220.5 170.5  C 2223.86 170.5  2226.5 173.14  2226.5 176.5  C 2226.5 179.86  2223.86 182.5  2220.5 182.5  C 2217.14 182.5  2214.5 179.86  2214.5 176.5  C 2214.5 173.14  2217.14 170.5  2220.5 170.5  Z " stroke-width="1" stroke="#797979" fill="none" />
  <path d="M 2220.5 179.75  C 2218.68 179.75  2217.25 178.32  2217.25 176.5  C 2217.25 174.68  2218.68 173.25  2220.5 173.25  C 2222.32 173.25  2223.75 174.68  2223.75 176.5  C 2223.75 178.32  2222.32 179.75  2220.5 179.75  " fill-rule="nonzero" fill="#797979" stroke="none" />
</svg>