<?xml version="1.0" encoding="utf-8"?>
<svg version="1.1" xmlns:xlink="http://www.w3.org/1999/xlink" width="13px" height="13px" viewBox="753 1748  13 13" xmlns="http://www.w3.org/2000/svg">
  <path d="M 759.5 1748  C 763.14 1748  766 1750.86  766 1754.5  C 766 1758.14  763.14 1761  759.5 1761  C 755.86 1761  753 1758.14  753 1754.5  C 753 1750.86  755.86 1748  759.5 1748  Z " fill-rule="nonzero" fill="#ffffff" stroke="none" />
  <path d="M 759.5 1748.5  C 762.86 1748.5  765.5 1751.14  765.5 1754.5  C 765.5 1757.86  762.86 1760.5  759.5 1760.5  C 756.14 1760.5  753.5 1757.86  753.5 1754.5  C 753.5 1751.14  756.14 1748.5  759.5 1748.5  Z " stroke-width="1" stroke="#797979" fill="none" />
  <path d="M 759.5 1757.75  C 757.68 1757.75  756.25 1756.32  756.25 1754.5  C 756.25 1752.68  757.68 1751.25  759.5 1751.25  C 761.32 1751.25  762.75 1752.68  762.75 1754.5  C 762.75 1756.32  761.32 1757.75  759.5 1757.75  " fill-rule="nonzero" fill="#797979" stroke="none" />
</svg>