<?xml version="1.0" encoding="utf-8"?>
<svg version="1.1" xmlns:xlink="http://www.w3.org/1999/xlink" width="13px" height="13px" viewBox="672 1818  13 13" xmlns="http://www.w3.org/2000/svg">
  <path d="M 678.5 1818  C 682.14 1818  685 1820.86  685 1824.5  C 685 1828.14  682.14 1831  678.5 1831  C 674.86 1831  672 1828.14  672 1824.5  C 672 1820.86  674.86 1818  678.5 1818  Z " fill-rule="nonzero" fill="#ffffff" stroke="none" />
  <path d="M 678.5 1818.5  C 681.86 1818.5  684.5 1821.14  684.5 1824.5  C 684.5 1827.86  681.86 1830.5  678.5 1830.5  C 675.14 1830.5  672.5 1827.86  672.5 1824.5  C 672.5 1821.14  675.14 1818.5  678.5 1818.5  Z " stroke-width="1" stroke="#797979" fill="none" />
  <path d="M 678.5 1827.75  C 676.68 1827.75  675.25 1826.32  675.25 1824.5  C 675.25 1822.68  676.68 1821.25  678.5 1821.25  C 680.32 1821.25  681.75 1822.68  681.75 1824.5  C 681.75 1826.32  680.32 1827.75  678.5 1827.75  " fill-rule="nonzero" fill="#797979" stroke="none" />
</svg>