<?xml version="1.0" encoding="utf-8"?>
<svg version="1.1" xmlns:xlink="http://www.w3.org/1999/xlink" width="13px" height="13px" viewBox="753 1818  13 13" xmlns="http://www.w3.org/2000/svg">
  <path d="M 759.5 1818  C 763.14 1818  766 1820.86  766 1824.5  C 766 1828.14  763.14 1831  759.5 1831  C 755.86 1831  753 1828.14  753 1824.5  C 753 1820.86  755.86 1818  759.5 1818  Z " fill-rule="nonzero" fill="#ffffff" stroke="none" />
  <path d="M 759.5 1818.5  C 762.86 1818.5  765.5 1821.14  765.5 1824.5  C 765.5 1827.86  762.86 1830.5  759.5 1830.5  C 756.14 1830.5  753.5 1827.86  753.5 1824.5  C 753.5 1821.14  756.14 1818.5  759.5 1818.5  Z " stroke-width="1" stroke="#797979" fill="none" />
  <path d="M 759.5 1827.75  C 757.68 1827.75  756.25 1826.32  756.25 1824.5  C 756.25 1822.68  757.68 1821.25  759.5 1821.25  C 761.32 1821.25  762.75 1822.68  762.75 1824.5  C 762.75 1826.32  761.32 1827.75  759.5 1827.75  " fill-rule="nonzero" fill="#797979" stroke="none" />
</svg>