<?xml version="1.0" encoding="utf-8"?>
<svg version="1.1" xmlns:xlink="http://www.w3.org/1999/xlink" width="13px" height="13px" viewBox="294 1156  13 13" xmlns="http://www.w3.org/2000/svg">
  <path d="M 300.5 1156  C 304.14 1156  307 1158.86  307 1162.5  C 307 1166.14  304.14 1169  300.5 1169  C 296.86 1169  294 1166.14  294 1162.5  C 294 1158.86  296.86 1156  300.5 1156  Z " fill-rule="nonzero" fill="#ffffff" stroke="none" />
  <path d="M 300.5 1156.5  C 303.86 1156.5  306.5 1159.14  306.5 1162.5  C 306.5 1165.86  303.86 1168.5  300.5 1168.5  C 297.14 1168.5  294.5 1165.86  294.5 1162.5  C 294.5 1159.14  297.14 1156.5  300.5 1156.5  Z " stroke-width="1" stroke="#797979" fill="none" />
  <path d="M 300.5 1165.75  C 298.68 1165.75  297.25 1164.32  297.25 1162.5  C 297.25 1160.68  298.68 1159.25  300.5 1159.25  C 302.32 1159.25  303.75 1160.68  303.75 1162.5  C 303.75 1164.32  302.32 1165.75  300.5 1165.75  " fill-rule="nonzero" fill="#797979" stroke="none" />
</svg>