<?xml version="1.0" encoding="utf-8"?>
<svg version="1.1" xmlns:xlink="http://www.w3.org/1999/xlink" width="13px" height="13px" viewBox="399 1156  13 13" xmlns="http://www.w3.org/2000/svg">
  <path d="M 405.5 1156  C 409.14 1156  412 1158.86  412 1162.5  C 412 1166.14  409.14 1169  405.5 1169  C 401.86 1169  399 1166.14  399 1162.5  C 399 1158.86  401.86 1156  405.5 1156  Z " fill-rule="nonzero" fill="#ffffff" stroke="none" />
  <path d="M 405.5 1156.5  C 408.86 1156.5  411.5 1159.14  411.5 1162.5  C 411.5 1165.86  408.86 1168.5  405.5 1168.5  C 402.14 1168.5  399.5 1165.86  399.5 1162.5  C 399.5 1159.14  402.14 1156.5  405.5 1156.5  Z " stroke-width="1" stroke="#797979" fill="none" />
  <path d="M 405.5 1165.75  C 403.68 1165.75  402.25 1164.32  402.25 1162.5  C 402.25 1160.68  403.68 1159.25  405.5 1159.25  C 407.32 1159.25  408.75 1160.68  408.75 1162.5  C 408.75 1164.32  407.32 1165.75  405.5 1165.75  " fill-rule="nonzero" fill="#797979" stroke="none" />
</svg>