<?xml version="1.0" encoding="utf-8"?>
<svg version="1.1" xmlns:xlink="http://www.w3.org/1999/xlink" width="13px" height="13px" viewBox="1774 1576  13 13" xmlns="http://www.w3.org/2000/svg">
  <path d="M 1780.5 1576  C 1784.14 1576  1787 1578.86  1787 1582.5  C 1787 1586.14  1784.14 1589  1780.5 1589  C 1776.86 1589  1774 1586.14  1774 1582.5  C 1774 1578.86  1776.86 1576  1780.5 1576  Z " fill-rule="nonzero" fill="#ffffff" stroke="none" />
  <path d="M 1780.5 1576.5  C 1783.86 1576.5  1786.5 1579.14  1786.5 1582.5  C 1786.5 1585.86  1783.86 1588.5  1780.5 1588.5  C 1777.14 1588.5  1774.5 1585.86  1774.5 1582.5  C 1774.5 1579.14  1777.14 1576.5  1780.5 1576.5  Z " stroke-width="1" stroke="#797979" fill="none" />
  <path d="M 1780.5 1585.75  C 1778.68 1585.75  1777.25 1584.32  1777.25 1582.5  C 1777.25 1580.68  1778.68 1579.25  1780.5 1579.25  C 1782.32 1579.25  1783.75 1580.68  1783.75 1582.5  C 1783.75 1584.32  1782.32 1585.75  1780.5 1585.75  " fill-rule="nonzero" fill="#797979" stroke="none" />
</svg>