<?xml version="1.0" encoding="utf-8"?>
<svg version="1.1" xmlns:xlink="http://www.w3.org/1999/xlink" width="13px" height="13px" viewBox="434 1415  13 13" xmlns="http://www.w3.org/2000/svg">
  <path d="M 440.5 1415  C 444.14 1415  447 1417.86  447 1421.5  C 447 1425.14  444.14 1428  440.5 1428  C 436.86 1428  434 1425.14  434 1421.5  C 434 1417.86  436.86 1415  440.5 1415  Z " fill-rule="nonzero" fill="#f0f0f0" stroke="none" />
  <path d="M 440.5 1415.5  C 443.86 1415.5  446.5 1418.14  446.5 1421.5  C 446.5 1424.86  443.86 1427.5  440.5 1427.5  C 437.14 1427.5  434.5 1424.86  434.5 1421.5  C 434.5 1418.14  437.14 1415.5  440.5 1415.5  Z " stroke-width="1" stroke="#797979" fill="none" />
  <path d="M 440.5 1424.75  C 438.68 1424.75  437.25 1423.32  437.25 1421.5  C 437.25 1419.68  438.68 1418.25  440.5 1418.25  C 442.32 1418.25  443.75 1419.68  443.75 1421.5  C 443.75 1423.32  442.32 1424.75  440.5 1424.75  " fill-rule="nonzero" fill="#797979" stroke="none" />
</svg>