<?xml version="1.0" encoding="utf-8"?>
<svg version="1.1" xmlns:xlink="http://www.w3.org/1999/xlink" width="13px" height="13px" viewBox="653 1414  13 13" xmlns="http://www.w3.org/2000/svg">
  <path d="M 659.5 1414  C 663.14 1414  666 1416.86  666 1420.5  C 666 1424.14  663.14 1427  659.5 1427  C 655.86 1427  653 1424.14  653 1420.5  C 653 1416.86  655.86 1414  659.5 1414  Z " fill-rule="nonzero" fill="#ffffff" stroke="none" />
  <path d="M 659.5 1414.5  C 662.86 1414.5  665.5 1417.14  665.5 1420.5  C 665.5 1423.86  662.86 1426.5  659.5 1426.5  C 656.14 1426.5  653.5 1423.86  653.5 1420.5  C 653.5 1417.14  656.14 1414.5  659.5 1414.5  Z " stroke-width="1" stroke="#797979" fill="none" />
  <path d="M 659.5 1423.75  C 657.68 1423.75  656.25 1422.32  656.25 1420.5  C 656.25 1418.68  657.68 1417.25  659.5 1417.25  C 661.32 1417.25  662.75 1418.68  662.75 1420.5  C 662.75 1422.32  661.32 1423.75  659.5 1423.75  " fill-rule="nonzero" fill="#797979" stroke="none" />
</svg>