<?xml version="1.0" encoding="utf-8"?>
<svg version="1.1" xmlns:xlink="http://www.w3.org/1999/xlink" width="13px" height="13px" viewBox="1919 1270  13 13" xmlns="http://www.w3.org/2000/svg">
  <path d="M 1925.5 1270  C 1929.14 1270  1932 1272.86  1932 1276.5  C 1932 1280.14  1929.14 1283  1925.5 1283  C 1921.86 1283  1919 1280.14  1919 1276.5  C 1919 1272.86  1921.86 1270  1925.5 1270  Z " fill-rule="nonzero" fill="#ffffff" stroke="none" />
  <path d="M 1925.5 1270.5  C 1928.86 1270.5  1931.5 1273.14  1931.5 1276.5  C 1931.5 1279.86  1928.86 1282.5  1925.5 1282.5  C 1922.14 1282.5  1919.5 1279.86  1919.5 1276.5  C 1919.5 1273.14  1922.14 1270.5  1925.5 1270.5  Z " stroke-width="1" stroke="#797979" fill="none" />
  <path d="M 1925.5 1279.75  C 1923.68 1279.75  1922.25 1278.32  1922.25 1276.5  C 1922.25 1274.68  1923.68 1273.25  1925.5 1273.25  C 1927.32 1273.25  1928.75 1274.68  1928.75 1276.5  C 1928.75 1278.32  1927.32 1279.75  1925.5 1279.75  " fill-rule="nonzero" fill="#797979" stroke="none" />
</svg>