<?xml version="1.0" encoding="utf-8"?>
<svg version="1.1" xmlns:xlink="http://www.w3.org/1999/xlink" width="13px" height="13px" viewBox="2252 1280  13 13" xmlns="http://www.w3.org/2000/svg">
  <path d="M 2258.5 1280  C 2262.14 1280  2265 1282.86  2265 1286.5  C 2265 1290.14  2262.14 1293  2258.5 1293  C 2254.86 1293  2252 1290.14  2252 1286.5  C 2252 1282.86  2254.86 1280  2258.5 1280  Z " fill-rule="nonzero" fill="#ffffff" stroke="none" />
  <path d="M 2258.5 1280.5  C 2261.86 1280.5  2264.5 1283.14  2264.5 1286.5  C 2264.5 1289.86  2261.86 1292.5  2258.5 1292.5  C 2255.14 1292.5  2252.5 1289.86  2252.5 1286.5  C 2252.5 1283.14  2255.14 1280.5  2258.5 1280.5  Z " stroke-width="1" stroke="#797979" fill="none" />
  <path d="M 2258.5 1289.75  C 2256.68 1289.75  2255.25 1288.32  2255.25 1286.5  C 2255.25 1284.68  2256.68 1283.25  2258.5 1283.25  C 2260.32 1283.25  2261.75 1284.68  2261.75 1286.5  C 2261.75 1288.32  2260.32 1289.75  2258.5 1289.75  " fill-rule="nonzero" fill="#797979" stroke="none" />
</svg>