<?xml version="1.0" encoding="utf-8"?>
<svg version="1.1" xmlns:xlink="http://www.w3.org/1999/xlink" width="13px" height="13px" viewBox="226 1058  13 13" xmlns="http://www.w3.org/2000/svg">
  <path d="M 232.5 1058  C 236.14 1058  239 1060.86  239 1064.5  C 239 1068.14  236.14 1071  232.5 1071  C 228.86 1071  226 1068.14  226 1064.5  C 226 1060.86  228.86 1058  232.5 1058  Z " fill-rule="nonzero" fill="#ffffff" stroke="none" />
  <path d="M 232.5 1058.5  C 235.86 1058.5  238.5 1061.14  238.5 1064.5  C 238.5 1067.86  235.86 1070.5  232.5 1070.5  C 229.14 1070.5  226.5 1067.86  226.5 1064.5  C 226.5 1061.14  229.14 1058.5  232.5 1058.5  Z " stroke-width="1" stroke="#797979" fill="none" />
  <path d="M 232.5 1067.75  C 230.68 1067.75  229.25 1066.32  229.25 1064.5  C 229.25 1062.68  230.68 1061.25  232.5 1061.25  C 234.32 1061.25  235.75 1062.68  235.75 1064.5  C 235.75 1066.32  234.32 1067.75  232.5 1067.75  " fill-rule="nonzero" fill="#797979" stroke="none" />
</svg>