<?xml version="1.0" encoding="utf-8"?>
<svg version="1.1" xmlns:xlink="http://www.w3.org/1999/xlink" width="13px" height="13px" viewBox="320 2875  13 13" xmlns="http://www.w3.org/2000/svg">
  <path d="M 326.5 2875  C 330.14 2875  333 2877.86  333 2881.5  C 333 2885.14  330.14 2888  326.5 2888  C 322.86 2888  320 2885.14  320 2881.5  C 320 2877.86  322.86 2875  326.5 2875  Z " fill-rule="nonzero" fill="#ffffff" stroke="none" />
  <path d="M 326.5 2875.5  C 329.86 2875.5  332.5 2878.14  332.5 2881.5  C 332.5 2884.86  329.86 2887.5  326.5 2887.5  C 323.14 2887.5  320.5 2884.86  320.5 2881.5  C 320.5 2878.14  323.14 2875.5  326.5 2875.5  Z " stroke-width="1" stroke="#797979" fill="none" />
  <path d="M 326.5 2884.75  C 324.68 2884.75  323.25 2883.32  323.25 2881.5  C 323.25 2879.68  324.68 2878.25  326.5 2878.25  C 328.32 2878.25  329.75 2879.68  329.75 2881.5  C 329.75 2883.32  328.32 2884.75  326.5 2884.75  " fill-rule="nonzero" fill="#797979" stroke="none" />
</svg>