<?xml version="1.0" encoding="utf-8"?>
<svg version="1.1" xmlns:xlink="http://www.w3.org/1999/xlink" width="13px" height="13px" viewBox="401 2875  13 13" xmlns="http://www.w3.org/2000/svg">
  <path d="M 407.5 2875  C 411.14 2875  414 2877.86  414 2881.5  C 414 2885.14  411.14 2888  407.5 2888  C 403.86 2888  401 2885.14  401 2881.5  C 401 2877.86  403.86 2875  407.5 2875  Z " fill-rule="nonzero" fill="#f0f0f0" stroke="none" />
  <path d="M 407.5 2875.5  C 410.86 2875.5  413.5 2878.14  413.5 2881.5  C 413.5 2884.86  410.86 2887.5  407.5 2887.5  C 404.14 2887.5  401.5 2884.86  401.5 2881.5  C 401.5 2878.14  404.14 2875.5  407.5 2875.5  Z " stroke-width="1" stroke="#797979" fill="none" />
  <path d="M 407.5 2884.75  C 405.68 2884.75  404.25 2883.32  404.25 2881.5  C 404.25 2879.68  405.68 2878.25  407.5 2878.25  C 409.32 2878.25  410.75 2879.68  410.75 2881.5  C 410.75 2883.32  409.32 2884.75  407.5 2884.75  " fill-rule="nonzero" fill="#797979" stroke="none" />
</svg>