<?xml version="1.0" encoding="utf-8"?>
<svg version="1.1" xmlns:xlink="http://www.w3.org/1999/xlink" width="13px" height="13px" viewBox="738 1178  13 13" xmlns="http://www.w3.org/2000/svg">
  <path d="M 744.5 1178  C 748.14 1178  751 1180.86  751 1184.5  C 751 1188.14  748.14 1191  744.5 1191  C 740.86 1191  738 1188.14  738 1184.5  C 738 1180.86  740.86 1178  744.5 1178  Z " fill-rule="nonzero" fill="#f0f0f0" stroke="none" />
  <path d="M 744.5 1178.5  C 747.86 1178.5  750.5 1181.14  750.5 1184.5  C 750.5 1187.86  747.86 1190.5  744.5 1190.5  C 741.14 1190.5  738.5 1187.86  738.5 1184.5  C 738.5 1181.14  741.14 1178.5  744.5 1178.5  Z " stroke-width="1" stroke="#797979" fill="none" />
  <path d="M 744.5 1187.75  C 742.68 1187.75  741.25 1186.32  741.25 1184.5  C 741.25 1182.68  742.68 1181.25  744.5 1181.25  C 746.32 1181.25  747.75 1182.68  747.75 1184.5  C 747.75 1186.32  746.32 1187.75  744.5 1187.75  " fill-rule="nonzero" fill="#797979" stroke="none" />
</svg>