<?xml version="1.0" encoding="utf-8"?>
<svg version="1.1" xmlns:xlink="http://www.w3.org/1999/xlink" width="13px" height="13px" viewBox="1770 1332  13 13" xmlns="http://www.w3.org/2000/svg">
  <path d="M 1776.5 1332  C 1780.14 1332  1783 1334.86  1783 1338.5  C 1783 1342.14  1780.14 1345  1776.5 1345  C 1772.86 1345  1770 1342.14  1770 1338.5  C 1770 1334.86  1772.86 1332  1776.5 1332  Z " fill-rule="nonzero" fill="#f0f0f0" stroke="none" />
  <path d="M 1776.5 1332.5  C 1779.86 1332.5  1782.5 1335.14  1782.5 1338.5  C 1782.5 1341.86  1779.86 1344.5  1776.5 1344.5  C 1773.14 1344.5  1770.5 1341.86  1770.5 1338.5  C 1770.5 1335.14  1773.14 1332.5  1776.5 1332.5  Z " stroke-width="1" stroke="#797979" fill="none" />
  <path d="M 1776.5 1341.75  C 1774.68 1341.75  1773.25 1340.32  1773.25 1338.5  C 1773.25 1336.68  1774.68 1335.25  1776.5 1335.25  C 1778.32 1335.25  1779.75 1336.68  1779.75 1338.5  C 1779.75 1340.32  1778.32 1341.75  1776.5 1341.75  " fill-rule="nonzero" fill="#797979" stroke="none" />
</svg>