<?xml version="1.0" encoding="utf-8"?>
<svg version="1.1" xmlns:xlink="http://www.w3.org/1999/xlink" width="12px" height="12px" viewBox="2655 518  12 12" xmlns="http://www.w3.org/2000/svg">
  <path d="M 2661 518  C 2664.36 518  2667 520.64  2667 524  C 2667 527.36  2664.36 530  2661 530  C 2657.64 530  2655 527.36  2655 524  C 2655 520.64  2657.64 518  2661 518  Z " fill-rule="nonzero" fill="#f0f0f0" stroke="none" />
  <path d="M 2661 518.5  C 2664.08 518.5  2666.5 520.92  2666.5 524  C 2666.5 527.08  2664.08 529.5  2661 529.5  C 2657.92 529.5  2655.5 527.08  2655.5 524  C 2655.5 520.92  2657.92 518.5  2661 518.5  Z " stroke-width="1" stroke="#797979" fill="none" />
  <path d="M 2661 527  C 2659.32 527  2658 525.68  2658 524  C 2658 522.32  2659.32 521  2661 521  C 2662.68 521  2664 522.32  2664 524  C 2664 525.68  2662.68 527  2661 527  " fill-rule="nonzero" fill="#797979" stroke="none" />
</svg>