<?xml version="1.0" encoding="utf-8"?>
<svg version="1.1" xmlns:xlink="http://www.w3.org/1999/xlink" width="12px" height="12px" viewBox="2585 518  12 12" xmlns="http://www.w3.org/2000/svg">
  <path d="M 2591 518  C 2594.36 518  2597 520.64  2597 524  C 2597 527.36  2594.36 530  2591 530  C 2587.64 530  2585 527.36  2585 524  C 2585 520.64  2587.64 518  2591 518  Z " fill-rule="nonzero" fill="#f0f0f0" stroke="none" />
  <path d="M 2591 518.5  C 2594.08 518.5  2596.5 520.92  2596.5 524  C 2596.5 527.08  2594.08 529.5  2591 529.5  C 2587.92 529.5  2585.5 527.08  2585.5 524  C 2585.5 520.92  2587.92 518.5  2591 518.5  Z " stroke-width="1" stroke="#797979" fill="none" />
  <path d="M 2591 527  C 2589.32 527  2588 525.68  2588 524  C 2588 522.32  2589.32 521  2591 521  C 2592.68 521  2594 522.32  2594 524  C 2594 525.68  2592.68 527  2591 527  " fill-rule="nonzero" fill="#797979" stroke="none" />
</svg>