<?xml version="1.0" encoding="utf-8"?>
<svg version="1.1" xmlns:xlink="http://www.w3.org/1999/xlink" width="33px" height="33px" xmlns="http://www.w3.org/2000/svg">
  <g transform="matrix(1 0 0 1 -1714 -676 )">
    <path d="M 27.19921875 13.986328125  C 27.45703125 13.728515625  27.5859375 13.40625  27.5859375 13.01953125  C 27.5859375 12.618489583333332  27.45703125 12.289062500000002  27.19921875 12.031250000000002  L 25.244140625 10.097656250000002  C 24.97200520833334 9.82552083333333  24.64973958333334 9.689453124999998  24.27734375 9.689453124999998  C 23.904947916666668 9.689453124999998  23.582682291666668 9.82552083333333  23.310546875 10.097656250000002  L 14.544921875 18.841796875000004  L 9.689453125 13.986328125  C 9.417317708333334 13.714192708333332  9.095052083333334 13.578125000000002  8.72265625 13.578125000000002  C 8.350260416666668 13.578125000000002  8.027994791666666 13.714192708333332  7.755859375 13.986328125  L 5.80078125 15.919921875  C 5.54296875 16.177734375  5.414062500000001 16.507161458333332  5.4140625 16.908203125000004  C 5.414062500000001 17.294921875000004  5.54296875 17.617187500000004  5.80078125 17.875000000000004  L 13.578125 25.65234375  C 13.850260416666668 25.924479166666664  14.172526041666668 26.060546875  14.544921875 26.060546875  C 14.931640625 26.060546875  15.261067708333334 25.924479166666664  15.533203125 25.65234375  L 27.19921875 13.986328125  Z M 30.787109375 8.2177734375  C 32.262369791666664 10.745768229166664  33 13.506510416666663  33 16.5  C 33 19.493489583333336  32.262369791666664 22.25423177083333  30.787109375 24.7822265625  C 29.311848958333336 27.310221354166668  27.310221354166668 29.311848958333332  24.7822265625 30.787109375  C 22.254231770833336 32.26236979166667  19.493489583333336 33  16.5 33  C 13.506510416666668 33  10.745768229166668 32.26236979166667  8.2177734375 30.787109375  C 5.689778645833334 29.311848958333332  3.688151041666667 27.310221354166668  2.212890625 24.7822265625  C 0.7376302083333333 22.25423177083333  0 19.493489583333336  0 16.5  C 0 13.506510416666663  0.7376302083333333 10.745768229166664  2.212890625 8.2177734375  C 3.688151041666667 5.689778645833333  5.689778645833334 3.6881510416666634  8.2177734375 2.2128906249999987  C 10.745768229166668 0.7376302083333305  13.506510416666668 0  16.5 0  C 19.493489583333336 0  22.254231770833336 0.7376302083333305  24.7822265625 2.2128906249999987  C 27.310221354166668 3.6881510416666634  29.311848958333336 5.689778645833333  30.787109375 8.2177734375  Z " fill-rule="nonzero" fill="#aaaaaa" stroke="none" transform="matrix(1 0 0 1 1714 676 )" />
  </g>
</svg>