<?xml version="1.0" encoding="utf-8"?>
<svg version="1.1" xmlns:xlink="http://www.w3.org/1999/xlink" width="13px" height="13px" viewBox="294 1634  13 13" xmlns="http://www.w3.org/2000/svg">
  <path d="M 300.5 1634  C 304.14 1634  307 1636.86  307 1640.5  C 307 1644.14  304.14 1647  300.5 1647  C 296.86 1647  294 1644.14  294 1640.5  C 294 1636.86  296.86 1634  300.5 1634  Z " fill-rule="nonzero" fill="#f0f0f0" stroke="none" />
  <path d="M 300.5 1634.5  C 303.86 1634.5  306.5 1637.14  306.5 1640.5  C 306.5 1643.86  303.86 1646.5  300.5 1646.5  C 297.14 1646.5  294.5 1643.86  294.5 1640.5  C 294.5 1637.14  297.14 1634.5  300.5 1634.5  Z " stroke-width="1" stroke="#797979" fill="none" />
  <path d="M 300.5 1643.75  C 298.68 1643.75  297.25 1642.32  297.25 1640.5  C 297.25 1638.68  298.68 1637.25  300.5 1637.25  C 302.32 1637.25  303.75 1638.68  303.75 1640.5  C 303.75 1642.32  302.32 1643.75  300.5 1643.75  " fill-rule="nonzero" fill="#797979" stroke="none" />
</svg>