<?xml version="1.0" encoding="utf-8"?>
<svg version="1.1" xmlns:xlink="http://www.w3.org/1999/xlink" width="13px" height="13px" viewBox="1715 1576  13 13" xmlns="http://www.w3.org/2000/svg">
  <path d="M 1721.5 1576  C 1725.14 1576  1728 1578.86  1728 1582.5  C 1728 1586.14  1725.14 1589  1721.5 1589  C 1717.86 1589  1715 1586.14  1715 1582.5  C 1715 1578.86  1717.86 1576  1721.5 1576  Z " fill-rule="nonzero" fill="#ffffff" stroke="none" />
  <path d="M 1721.5 1576.5  C 1724.86 1576.5  1727.5 1579.14  1727.5 1582.5  C 1727.5 1585.86  1724.86 1588.5  1721.5 1588.5  C 1718.14 1588.5  1715.5 1585.86  1715.5 1582.5  C 1715.5 1579.14  1718.14 1576.5  1721.5 1576.5  Z " stroke-width="1" stroke="#797979" fill="none" />
  <path d="M 1721.5 1585.75  C 1719.68 1585.75  1718.25 1584.32  1718.25 1582.5  C 1718.25 1580.68  1719.68 1579.25  1721.5 1579.25  C 1723.32 1579.25  1724.75 1580.68  1724.75 1582.5  C 1724.75 1584.32  1723.32 1585.75  1721.5 1585.75  " fill-rule="nonzero" fill="#797979" stroke="none" />
</svg>