<?xml version="1.0" encoding="utf-8"?>
<svg version="1.1" xmlns:xlink="http://www.w3.org/1999/xlink" width="18px" height="18px" preserveAspectRatio="xMinYMid meet" viewBox="3177 3292  18 16" xmlns="http://www.w3.org/2000/svg">
  <path d="M 1191.5 3197  L 1191.5 3342  A 5 5 0 0 0 1196 3347.5 L 1313 3347.5  A 3 3 0 0 1 1316 3344.5 A 3 3 0 0 1 1319 3347.5 L 2409 3347.5  A 3 3 0 0 1 2412 3344.5 A 3 3 0 0 1 2415 3347.5 L 3172 3347.5  A 5 5 0 0 0 3177.5 3342.5 L 3177.5 3305  A 5 5 0 0 1 3182.5 3300.5 L 3186 3300.5  " stroke-width="1" stroke="#555555" fill="none" />
  <path d="M 3180.946446609407 3295.8535533905933  L 3185.5928932188135 3300.5  L 3180.946446609407 3305.1464466094067  L 3181.6535533905935 3305.8535533905933  L 3186.6535533905935 3300.8535533905933  L 3187.007106781187 3300.5  L 3186.6535533905935 3300.1464466094067  L 3181.6535533905935 3295.1464466094067  L 3180.946446609407 3295.8535533905933  Z " fill-rule="nonzero" fill="#555555" stroke="none" />
</svg>