<?xml version="1.0" encoding="utf-8"?>
<svg version="1.1" xmlns:xlink="http://www.w3.org/1999/xlink" width="10px" height="15px" preserveAspectRatio="xMidYMin meet" viewBox="2759 3300  8 15" xmlns="http://www.w3.org/2000/svg">
  <path d="M 362.5 2879  L 362.5 3305  A 5 5 0 0 0 367 3310.5 L 1188 3310.5  A 3 3 0 0 1 1191 3307.5 A 3 3 0 0 1 1194 3310.5 L 1313 3310.5  A 3 3 0 0 1 1316 3307.5 A 3 3 0 0 1 1319 3310.5 L 2409 3310.5  A 3 3 0 0 1 2412 3307.5 A 3 3 0 0 1 2415 3310.5 L 2758 3310.5  A 5 5 0 0 0 2763.5 3305.5 L 2763.5 3301  " stroke-width="1" stroke="#333333" fill="none" />
  <path d="M 2758.8535533905933 3306.053553390593  L 2763.5 3301.4071067811865  L 2768.1464466094067 3306.053553390593  L 2768.8535533905933 3305.3464466094065  L 2763.8535533905933 3300.3464466094065  L 2763.5 3299.992893218813  L 2763.1464466094067 3300.3464466094065  L 2758.1464466094067 3305.3464466094065  L 2758.8535533905933 3306.053553390593  Z " fill-rule="nonzero" fill="#333333" stroke="none" />
</svg>