<?xml version="1.0" encoding="utf-8"?>
<svg version="1.1" xmlns:xlink="http://www.w3.org/1999/xlink" width="10px" height="548px" preserveAspectRatio="xMidYMin meet" viewBox="4567 2836  8 548" xmlns="http://www.w3.org/2000/svg">
  <path d="M 4571.5 2836  L 4571.5 3374  A 5 5 0 0 0 4576 3379.5 L 5485 3379.5  A 3 3 0 0 1 5488 3376.5 A 3 3 0 0 1 5491 3379.5 L 6532 3379.5  A 5 5 0 0 0 6537.5 3374 L 6537.5 3338  A 3 3 0 0 0 6540.5 3335 A 3 3 0 0 0 6537.5 3332 L 6537.5 3322  " stroke-width="1" stroke="#333333" fill="none" />
  <path d="M 6532.853553390593 3327.053553390593  L 6537.5 3322.4071067811865  L 6542.146446609407 3327.053553390593  L 6542.853553390593 3326.3464466094065  L 6537.853553390593 3321.3464466094065  L 6537.5 3320.992893218813  L 6537.146446609407 3321.3464466094065  L 6532.146446609407 3326.3464466094065  L 6532.853553390593 3327.053553390593  Z " fill-rule="nonzero" fill="#333333" stroke="none" />
</svg>