<?xml version="1.0" encoding="utf-8"?>
<svg version="1.1" xmlns:xlink="http://www.w3.org/1999/xlink" width="73px" height="90px" xmlns="http://www.w3.org/2000/svg">
  <defs>
    <mask fill="white" id="clip72">
      <path d="M 22.3330078125 22.55859375  C 23.9443359375 20.930989583333332  24.75 18.96701388888889  24.75 16.666666666666668  C 24.75 14.366319444444443  23.9443359375 12.40234375  22.3330078125 10.774739583333332  C 20.7216796875 9.147135416666668  18.777343750000004 8.333333333333332  16.5 8.333333333333332  C 14.222656250000002 8.333333333333332  12.2783203125 9.147135416666668  10.6669921875 10.774739583333332  C 9.0556640625 12.40234375  8.25 14.366319444444443  8.25 16.666666666666668  C 8.25 18.96701388888889  9.0556640625 20.930989583333332  10.6669921875 22.55859375  C 12.2783203125 24.186197916666668  14.222656250000002 25  16.5 25  C 18.777343750000004 25  20.7216796875 24.186197916666668  22.3330078125 22.55859375  Z M 28.166015625 4.8828125  C 31.388671875 8.138020833333332  33 12.065972222222216  33 16.666666666666668  C 33 19.032118055555554  32.6455078125 20.97439236111111  31.9365234375 22.493489583333332  L 20.2060546875 47.68880208333333  C 19.8623046875 48.40494791666667  19.35205078125 48.96918402777777  18.67529296875 49.38151041666667  C 17.99853515625 49.79383680555556  17.2734375 50  16.5 50  C 15.7265625 50  15.00146484375 49.79383680555556  14.32470703125 49.38151041666667  C 13.64794921875 48.96918402777777  13.1484375 48.40494791666667  12.826171875 47.68880208333333  L 1.0634765625 22.493489583333332  C 0.3544921875 20.97439236111111  0 19.032118055555554  0 16.666666666666668  C 0 12.065972222222216  1.611328125 8.138020833333332  4.833984375 4.8828125  C 8.056640625000002 1.6276041666666685  11.9453125 0  16.5 0  C 21.0546875 0  24.943359375 1.6276041666666685  28.166015625 4.8828125  Z " fill-rule="evenodd" />
    </mask>
    <filter x="370px" y="1309px" width="73px" height="90px" filterUnits="userSpaceOnUse" id="filter73">
      <feOffset dx="0" dy="0" in="SourceAlpha" result="shadowOffsetInner" />
      <feGaussianBlur stdDeviation="10" in="shadowOffsetInner" result="shadowGaussian" />
      <feComposite in2="shadowGaussian" operator="atop" in="SourceAlpha" result="shadowComposite" />
      <feColorMatrix type="matrix" values="0 0 0 0 1  0 0 0 0 1  0 0 0 0 1  0 0 0 0.9921568627450981 0  " in="shadowComposite" />
    </filter>
    <g id="widget74">
      <path d="M 22.3330078125 22.55859375  C 23.9443359375 20.930989583333332  24.75 18.96701388888889  24.75 16.666666666666668  C 24.75 14.366319444444443  23.9443359375 12.40234375  22.3330078125 10.774739583333332  C 20.7216796875 9.147135416666668  18.777343750000004 8.333333333333332  16.5 8.333333333333332  C 14.222656250000002 8.333333333333332  12.2783203125 9.147135416666668  10.6669921875 10.774739583333332  C 9.0556640625 12.40234375  8.25 14.366319444444443  8.25 16.666666666666668  C 8.25 18.96701388888889  9.0556640625 20.930989583333332  10.6669921875 22.55859375  C 12.2783203125 24.186197916666668  14.222656250000002 25  16.5 25  C 18.777343750000004 25  20.7216796875 24.186197916666668  22.3330078125 22.55859375  Z M 28.166015625 4.8828125  C 31.388671875 8.138020833333332  33 12.065972222222216  33 16.666666666666668  C 33 19.032118055555554  32.6455078125 20.97439236111111  31.9365234375 22.493489583333332  L 20.2060546875 47.68880208333333  C 19.8623046875 48.40494791666667  19.35205078125 48.96918402777777  18.67529296875 49.38151041666667  C 17.99853515625 49.79383680555556  17.2734375 50  16.5 50  C 15.7265625 50  15.00146484375 49.79383680555556  14.32470703125 49.38151041666667  C 13.64794921875 48.96918402777777  13.1484375 48.40494791666667  12.826171875 47.68880208333333  L 1.0634765625 22.493489583333332  C 0.3544921875 20.97439236111111  0 19.032118055555554  0 16.666666666666668  C 0 12.065972222222216  1.611328125 8.138020833333332  4.833984375 4.8828125  C 8.056640625000002 1.6276041666666685  11.9453125 0  16.5 0  C 21.0546875 0  24.943359375 1.6276041666666685  28.166015625 4.8828125  Z " fill-rule="nonzero" fill="#2db7f5" stroke="none" transform="matrix(1 0 0 1 390 1329 )" />
      <path d="M 22.3330078125 22.55859375  C 23.9443359375 20.930989583333332  24.75 18.96701388888889  24.75 16.666666666666668  C 24.75 14.366319444444443  23.9443359375 12.40234375  22.3330078125 10.774739583333332  C 20.7216796875 9.147135416666668  18.777343750000004 8.333333333333332  16.5 8.333333333333332  C 14.222656250000002 8.333333333333332  12.2783203125 9.147135416666668  10.6669921875 10.774739583333332  C 9.0556640625 12.40234375  8.25 14.366319444444443  8.25 16.666666666666668  C 8.25 18.96701388888889  9.0556640625 20.930989583333332  10.6669921875 22.55859375  C 12.2783203125 24.186197916666668  14.222656250000002 25  16.5 25  C 18.777343750000004 25  20.7216796875 24.186197916666668  22.3330078125 22.55859375  Z " stroke-width="2" stroke="#ffffff" fill="none" transform="matrix(1 0 0 1 390 1329 )" mask="url(#clip72)" />
      <path d="M 28.166015625 4.8828125  C 31.388671875 8.138020833333332  33 12.065972222222216  33 16.666666666666668  C 33 19.032118055555554  32.6455078125 20.97439236111111  31.9365234375 22.493489583333332  L 20.2060546875 47.68880208333333  C 19.8623046875 48.40494791666667  19.35205078125 48.96918402777777  18.67529296875 49.38151041666667  C 17.99853515625 49.79383680555556  17.2734375 50  16.5 50  C 15.7265625 50  15.00146484375 49.79383680555556  14.32470703125 49.38151041666667  C 13.64794921875 48.96918402777777  13.1484375 48.40494791666667  12.826171875 47.68880208333333  L 1.0634765625 22.493489583333332  C 0.3544921875 20.97439236111111  0 19.032118055555554  0 16.666666666666668  C 0 12.065972222222216  1.611328125 8.138020833333332  4.833984375 4.8828125  C 8.056640625000002 1.6276041666666685  11.9453125 0  16.5 0  C 21.0546875 0  24.943359375 1.6276041666666685  28.166015625 4.8828125  Z " stroke-width="2" stroke="#ffffff" fill="none" transform="matrix(1 0 0 1 390 1329 )" mask="url(#clip72)" />
    </g>
  </defs>
  <g transform="matrix(1 0 0 1 -370 -1309 )">
    <use xlink:href="#widget74" filter="url(#filter73)" />
    <use xlink:href="#widget74" />
  </g>
</svg>