<?xml version="1.0" encoding="utf-8"?>
<svg version="1.1" xmlns:xlink="http://www.w3.org/1999/xlink" width="10px" height="533px" preserveAspectRatio="xMidYMin meet" viewBox="4538 2898  8 533" xmlns="http://www.w3.org/2000/svg">
  <path d="M 4542.5 2898  L 4542.5 3421  A 5 5 0 0 0 4547 3426.5 L 5485 3426.5  A 3 3 0 0 1 5488 3423.5 A 3 3 0 0 1 5491 3426.5 L 6628 3426.5  A 3 3 0 0 1 6631 3423.5 A 3 3 0 0 1 6634 3426.5 L 6920 3426.5  A 5 5 0 0 0 6925.5 3421 L 6925.5 3338  A 3 3 0 0 0 6928.5 3335 A 3 3 0 0 0 6925.5 3332 L 6925.5 3320  " stroke-width="1" stroke="#333333" fill="none" />
  <path d="M 6920.853553390593 3325.053553390593  L 6925.5 3320.4071067811865  L 6930.146446609407 3325.053553390593  L 6930.853553390593 3324.3464466094065  L 6925.853553390593 3319.3464466094065  L 6925.5 3318.992893218813  L 6925.146446609407 3319.3464466094065  L 6920.146446609407 3324.3464466094065  L 6920.853553390593 3325.053553390593  Z " fill-rule="nonzero" fill="#333333" stroke="none" />
</svg>