<?xml version="1.0" encoding="utf-8"?>
<svg version="1.1" xmlns:xlink="http://www.w3.org/1999/xlink" width="34px" height="15px" xmlns="http://www.w3.org/2000/svg">
  <g transform="matrix(1 0 0 1 -2219 -4904 )">
    <path d="M 33.80324074074074 7.0026007802340695  C 33.93441358024692 7.1326397919375815  34.00000000000001 7.282184655396618  34 7.451235370611183  C 34.00000000000001 7.633289986996098  33.93441358024692 7.78933680104031  33.80324074074074 7.919375812743824  L 26.247685185185183 14.82444733420026  C 26.03780864197531 15.006501950585173  25.808256172839506 15.04551365409623  25.55902777777778 14.941482444733419  C 25.309799382716054 14.82444733420026  25.185185185185183 14.635890767230167  25.185185185185183 14.375812743823147  L 25.185185185185183 10  L 0.6296296296296295 10  C 0.4459876543209877 10.006501950585175  0.2951388888888889 9.947984395318596  0.17708333333333331 9.830949284785435  C 0.059027777777777776 9.713914174252276  0 9.564369310793236  0 9.382314694408322  L 0 5.637191157347203  C 0 5.455136540962289  0.059027777777777776 5.305591677503251  0.17708333333333331 5.1885565669700915  C 0.2951388888888889 5.0715214564369315  0.4459876543209877 5.013003901170351  0.6296296296296295 5  L 25.185185185185183 5  L 25.185185185185183 0.6436931079323804  C 25.185185185185183 0.37061118335500687  25.309799382716054 0.1820546163849146  25.55902777777778 0.07802340702210697  C 25.808256172839506 -0.02600780234070399  26.03780864197531 0.006501950585174332  26.247685185185183 0.17555266579974027  L 33.80324074074074 7.0026007802340695  Z " fill-rule="nonzero" fill="#f59a23" stroke="none" transform="matrix(1 0 0 1 2219 4904 )" />
  </g>
</svg>