<?xml version="1.0" encoding="utf-8"?>
<svg version="1.1" xmlns:xlink="http://www.w3.org/1999/xlink" width="13px" height="13px" viewBox="1094 956  13 13" xmlns="http://www.w3.org/2000/svg">
  <path d="M 1100.5 956  C 1104.14 956  1107 958.86  1107 962.5  C 1107 966.14  1104.14 969  1100.5 969  C 1096.86 969  1094 966.14  1094 962.5  C 1094 958.86  1096.86 956  1100.5 956  Z " fill-rule="nonzero" fill="#f0f0f0" stroke="none" />
  <path d="M 1100.5 956.5  C 1103.86 956.5  1106.5 959.14  1106.5 962.5  C 1106.5 965.86  1103.86 968.5  1100.5 968.5  C 1097.14 968.5  1094.5 965.86  1094.5 962.5  C 1094.5 959.14  1097.14 956.5  1100.5 956.5  Z " stroke-width="1" stroke="#797979" fill="none" />
  <path d="M 1100.5 965.75  C 1098.68 965.75  1097.25 964.32  1097.25 962.5  C 1097.25 960.68  1098.68 959.25  1100.5 959.25  C 1102.32 959.25  1103.75 960.68  1103.75 962.5  C 1103.75 964.32  1102.32 965.75  1100.5 965.75  " fill-rule="nonzero" fill="#797979" stroke="none" />
</svg>