<?xml version="1.0" encoding="utf-8"?>
<svg version="1.1" xmlns:xlink="http://www.w3.org/1999/xlink" width="28px" height="28px" xmlns="http://www.w3.org/2000/svg">
  <g transform="matrix(1 0 0 1 -116 -1796 )">
    <path d="M 23.078125 11.8671875  C 23.296875 11.6484375  23.40625 11.375  23.40625 11.046875  C 23.40625 10.706597222222221  23.296875 10.427083333333334  23.078125 10.208333333333334  L 21.419270833333336 8.567708333333334  C 21.18836805555556 8.336805555555554  20.91493055555556 8.221354166666666  20.598958333333336 8.221354166666666  C 20.282986111111114 8.221354166666666  20.009548611111114 8.336805555555554  19.778645833333336 8.567708333333334  L 12.341145833333332 15.986979166666668  L 8.221354166666668 11.8671875  C 7.990451388888889 11.636284722222221  7.717013888888889 11.520833333333334  7.401041666666667 11.520833333333334  C 7.0850694444444455 11.520833333333334  6.811631944444445 11.636284722222221  6.580729166666666 11.8671875  L 4.921875 13.5078125  C 4.703125 13.7265625  4.593750000000001 14.006076388888888  4.59375 14.346354166666668  C 4.593750000000001 14.674479166666668  4.703125 14.947916666666668  4.921875 15.166666666666668  L 11.520833333333332 21.765625  C 11.751736111111112 21.996527777777775  12.025173611111112 22.111979166666664  12.341145833333332 22.111979166666664  C 12.669270833333332 22.111979166666664  12.948784722222223 21.996527777777775  13.1796875 21.765625  L 23.078125 11.8671875  Z M 26.122395833333336 6.97265625  C 27.37413194444444 9.117621527777775  28 11.460069444444441  28 14  C 28 16.539930555555557  27.37413194444444 18.882378472222218  26.122395833333336 21.02734375  C 24.870659722222225 23.17230902777778  23.17230902777778 24.87065972222222  21.02734375 26.122395833333336  C 18.882378472222225 27.374131944444446  16.539930555555557 28  14 28  C 11.460069444444445 28  9.117621527777779 27.374131944444446  6.97265625 26.122395833333336  C 4.827690972222222 24.87065972222222  3.129340277777778 23.17230902777778  1.8776041666666667 21.02734375  C 0.6258680555555555 18.882378472222218  0 16.539930555555557  0 14  C 0 11.460069444444441  0.6258680555555555 9.117621527777775  1.8776041666666667 6.97265625  C 3.129340277777778 4.827690972222221  4.827690972222222 3.129340277777775  6.97265625 1.8776041666666656  C 9.117621527777779 0.6258680555555531  11.460069444444445 0  14 0  C 16.539930555555557 0  18.882378472222225 0.6258680555555531  21.02734375 1.8776041666666656  C 23.17230902777778 3.129340277777775  24.870659722222225 4.827690972222221  26.122395833333336 6.97265625  Z " fill-rule="nonzero" fill="#63a103" stroke="none" transform="matrix(1 0 0 1 116 1796 )" />
  </g>
</svg>