<?xml version="1.0" encoding="utf-8"?>
<svg version="1.1" xmlns:xlink="http://www.w3.org/1999/xlink" width="28px" height="28px" xmlns="http://www.w3.org/2000/svg">
  <g transform="matrix(1 0 0 1 -116 -1979 )">
    <path d="M 18.9765625 5.4140625  C 17.45746527777778 4.526909722222221  15.798611111111112 4.083333333333334  14 4.083333333333334  C 12.20138888888889 4.083333333333334  10.542534722222223 4.526909722222221  9.0234375 5.4140625  C 7.504340277777779 6.301215277777775  6.301215277777779 7.504340277777775  5.4140625 9.0234375  C 4.526909722222222 10.542534722222221  4.083333333333334 12.201388888888888  4.083333333333334 14  C 4.083333333333334 15.798611111111112  4.526909722222222 17.457465277777775  5.4140625 18.9765625  C 6.301215277777779 20.495659722222218  7.504340277777779 21.69878472222222  9.0234375 22.5859375  C 10.542534722222223 23.47309027777778  12.20138888888889 23.916666666666664  14 23.916666666666664  C 15.798611111111112 23.916666666666664  17.45746527777778 23.47309027777778  18.9765625 22.5859375  C 20.495659722222225 21.69878472222222  21.698784722222225 20.495659722222218  22.5859375 18.9765625  C 23.47309027777778 17.457465277777775  23.916666666666664 15.798611111111112  23.916666666666664 14  C 23.916666666666664 12.201388888888888  23.47309027777778 10.542534722222221  22.5859375 9.0234375  C 21.698784722222225 7.504340277777775  20.495659722222225 6.301215277777775  18.9765625 5.4140625  Z M 26.122395833333336 6.97265625  C 27.37413194444444 9.117621527777775  28 11.460069444444441  28 14  C 28 16.539930555555557  27.37413194444444 18.882378472222218  26.122395833333336 21.02734375  C 24.870659722222225 23.17230902777778  23.17230902777778 24.87065972222222  21.02734375 26.122395833333336  C 18.882378472222225 27.374131944444446  16.539930555555557 28  14 28  C 11.460069444444445 28  9.117621527777779 27.374131944444446  6.97265625 26.122395833333336  C 4.827690972222222 24.87065972222222  3.129340277777778 23.17230902777778  1.8776041666666667 21.02734375  C 0.6258680555555555 18.882378472222218  0 16.539930555555557  0 14  C 0 11.460069444444441  0.6258680555555555 9.117621527777775  1.8776041666666667 6.97265625  C 3.129340277777778 4.827690972222221  4.827690972222222 3.129340277777775  6.97265625 1.8776041666666656  C 9.117621527777779 0.6258680555555531  11.460069444444445 0  14 0  C 16.539930555555557 0  18.882378472222225 0.6258680555555531  21.02734375 1.8776041666666656  C 23.17230902777778 3.129340277777775  24.870659722222225 4.827690972222221  26.122395833333336 6.97265625  Z " fill-rule="nonzero" fill="#63a103" stroke="none" transform="matrix(1 0 0 1 116 1979 )" />
  </g>
</svg>