<?xml version="1.0" encoding="utf-8"?>
<svg version="1.1" xmlns:xlink="http://www.w3.org/1999/xlink" width="10px" height="10px" xmlns="http://www.w3.org/2000/svg">
  <g transform="matrix(1 0 0 1 -125 -1896 )">
    <path d="M 9.329427083333334 2.490234375  C 9.776475694444443 3.256293402777777  10 4.092881944444443  10 5  C 10 5.907118055555555  9.776475694444443 6.743706597222221  9.329427083333334 7.509765625  C 8.882378472222223 8.275824652777779  8.275824652777779 8.882378472222221  7.509765625 9.329427083333334  C 6.743706597222223 9.776475694444445  5.907118055555555 10  5 10  C 4.092881944444445 10  3.2562934027777777 9.776475694444445  2.490234375 9.329427083333334  C 1.7241753472222223 8.882378472222221  1.117621527777778 8.275824652777779  0.6705729166666667 7.509765625  C 0.22352430555555552 6.743706597222221  0 5.907118055555555  0 5  C 0 4.092881944444443  0.22352430555555552 3.256293402777777  0.6705729166666667 2.490234375  C 1.117621527777778 1.724175347222222  1.7241753472222223 1.1176215277777768  2.490234375 0.6705729166666663  C 3.2562934027777777 0.2235243055555547  4.092881944444445 0  5 0  C 5.907118055555555 0  6.743706597222223 0.2235243055555547  7.509765625 0.6705729166666663  C 8.275824652777779 1.1176215277777768  8.882378472222223 1.724175347222222  9.329427083333334 2.490234375  Z " fill-rule="nonzero" fill="#63a103" stroke="none" transform="matrix(1 0 0 1 125 1896 )" />
  </g>
</svg>