<?xml version="1.0" encoding="utf-8"?>
<svg version="1.1" xmlns:xlink="http://www.w3.org/1999/xlink" width="13px" height="13px" xmlns="http://www.w3.org/2000/svg">
  <g transform="matrix(1 0 0 1 -1012 -1252 )">
    <path d="M 9.563802083333334 8.802083333333332  C 9.671006944444445 8.694878472222223  9.724609375 8.565104166666668  9.724609375 8.412760416666668  C 9.724609375 8.266059027777777  9.671006944444445 8.139105902777777  9.563802083333334 8.031901041666668  L 8.031901041666666 6.5  L 9.563802083333334 4.968098958333334  C 9.671006944444445 4.860894097222221  9.724609375 4.733940972222221  9.724609375 4.587239583333334  C 9.724609375 4.434895833333334  9.671006944444445 4.305121527777776  9.563802083333334 4.197916666666666  L 8.802083333333334 3.436197916666666  C 8.694878472222223 3.328993055555555  8.565104166666666 3.275390625  8.412760416666666 3.275390625  C 8.266059027777779 3.275390625  8.139105902777779 3.328993055555555  8.031901041666666 3.436197916666666  L 6.5 4.968098958333334  L 4.968098958333333 3.436197916666666  C 4.860894097222222 3.328993055555555  4.733940972222222 3.275390625  4.587239583333333 3.275390625  C 4.434895833333333 3.275390625  4.305121527777779 3.328993055555555  4.197916666666667 3.436197916666666  L 3.436197916666667 4.197916666666666  C 3.328993055555556 4.305121527777776  3.275390625000001 4.434895833333334  3.275390625 4.587239583333334  C 3.275390625000001 4.733940972222221  3.328993055555556 4.860894097222221  3.436197916666667 4.968098958333334  L 4.968098958333333 6.5  L 3.436197916666667 8.031901041666668  C 3.328993055555556 8.139105902777777  3.275390625000001 8.266059027777777  3.275390625 8.412760416666668  C 3.275390625000001 8.565104166666668  3.328993055555556 8.694878472222223  3.436197916666667 8.802083333333332  L 4.197916666666667 9.563802083333332  C 4.305121527777779 9.671006944444443  4.434895833333333 9.724609375  4.587239583333333 9.724609375  C 4.733940972222222 9.724609375  4.860894097222222 9.671006944444443  4.968098958333333 9.563802083333332  L 6.5 8.031901041666668  L 8.031901041666666 9.563802083333332  C 8.139105902777779 9.671006944444443  8.266059027777779 9.724609375  8.412760416666666 9.724609375  C 8.565104166666666 9.724609375  8.694878472222223 9.671006944444443  8.802083333333334 9.563802083333332  L 9.563802083333334 8.802083333333332  Z M 12.128255208333334 3.2373046875  C 12.709418402777777 4.23318142361111  13 5.320746527777776  13 6.5  C 13 7.679253472222222  12.709418402777777 8.766818576388888  12.128255208333334 9.7626953125  C 11.54709201388889 10.75857204861111  10.75857204861111 11.54709201388889  9.7626953125 12.128255208333334  C 8.76681857638889 12.709418402777779  7.679253472222222 13  6.5 13  C 5.320746527777779 13  4.233181423611112 12.709418402777779  3.2373046875 12.128255208333334  C 2.2414279513888893 11.54709201388889  1.4529079861111112 10.75857204861111  0.8717447916666667 9.7626953125  C 0.2905815972222222 8.766818576388888  0 7.679253472222222  0 6.5  C 0 5.320746527777776  0.2905815972222222 4.23318142361111  0.8717447916666667 3.2373046875  C 1.4529079861111112 2.241427951388889  2.2414279513888893 1.4529079861111098  3.2373046875 0.8717447916666662  C 4.233181423611112 0.2905815972222211  5.320746527777779 0  6.5 0  C 7.679253472222222 0  8.76681857638889 0.2905815972222211  9.7626953125 0.8717447916666662  C 10.75857204861111 1.4529079861111098  11.54709201388889 2.241427951388889  12.128255208333334 3.2373046875  Z " fill-rule="nonzero" fill="#aaaaaa" stroke="none" transform="matrix(1 0 0 1 1012 1252 )" />
  </g>
</svg>