<?xml version="1.0" encoding="utf-8"?>
<svg version="1.1" xmlns:xlink="http://www.w3.org/1999/xlink" width="13px" height="13px" xmlns="http://www.w3.org/2000/svg">
  <g transform="matrix(1 0 0 1 -1012 -1157 )">
    <path d="M 10.71484375 5.509765625  C 10.81640625 5.408203125  10.8671875 5.28125  10.8671875 5.12890625  C 10.8671875 4.970920138888888  10.81640625 4.841145833333334  10.71484375 4.739583333333334  L 9.944661458333334 3.977864583333334  C 9.837456597222223 3.870659722222221  9.710503472222223 3.817057291666666  9.563802083333334 3.817057291666666  C 9.417100694444445 3.817057291666666  9.290147569444445 3.870659722222221  9.182942708333334 3.977864583333334  L 5.729817708333333 7.422526041666668  L 3.817057291666667 5.509765625  C 3.709852430555556 5.402560763888888  3.582899305555556 5.348958333333334  3.436197916666667 5.348958333333334  C 3.289496527777778 5.348958333333334  3.1625434027777777 5.402560763888888  3.0553385416666665 5.509765625  L 2.28515625 6.271484375  C 2.18359375 6.373046875  2.1328125000000004 6.502821180555555  2.1328125 6.660807291666668  C 2.1328125000000004 6.813151041666668  2.18359375 6.940104166666668  2.28515625 7.041666666666668  L 5.348958333333333 10.10546875  C 5.456163194444445 10.21267361111111  5.583116319444445 10.266276041666666  5.729817708333333 10.266276041666666  C 5.882161458333333 10.266276041666666  6.011935763888889 10.21267361111111  6.119140625 10.10546875  L 10.71484375 5.509765625  Z M 12.128255208333334 3.2373046875  C 12.709418402777777 4.23318142361111  13 5.320746527777776  13 6.5  C 13 7.679253472222222  12.709418402777777 8.766818576388888  12.128255208333334 9.7626953125  C 11.54709201388889 10.75857204861111  10.75857204861111 11.54709201388889  9.7626953125 12.128255208333334  C 8.76681857638889 12.709418402777779  7.679253472222222 13  6.5 13  C 5.320746527777779 13  4.233181423611112 12.709418402777779  3.2373046875 12.128255208333334  C 2.2414279513888893 11.54709201388889  1.4529079861111112 10.75857204861111  0.8717447916666667 9.7626953125  C 0.2905815972222222 8.766818576388888  0 7.679253472222222  0 6.5  C 0 5.320746527777776  0.2905815972222222 4.23318142361111  0.8717447916666667 3.2373046875  C 1.4529079861111112 2.241427951388889  2.2414279513888893 1.4529079861111098  3.2373046875 0.8717447916666662  C 4.233181423611112 0.2905815972222211  5.320746527777779 0  6.5 0  C 7.679253472222222 0  8.76681857638889 0.2905815972222211  9.7626953125 0.8717447916666662  C 10.75857204861111 1.4529079861111098  11.54709201388889 2.241427951388889  12.128255208333334 3.2373046875  Z " fill-rule="nonzero" fill="#aaaaaa" stroke="none" transform="matrix(1 0 0 1 1012 1157 )" />
  </g>
</svg>