<?xml version="1.0" encoding="utf-8"?>
<svg version="1.1" xmlns:xlink="http://www.w3.org/1999/xlink" width="13px" height="13px" viewBox="378 1948  13 13" xmlns="http://www.w3.org/2000/svg">
  <path d="M 384.5 1948  C 388.14 1948  391 1950.86  391 1954.5  C 391 1958.14  388.14 1961  384.5 1961  C 380.86 1961  378 1958.14  378 1954.5  C 378 1950.86  380.86 1948  384.5 1948  Z " fill-rule="nonzero" fill="#f0f0f0" stroke="none" />
  <path d="M 384.5 1948.5  C 387.86 1948.5  390.5 1951.14  390.5 1954.5  C 390.5 1957.86  387.86 1960.5  384.5 1960.5  C 381.14 1960.5  378.5 1957.86  378.5 1954.5  C 378.5 1951.14  381.14 1948.5  384.5 1948.5  Z " stroke-width="1" stroke="#797979" fill="none" />
  <path d="M 384.5 1957.75  C 382.68 1957.75  381.25 1956.32  381.25 1954.5  C 381.25 1952.68  382.68 1951.25  384.5 1951.25  C 386.32 1951.25  387.75 1952.68  387.75 1954.5  C 387.75 1956.32  386.32 1957.75  384.5 1957.75  " fill-rule="nonzero" fill="#797979" stroke="none" />
</svg>