<?xml version="1.0" encoding="utf-8"?>
<svg version="1.1" xmlns:xlink="http://www.w3.org/1999/xlink" width="13px" height="13px" viewBox="1501 2684  13 13" xmlns="http://www.w3.org/2000/svg">
  <path d="M 1507.5 2684  C 1511.14 2684  1514 2686.86  1514 2690.5  C 1514 2694.14  1511.14 2697  1507.5 2697  C 1503.86 2697  1501 2694.14  1501 2690.5  C 1501 2686.86  1503.86 2684  1507.5 2684  Z " fill-rule="nonzero" fill="#ffffff" stroke="none" />
  <path d="M 1507.5 2684.5  C 1510.86 2684.5  1513.5 2687.14  1513.5 2690.5  C 1513.5 2693.86  1510.86 2696.5  1507.5 2696.5  C 1504.14 2696.5  1501.5 2693.86  1501.5 2690.5  C 1501.5 2687.14  1504.14 2684.5  1507.5 2684.5  Z " stroke-width="1" stroke="#797979" fill="none" />
  <path d="M 1507.5 2693.75  C 1505.68 2693.75  1504.25 2692.32  1504.25 2690.5  C 1504.25 2688.68  1505.68 2687.25  1507.5 2687.25  C 1509.32 2687.25  1510.75 2688.68  1510.75 2690.5  C 1510.75 2692.32  1509.32 2693.75  1507.5 2693.75  " fill-rule="nonzero" fill="#797979" stroke="none" />
</svg>