<?xml version="1.0" encoding="utf-8"?>
<svg version="1.1" xmlns:xlink="http://www.w3.org/1999/xlink" width="13px" height="13px" viewBox="270 1926  13 13" xmlns="http://www.w3.org/2000/svg">
  <path d="M 276.5 1926  C 280.14 1926  283 1928.86  283 1932.5  C 283 1936.14  280.14 1939  276.5 1939  C 272.86 1939  270 1936.14  270 1932.5  C 270 1928.86  272.86 1926  276.5 1926  Z " fill-rule="nonzero" fill="#ffffff" stroke="none" />
  <path d="M 276.5 1926.5  C 279.86 1926.5  282.5 1929.14  282.5 1932.5  C 282.5 1935.86  279.86 1938.5  276.5 1938.5  C 273.14 1938.5  270.5 1935.86  270.5 1932.5  C 270.5 1929.14  273.14 1926.5  276.5 1926.5  Z " stroke-width="1" stroke="#797979" fill="none" />
  <path d="M 276.5 1935.75  C 274.68 1935.75  273.25 1934.32  273.25 1932.5  C 273.25 1930.68  274.68 1929.25  276.5 1929.25  C 278.32 1929.25  279.75 1930.68  279.75 1932.5  C 279.75 1934.32  278.32 1935.75  276.5 1935.75  " fill-rule="nonzero" fill="#797979" stroke="none" />
</svg>