<?xml version="1.0" encoding="utf-8"?>
<svg version="1.1" xmlns:xlink="http://www.w3.org/1999/xlink" width="13px" height="13px" viewBox="1442 2684  13 13" xmlns="http://www.w3.org/2000/svg">
  <path d="M 1448.5 2684  C 1452.14 2684  1455 2686.86  1455 2690.5  C 1455 2694.14  1452.14 2697  1448.5 2697  C 1444.86 2697  1442 2694.14  1442 2690.5  C 1442 2686.86  1444.86 2684  1448.5 2684  Z " fill-rule="nonzero" fill="#ffffff" stroke="none" />
  <path d="M 1448.5 2684.5  C 1451.86 2684.5  1454.5 2687.14  1454.5 2690.5  C 1454.5 2693.86  1451.86 2696.5  1448.5 2696.5  C 1445.14 2696.5  1442.5 2693.86  1442.5 2690.5  C 1442.5 2687.14  1445.14 2684.5  1448.5 2684.5  Z " stroke-width="1" stroke="#797979" fill="none" />
  <path d="M 1448.5 2693.75  C 1446.68 2693.75  1445.25 2692.32  1445.25 2690.5  C 1445.25 2688.68  1446.68 2687.25  1448.5 2687.25  C 1450.32 2687.25  1451.75 2688.68  1451.75 2690.5  C 1451.75 2692.32  1450.32 2693.75  1448.5 2693.75  " fill-rule="nonzero" fill="#797979" stroke="none" />
</svg>