<?xml version="1.0" encoding="utf-8"?>
<svg version="1.1" xmlns:xlink="http://www.w3.org/1999/xlink" width="13px" height="13px" viewBox="372 2711  13 13" xmlns="http://www.w3.org/2000/svg">
  <path d="M 378.5 2711  C 382.14 2711  385 2713.86  385 2717.5  C 385 2721.14  382.14 2724  378.5 2724  C 374.86 2724  372 2721.14  372 2717.5  C 372 2713.86  374.86 2711  378.5 2711  Z " fill-rule="nonzero" fill="#ffffff" stroke="none" />
  <path d="M 378.5 2711.5  C 381.86 2711.5  384.5 2714.14  384.5 2717.5  C 384.5 2720.86  381.86 2723.5  378.5 2723.5  C 375.14 2723.5  372.5 2720.86  372.5 2717.5  C 372.5 2714.14  375.14 2711.5  378.5 2711.5  Z " stroke-width="1" stroke="#797979" fill="none" />
  <path d="M 378.5 2720.75  C 376.68 2720.75  375.25 2719.32  375.25 2717.5  C 375.25 2715.68  376.68 2714.25  378.5 2714.25  C 380.32 2714.25  381.75 2715.68  381.75 2717.5  C 381.75 2719.32  380.32 2720.75  378.5 2720.75  " fill-rule="nonzero" fill="#797979" stroke="none" />
</svg>