<?xml version="1.0" encoding="utf-8"?>
<svg version="1.1" xmlns:xlink="http://www.w3.org/1999/xlink" width="13px" height="13px" xmlns="http://www.w3.org/2000/svg">
  <g transform="matrix(1 0 0 1 -983 -3510 )">
    <path d="M 12.392351274787536 0  C 12.65014164305949 0  12.831208687440983 0.12002840909090962  12.935552407932011 0.3600852272727274  C 13.039896128423042 0.6124526515151502  12.996931067044383 0.8278882575757566  12.806657223796034 1.0063920454545452  L 8.26770538243626 5.558238636363637  L 8.26770538243626 12.40909090909091  C 8.26770538243626 12.667613636363637  8.148016997167138 12.849195075757576  7.908640226628896 12.953835227272727  C 7.828847969782815 12.984611742424242  7.752124645892351 13  7.6784702549575075 13  C 7.5127478753541075 13  7.374645892351276 12.941524621212123  7.264164305949008 12.824573863636363  L 4.907223796033994 10.4609375  C 4.790604343720491 10.343986742424242  4.732294617563739 10.205492424242422  4.732294617563739 10.045454545454545  L 4.732294617563739 5.558238636363637  L 0.193342776203966 1.0063920454545452  C 0.0030689329556185052 0.8278882575757566  -0.039896128423040605 0.6124526515151502  0.06444759206798867 0.3600852272727274  C 0.16879131255901797 0.12002840909090962  0.34985835694050993 0  0.6076487252124646 0  L 12.392351274787536 0  Z " fill-rule="nonzero" fill="#aaaaaa" stroke="none" transform="matrix(1 0 0 1 983 3510 )" />
  </g>
</svg>