<?xml version="1.0" encoding="utf-8"?>
<svg version="1.1" xmlns:xlink="http://www.w3.org/1999/xlink" width="13px" height="13px" viewBox="340 1895  13 13" xmlns="http://www.w3.org/2000/svg">
  <path d="M 346.5 1895  C 350.14 1895  353 1897.86  353 1901.5  C 353 1905.14  350.14 1908  346.5 1908  C 342.86 1908  340 1905.14  340 1901.5  C 340 1897.86  342.86 1895  346.5 1895  Z " fill-rule="nonzero" fill="#f0f0f0" stroke="none" />
  <path d="M 346.5 1895.5  C 349.86 1895.5  352.5 1898.14  352.5 1901.5  C 352.5 1904.86  349.86 1907.5  346.5 1907.5  C 343.14 1907.5  340.5 1904.86  340.5 1901.5  C 340.5 1898.14  343.14 1895.5  346.5 1895.5  Z " stroke-width="1" stroke="#797979" fill="none" />
  <path d="M 346.5 1904.75  C 344.68 1904.75  343.25 1903.32  343.25 1901.5  C 343.25 1899.68  344.68 1898.25  346.5 1898.25  C 348.32 1898.25  349.75 1899.68  349.75 1901.5  C 349.75 1903.32  348.32 1904.75  346.5 1904.75  " fill-rule="nonzero" fill="#797979" stroke="none" />
</svg>