<?xml version="1.0" encoding="utf-8"?>
<svg version="1.1" xmlns:xlink="http://www.w3.org/1999/xlink" width="13px" height="13px" viewBox="273 1895  13 13" xmlns="http://www.w3.org/2000/svg">
  <path d="M 279.5 1895  C 283.14 1895  286 1897.86  286 1901.5  C 286 1905.14  283.14 1908  279.5 1908  C 275.86 1908  273 1905.14  273 1901.5  C 273 1897.86  275.86 1895  279.5 1895  Z " fill-rule="nonzero" fill="#ffffff" stroke="none" />
  <path d="M 279.5 1895.5  C 282.86 1895.5  285.5 1898.14  285.5 1901.5  C 285.5 1904.86  282.86 1907.5  279.5 1907.5  C 276.14 1907.5  273.5 1904.86  273.5 1901.5  C 273.5 1898.14  276.14 1895.5  279.5 1895.5  Z " stroke-width="1" stroke="#797979" fill="none" />
  <path d="M 279.5 1904.75  C 277.68 1904.75  276.25 1903.32  276.25 1901.5  C 276.25 1899.68  277.68 1898.25  279.5 1898.25  C 281.32 1898.25  282.75 1899.68  282.75 1901.5  C 282.75 1903.32  281.32 1904.75  279.5 1904.75  " fill-rule="nonzero" fill="#797979" stroke="none" />
</svg>