<?xml version="1.0" encoding="utf-8"?>
<svg version="1.1" xmlns:xlink="http://www.w3.org/1999/xlink" width="13px" height="13px" viewBox="378 2748  13 13" xmlns="http://www.w3.org/2000/svg">
  <path d="M 384.5 2748  C 388.14 2748  391 2750.86  391 2754.5  C 391 2758.14  388.14 2761  384.5 2761  C 380.86 2761  378 2758.14  378 2754.5  C 378 2750.86  380.86 2748  384.5 2748  Z " fill-rule="nonzero" fill="#ffffff" stroke="none" />
  <path d="M 384.5 2748.5  C 387.86 2748.5  390.5 2751.14  390.5 2754.5  C 390.5 2757.86  387.86 2760.5  384.5 2760.5  C 381.14 2760.5  378.5 2757.86  378.5 2754.5  C 378.5 2751.14  381.14 2748.5  384.5 2748.5  Z " stroke-width="1" stroke="#797979" fill="none" />
  <path d="M 384.5 2757.75  C 382.68 2757.75  381.25 2756.32  381.25 2754.5  C 381.25 2752.68  382.68 2751.25  384.5 2751.25  C 386.32 2751.25  387.75 2752.68  387.75 2754.5  C 387.75 2756.32  386.32 2757.75  384.5 2757.75  " fill-rule="nonzero" fill="#797979" stroke="none" />
</svg>