<?xml version="1.0" encoding="utf-8"?>
<svg version="1.1" xmlns:xlink="http://www.w3.org/1999/xlink" width="13px" height="13px" viewBox="273 2695  13 13" xmlns="http://www.w3.org/2000/svg">
  <path d="M 279.5 2695  C 283.14 2695  286 2697.86  286 2701.5  C 286 2705.14  283.14 2708  279.5 2708  C 275.86 2708  273 2705.14  273 2701.5  C 273 2697.86  275.86 2695  279.5 2695  Z " fill-rule="nonzero" fill="#f0f0f0" stroke="none" />
  <path d="M 279.5 2695.5  C 282.86 2695.5  285.5 2698.14  285.5 2701.5  C 285.5 2704.86  282.86 2707.5  279.5 2707.5  C 276.14 2707.5  273.5 2704.86  273.5 2701.5  C 273.5 2698.14  276.14 2695.5  279.5 2695.5  Z " stroke-width="1" stroke="#797979" fill="none" />
  <path d="M 279.5 2704.75  C 277.68 2704.75  276.25 2703.32  276.25 2701.5  C 276.25 2699.68  277.68 2698.25  279.5 2698.25  C 281.32 2698.25  282.75 2699.68  282.75 2701.5  C 282.75 2703.32  281.32 2704.75  279.5 2704.75  " fill-rule="nonzero" fill="#797979" stroke="none" />
</svg>