<?xml version="1.0" encoding="utf-8"?>
<svg version="1.1" xmlns:xlink="http://www.w3.org/1999/xlink" width="13px" height="13px" viewBox="273 2748  13 13" xmlns="http://www.w3.org/2000/svg">
  <path d="M 279.5 2748  C 283.14 2748  286 2750.86  286 2754.5  C 286 2758.14  283.14 2761  279.5 2761  C 275.86 2761  273 2758.14  273 2754.5  C 273 2750.86  275.86 2748  279.5 2748  Z " fill-rule="nonzero" fill="#f0f0f0" stroke="none" />
  <path d="M 279.5 2748.5  C 282.86 2748.5  285.5 2751.14  285.5 2754.5  C 285.5 2757.86  282.86 2760.5  279.5 2760.5  C 276.14 2760.5  273.5 2757.86  273.5 2754.5  C 273.5 2751.14  276.14 2748.5  279.5 2748.5  Z " stroke-width="1" stroke="#797979" fill="none" />
  <path d="M 279.5 2757.75  C 277.68 2757.75  276.25 2756.32  276.25 2754.5  C 276.25 2752.68  277.68 2751.25  279.5 2751.25  C 281.32 2751.25  282.75 2752.68  282.75 2754.5  C 282.75 2756.32  281.32 2757.75  279.5 2757.75  " fill-rule="nonzero" fill="#797979" stroke="none" />
</svg>