<?xml version="1.0" encoding="utf-8"?>
<svg version="1.1" xmlns:xlink="http://www.w3.org/1999/xlink" width="13px" height="13px" viewBox="2624 715  13 13" xmlns="http://www.w3.org/2000/svg">
  <path d="M 2630.5 715  C 2634.14 715  2637 717.86  2637 721.5  C 2637 725.14  2634.14 728  2630.5 728  C 2626.86 728  2624 725.14  2624 721.5  C 2624 717.86  2626.86 715  2630.5 715  Z " fill-rule="nonzero" fill="#f0f0f0" stroke="none" />
  <path d="M 2630.5 715.5  C 2633.86 715.5  2636.5 718.14  2636.5 721.5  C 2636.5 724.86  2633.86 727.5  2630.5 727.5  C 2627.14 727.5  2624.5 724.86  2624.5 721.5  C 2624.5 718.14  2627.14 715.5  2630.5 715.5  Z " stroke-width="1" stroke="#797979" fill="none" />
  <path d="M 2630.5 724.75  C 2628.68 724.75  2627.25 723.32  2627.25 721.5  C 2627.25 719.68  2628.68 718.25  2630.5 718.25  C 2632.32 718.25  2633.75 719.68  2633.75 721.5  C 2633.75 723.32  2632.32 724.75  2630.5 724.75  " fill-rule="nonzero" fill="#797979" stroke="none" />
</svg>