<?xml version="1.0" encoding="utf-8"?>
<svg version="1.1" xmlns:xlink="http://www.w3.org/1999/xlink" width="13px" height="13px" viewBox="2585 134  13 13" xmlns="http://www.w3.org/2000/svg">
  <path d="M 2591.5 134  C 2595.14 134  2598 136.86  2598 140.5  C 2598 144.14  2595.14 147  2591.5 147  C 2587.86 147  2585 144.14  2585 140.5  C 2585 136.86  2587.86 134  2591.5 134  Z " fill-rule="nonzero" fill="#ffffff" stroke="none" />
  <path d="M 2591.5 134.5  C 2594.86 134.5  2597.5 137.14  2597.5 140.5  C 2597.5 143.86  2594.86 146.5  2591.5 146.5  C 2588.14 146.5  2585.5 143.86  2585.5 140.5  C 2585.5 137.14  2588.14 134.5  2591.5 134.5  Z " stroke-width="1" stroke="#797979" fill="none" />
  <path d="M 2591.5 143.75  C 2589.68 143.75  2588.25 142.32  2588.25 140.5  C 2588.25 138.68  2589.68 137.25  2591.5 137.25  C 2593.32 137.25  2594.75 138.68  2594.75 140.5  C 2594.75 142.32  2593.32 143.75  2591.5 143.75  " fill-rule="nonzero" fill="#797979" stroke="none" />
</svg>