<?xml version="1.0" encoding="utf-8"?>
<svg version="1.1" xmlns:xlink="http://www.w3.org/1999/xlink" width="24px" height="32px" xmlns="http://www.w3.org/2000/svg">
  <g transform="matrix(1 0 0 1 -2566 -511 )">
    <path d="M 2578 542.0369284683536  C 2573.4 534.4073405959099  2566.5 529.8295878724437  2566.5 522.2  C 2566.5 518.2257142857143  2568.8 511.5  2578 511.5  C 2587.2 511.5  2589.5 518.2257142857143  2589.5 522.2  C 2589.5 529.8295878724437  2582.6 534.4073405959099  2578 542.0369284683536  Z " fill-rule="nonzero" fill="#00c2ff" stroke="none" />
    <path d="M 2578 543  C 2573.2 535  2566 530.2  2566 522.2  C 2566 518.04  2568.4 511  2578 511  C 2587.6 511  2590 518.04  2590 522.2  C 2590 530.2  2582.8 535  2578 543  Z M 2578 541.0738569367072  C 2582.4 533.8146811918198  2589 529.4591757448874  2589 522.2  C 2589 518.4114285714286  2586.8 512  2578 512  C 2569.2 512  2567 518.4114285714286  2567 522.2  C 2567 529.4591757448874  2573.6 533.8146811918198  2578 541.0738569367072  Z " fill-rule="nonzero" fill="#ffffff" stroke="none" />
  </g>
</svg>