<?xml version="1.0" encoding="utf-8"?>
<svg version="1.1" xmlns:xlink="http://www.w3.org/1999/xlink" width="13px" height="13px" viewBox="3316 98  13 13" xmlns="http://www.w3.org/2000/svg">
  <path d="M 3322.5 98  C 3326.14 98  3329 100.86  3329 104.5  C 3329 108.14  3326.14 111  3322.5 111  C 3318.86 111  3316 108.14  3316 104.5  C 3316 100.86  3318.86 98  3322.5 98  Z " fill-rule="nonzero" fill="#f0f0f0" stroke="none" />
  <path d="M 3322.5 98.5  C 3325.86 98.5  3328.5 101.14  3328.5 104.5  C 3328.5 107.86  3325.86 110.5  3322.5 110.5  C 3319.14 110.5  3316.5 107.86  3316.5 104.5  C 3316.5 101.14  3319.14 98.5  3322.5 98.5  Z " stroke-width="1" stroke="#797979" fill="none" />
  <path d="M 3322.5 107.75  C 3320.68 107.75  3319.25 106.32  3319.25 104.5  C 3319.25 102.68  3320.68 101.25  3322.5 101.25  C 3324.32 101.25  3325.75 102.68  3325.75 104.5  C 3325.75 106.32  3324.32 107.75  3322.5 107.75  " fill-rule="nonzero" fill="#797979" stroke="none" />
</svg>