<?xml version="1.0" encoding="utf-8"?>
<svg version="1.1" xmlns:xlink="http://www.w3.org/1999/xlink" width="63px" height="30px" xmlns="http://www.w3.org/2000/svg">
  <g transform="matrix(1 0 0 1 -158 -218 )">
    <path d="M 159 222  A 3 3 0 0 1 162 219 L 217 219  A 3 3 0 0 1 220 222 L 220 244  A 3 3 0 0 1 217 247 L 162 247  A 3 3 0 0 1 159 244 L 159 222  Z " fill-rule="nonzero" fill="#e4e4e4" stroke="none" />
    <path d="M 158.5 222  A 3.5 3.5 0 0 1 162 218.5 L 217 218.5  A 3.5 3.5 0 0 1 220.5 222 L 220.5 244  A 3.5 3.5 0 0 1 217 247.5 L 162 247.5  A 3.5 3.5 0 0 1 158.5 244 L 158.5 222  Z " stroke-width="1" stroke="#555555" fill="none" stroke-opacity="0.9921568627450981" />
  </g>
</svg>