<?xml version="1.0" encoding="utf-8"?>
<svg version="1.1" xmlns:xlink="http://www.w3.org/1999/xlink" width="13px" height="13px" viewBox="3378 646  13 13" xmlns="http://www.w3.org/2000/svg">
  <path d="M 3384.5 646  C 3388.14 646  3391 648.86  3391 652.5  C 3391 656.14  3388.14 659  3384.5 659  C 3380.86 659  3378 656.14  3378 652.5  C 3378 648.86  3380.86 646  3384.5 646  Z " fill-rule="nonzero" fill="#f0f0f0" stroke="none" />
  <path d="M 3384.5 646.5  C 3387.86 646.5  3390.5 649.14  3390.5 652.5  C 3390.5 655.86  3387.86 658.5  3384.5 658.5  C 3381.14 658.5  3378.5 655.86  3378.5 652.5  C 3378.5 649.14  3381.14 646.5  3384.5 646.5  Z " stroke-width="1" stroke="#797979" fill="none" />
  <path d="M 3384.5 655.75  C 3382.68 655.75  3381.25 654.32  3381.25 652.5  C 3381.25 650.68  3382.68 649.25  3384.5 649.25  C 3386.32 649.25  3387.75 650.68  3387.75 652.5  C 3387.75 654.32  3386.32 655.75  3384.5 655.75  " fill-rule="nonzero" fill="#797979" stroke="none" />
</svg>