<?xml version="1.0" encoding="utf-8"?>
<svg version="1.1" xmlns:xlink="http://www.w3.org/1999/xlink" width="13px" height="13px" viewBox="205 892  13 13" xmlns="http://www.w3.org/2000/svg">
  <path d="M 211.5 892  C 215.14 892  218 894.86  218 898.5  C 218 902.14  215.14 905  211.5 905  C 207.86 905  205 902.14  205 898.5  C 205 894.86  207.86 892  211.5 892  Z " fill-rule="nonzero" fill="#f0f0f0" stroke="none" />
  <path d="M 211.5 892.5  C 214.86 892.5  217.5 895.14  217.5 898.5  C 217.5 901.86  214.86 904.5  211.5 904.5  C 208.14 904.5  205.5 901.86  205.5 898.5  C 205.5 895.14  208.14 892.5  211.5 892.5  Z " stroke-width="1" stroke="#797979" fill="none" />
  <path d="M 211.5 901.75  C 209.68 901.75  208.25 900.32  208.25 898.5  C 208.25 896.68  209.68 895.25  211.5 895.25  C 213.32 895.25  214.75 896.68  214.75 898.5  C 214.75 900.32  213.32 901.75  211.5 901.75  " fill-rule="nonzero" fill="#797979" stroke="none" />
</svg>