<?xml version="1.0" encoding="utf-8"?>
<svg version="1.1" xmlns:xlink="http://www.w3.org/1999/xlink" width="13px" height="13px" viewBox="740 912  13 13" xmlns="http://www.w3.org/2000/svg">
  <path d="M 746.5 912  C 750.14 912  753 914.86  753 918.5  C 753 922.14  750.14 925  746.5 925  C 742.86 925  740 922.14  740 918.5  C 740 914.86  742.86 912  746.5 912  Z " fill-rule="nonzero" fill="#f0f0f0" stroke="none" />
  <path d="M 746.5 912.5  C 749.86 912.5  752.5 915.14  752.5 918.5  C 752.5 921.86  749.86 924.5  746.5 924.5  C 743.14 924.5  740.5 921.86  740.5 918.5  C 740.5 915.14  743.14 912.5  746.5 912.5  Z " stroke-width="1" stroke="#797979" fill="none" />
  <path d="M 746.5 921.75  C 744.68 921.75  743.25 920.32  743.25 918.5  C 743.25 916.68  744.68 915.25  746.5 915.25  C 748.32 915.25  749.75 916.68  749.75 918.5  C 749.75 920.32  748.32 921.75  746.5 921.75  " fill-rule="nonzero" fill="#797979" stroke="none" />
</svg>