<?xml version="1.0" encoding="utf-8"?>
<svg version="1.1" xmlns:xlink="http://www.w3.org/1999/xlink" width="13px" height="13px" viewBox="1159 882  13 13" xmlns="http://www.w3.org/2000/svg">
  <path d="M 1165.5 882  C 1169.14 882  1172 884.86  1172 888.5  C 1172 892.14  1169.14 895  1165.5 895  C 1161.86 895  1159 892.14  1159 888.5  C 1159 884.86  1161.86 882  1165.5 882  Z " fill-rule="nonzero" fill="#ffffff" stroke="none" />
  <path d="M 1165.5 882.5  C 1168.86 882.5  1171.5 885.14  1171.5 888.5  C 1171.5 891.86  1168.86 894.5  1165.5 894.5  C 1162.14 894.5  1159.5 891.86  1159.5 888.5  C 1159.5 885.14  1162.14 882.5  1165.5 882.5  Z " stroke-width="1" stroke="#797979" fill="none" />
  <path d="M 1165.5 891.75  C 1163.68 891.75  1162.25 890.32  1162.25 888.5  C 1162.25 886.68  1163.68 885.25  1165.5 885.25  C 1167.32 885.25  1168.75 886.68  1168.75 888.5  C 1168.75 890.32  1167.32 891.75  1165.5 891.75  " fill-rule="nonzero" fill="#797979" stroke="none" />
</svg>