<?xml version="1.0" encoding="utf-8"?>
<svg version="1.1" xmlns:xlink="http://www.w3.org/1999/xlink" width="13px" height="13px" viewBox="1608 905  13 13" xmlns="http://www.w3.org/2000/svg">
  <path d="M 1614.5 905  C 1618.14 905  1621 907.86  1621 911.5  C 1621 915.14  1618.14 918  1614.5 918  C 1610.86 918  1608 915.14  1608 911.5  C 1608 907.86  1610.86 905  1614.5 905  Z " fill-rule="nonzero" fill="#ffffff" stroke="none" />
  <path d="M 1614.5 905.5  C 1617.86 905.5  1620.5 908.14  1620.5 911.5  C 1620.5 914.86  1617.86 917.5  1614.5 917.5  C 1611.14 917.5  1608.5 914.86  1608.5 911.5  C 1608.5 908.14  1611.14 905.5  1614.5 905.5  Z " stroke-width="1" stroke="#797979" fill="none" />
  <path d="M 1614.5 914.75  C 1612.68 914.75  1611.25 913.32  1611.25 911.5  C 1611.25 909.68  1612.68 908.25  1614.5 908.25  C 1616.32 908.25  1617.75 909.68  1617.75 911.5  C 1617.75 913.32  1616.32 914.75  1614.5 914.75  " fill-rule="nonzero" fill="#797979" stroke="none" />
</svg>