<?xml version="1.0" encoding="utf-8"?>
<svg version="1.1" xmlns:xlink="http://www.w3.org/1999/xlink" width="13px" height="13px" viewBox="2603 136  13 13" xmlns="http://www.w3.org/2000/svg">
  <path d="M 2609.5 136  C 2613.14 136  2616 138.86  2616 142.5  C 2616 146.14  2613.14 149  2609.5 149  C 2605.86 149  2603 146.14  2603 142.5  C 2603 138.86  2605.86 136  2609.5 136  Z " fill-rule="nonzero" fill="#ffffff" stroke="none" />
  <path d="M 2609.5 136.5  C 2612.86 136.5  2615.5 139.14  2615.5 142.5  C 2615.5 145.86  2612.86 148.5  2609.5 148.5  C 2606.14 148.5  2603.5 145.86  2603.5 142.5  C 2603.5 139.14  2606.14 136.5  2609.5 136.5  Z " stroke-width="1" stroke="#797979" fill="none" />
  <path d="M 2609.5 145.75  C 2607.68 145.75  2606.25 144.32  2606.25 142.5  C 2606.25 140.68  2607.68 139.25  2609.5 139.25  C 2611.32 139.25  2612.75 140.68  2612.75 142.5  C 2612.75 144.32  2611.32 145.75  2609.5 145.75  " fill-rule="nonzero" fill="#797979" stroke="none" />
</svg>