<?xml version="1.0" encoding="utf-8"?>
<svg version="1.1" xmlns:xlink="http://www.w3.org/1999/xlink" width="13px" height="13px" viewBox="2603 335  13 13" xmlns="http://www.w3.org/2000/svg">
  <path d="M 2609.5 335  C 2613.14 335  2616 337.86  2616 341.5  C 2616 345.14  2613.14 348  2609.5 348  C 2605.86 348  2603 345.14  2603 341.5  C 2603 337.86  2605.86 335  2609.5 335  Z " fill-rule="nonzero" fill="#ffffff" stroke="none" />
  <path d="M 2609.5 335.5  C 2612.86 335.5  2615.5 338.14  2615.5 341.5  C 2615.5 344.86  2612.86 347.5  2609.5 347.5  C 2606.14 347.5  2603.5 344.86  2603.5 341.5  C 2603.5 338.14  2606.14 335.5  2609.5 335.5  Z " stroke-width="1" stroke="#797979" fill="none" />
  <path d="M 2609.5 344.75  C 2607.68 344.75  2606.25 343.32  2606.25 341.5  C 2606.25 339.68  2607.68 338.25  2609.5 338.25  C 2611.32 338.25  2612.75 339.68  2612.75 341.5  C 2612.75 343.32  2611.32 344.75  2609.5 344.75  " fill-rule="nonzero" fill="#797979" stroke="none" />
</svg>