<?xml version="1.0" encoding="utf-8"?>
<svg version="1.1" xmlns:xlink="http://www.w3.org/1999/xlink" width="13px" height="13px" viewBox="2270 139  13 13" xmlns="http://www.w3.org/2000/svg">
  <path d="M 2276.5 139  C 2280.14 139  2283 141.86  2283 145.5  C 2283 149.14  2280.14 152  2276.5 152  C 2272.86 152  2270 149.14  2270 145.5  C 2270 141.86  2272.86 139  2276.5 139  Z " fill-rule="nonzero" fill="#f0f0f0" stroke="none" />
  <path d="M 2276.5 139.5  C 2279.86 139.5  2282.5 142.14  2282.5 145.5  C 2282.5 148.86  2279.86 151.5  2276.5 151.5  C 2273.14 151.5  2270.5 148.86  2270.5 145.5  C 2270.5 142.14  2273.14 139.5  2276.5 139.5  Z " stroke-width="1" stroke="#797979" fill="none" />
  <path d="M 2276.5 148.75  C 2274.68 148.75  2273.25 147.32  2273.25 145.5  C 2273.25 143.68  2274.68 142.25  2276.5 142.25  C 2278.32 142.25  2279.75 143.68  2279.75 145.5  C 2279.75 147.32  2278.32 148.75  2276.5 148.75  " fill-rule="nonzero" fill="#797979" stroke="none" />
</svg>