<?xml version="1.0" encoding="utf-8"?>
<svg version="1.1" xmlns:xlink="http://www.w3.org/1999/xlink" width="13px" height="13px" viewBox="1000 956  13 13" xmlns="http://www.w3.org/2000/svg">
  <path d="M 1006.5 956  C 1010.14 956  1013 958.86  1013 962.5  C 1013 966.14  1010.14 969  1006.5 969  C 1002.86 969  1000 966.14  1000 962.5  C 1000 958.86  1002.86 956  1006.5 956  Z " fill-rule="nonzero" fill="#ffffff" stroke="none" />
  <path d="M 1006.5 956.5  C 1009.86 956.5  1012.5 959.14  1012.5 962.5  C 1012.5 965.86  1009.86 968.5  1006.5 968.5  C 1003.14 968.5  1000.5 965.86  1000.5 962.5  C 1000.5 959.14  1003.14 956.5  1006.5 956.5  Z " stroke-width="1" stroke="#797979" fill="none" />
  <path d="M 1006.5 965.75  C 1004.68 965.75  1003.25 964.32  1003.25 962.5  C 1003.25 960.68  1004.68 959.25  1006.5 959.25  C 1008.32 959.25  1009.75 960.68  1009.75 962.5  C 1009.75 964.32  1008.32 965.75  1006.5 965.75  " fill-rule="nonzero" fill="#797979" stroke="none" />
</svg>