<?xml version="1.0" encoding="utf-8"?>
<svg version="1.1" xmlns:xlink="http://www.w3.org/1999/xlink" width="13px" height="13px" viewBox="1497 985  13 13" xmlns="http://www.w3.org/2000/svg">
  <path d="M 1503.5 985  C 1507.14 985  1510 987.86  1510 991.5  C 1510 995.14  1507.14 998  1503.5 998  C 1499.86 998  1497 995.14  1497 991.5  C 1497 987.86  1499.86 985  1503.5 985  Z " fill-rule="nonzero" fill="#f0f0f0" stroke="none" />
  <path d="M 1503.5 985.5  C 1506.86 985.5  1509.5 988.14  1509.5 991.5  C 1509.5 994.86  1506.86 997.5  1503.5 997.5  C 1500.14 997.5  1497.5 994.86  1497.5 991.5  C 1497.5 988.14  1500.14 985.5  1503.5 985.5  Z " stroke-width="1" stroke="#797979" fill="none" />
  <path d="M 1503.5 994.75  C 1501.68 994.75  1500.25 993.32  1500.25 991.5  C 1500.25 989.68  1501.68 988.25  1503.5 988.25  C 1505.32 988.25  1506.75 989.68  1506.75 991.5  C 1506.75 993.32  1505.32 994.75  1503.5 994.75  " fill-rule="nonzero" fill="#797979" stroke="none" />
</svg>