<?xml version="1.0" encoding="utf-8"?>
<svg version="1.1" xmlns:xlink="http://www.w3.org/1999/xlink" width="13px" height="13px" viewBox="2679 333  13 13" xmlns="http://www.w3.org/2000/svg">
  <path d="M 2685.5 333  C 2689.14 333  2692 335.86  2692 339.5  C 2692 343.14  2689.14 346  2685.5 346  C 2681.86 346  2679 343.14  2679 339.5  C 2679 335.86  2681.86 333  2685.5 333  Z " fill-rule="nonzero" fill="#ffffff" stroke="none" />
  <path d="M 2685.5 333.5  C 2688.86 333.5  2691.5 336.14  2691.5 339.5  C 2691.5 342.86  2688.86 345.5  2685.5 345.5  C 2682.14 345.5  2679.5 342.86  2679.5 339.5  C 2679.5 336.14  2682.14 333.5  2685.5 333.5  Z " stroke-width="1" stroke="#797979" fill="none" />
  <path d="M 2685.5 342.75  C 2683.68 342.75  2682.25 341.32  2682.25 339.5  C 2682.25 337.68  2683.68 336.25  2685.5 336.25  C 2687.32 336.25  2688.75 337.68  2688.75 339.5  C 2688.75 341.32  2687.32 342.75  2685.5 342.75  " fill-rule="nonzero" fill="#797979" stroke="none" />
</svg>