<?xml version="1.0" encoding="utf-8"?>
<svg version="1.1" xmlns:xlink="http://www.w3.org/1999/xlink" width="13px" height="13px" viewBox="2756 134  13 13" xmlns="http://www.w3.org/2000/svg">
  <path d="M 2762.5 134  C 2766.14 134  2769 136.86  2769 140.5  C 2769 144.14  2766.14 147  2762.5 147  C 2758.86 147  2756 144.14  2756 140.5  C 2756 136.86  2758.86 134  2762.5 134  Z " fill-rule="nonzero" fill="#f0f0f0" stroke="none" />
  <path d="M 2762.5 134.5  C 2765.86 134.5  2768.5 137.14  2768.5 140.5  C 2768.5 143.86  2765.86 146.5  2762.5 146.5  C 2759.14 146.5  2756.5 143.86  2756.5 140.5  C 2756.5 137.14  2759.14 134.5  2762.5 134.5  Z " stroke-width="1" stroke="#797979" fill="none" />
  <path d="M 2762.5 143.75  C 2760.68 143.75  2759.25 142.32  2759.25 140.5  C 2759.25 138.68  2760.68 137.25  2762.5 137.25  C 2764.32 137.25  2765.75 138.68  2765.75 140.5  C 2765.75 142.32  2764.32 143.75  2762.5 143.75  " fill-rule="nonzero" fill="#797979" stroke="none" />
</svg>