<?xml version="1.0" encoding="utf-8"?>
<svg version="1.1" xmlns:xlink="http://www.w3.org/1999/xlink" width="13px" height="13px" viewBox="2756 333  13 13" xmlns="http://www.w3.org/2000/svg">
  <path d="M 2762.5 333  C 2766.14 333  2769 335.86  2769 339.5  C 2769 343.14  2766.14 346  2762.5 346  C 2758.86 346  2756 343.14  2756 339.5  C 2756 335.86  2758.86 333  2762.5 333  Z " fill-rule="nonzero" fill="#f0f0f0" stroke="none" />
  <path d="M 2762.5 333.5  C 2765.86 333.5  2768.5 336.14  2768.5 339.5  C 2768.5 342.86  2765.86 345.5  2762.5 345.5  C 2759.14 345.5  2756.5 342.86  2756.5 339.5  C 2756.5 336.14  2759.14 333.5  2762.5 333.5  Z " stroke-width="1" stroke="#797979" fill="none" />
  <path d="M 2762.5 342.75  C 2760.68 342.75  2759.25 341.32  2759.25 339.5  C 2759.25 337.68  2760.68 336.25  2762.5 336.25  C 2764.32 336.25  2765.75 337.68  2765.75 339.5  C 2765.75 341.32  2764.32 342.75  2762.5 342.75  " fill-rule="nonzero" fill="#797979" stroke="none" />
</svg>