<?xml version="1.0" encoding="utf-8"?>
<svg version="1.1" xmlns:xlink="http://www.w3.org/1999/xlink" width="13px" height="13px" viewBox="2252 137  13 13" xmlns="http://www.w3.org/2000/svg">
  <path d="M 2258.5 137  C 2262.14 137  2265 139.86  2265 143.5  C 2265 147.14  2262.14 150  2258.5 150  C 2254.86 150  2252 147.14  2252 143.5  C 2252 139.86  2254.86 137  2258.5 137  Z " fill-rule="nonzero" fill="#f0f0f0" stroke="none" />
  <path d="M 2258.5 137.5  C 2261.86 137.5  2264.5 140.14  2264.5 143.5  C 2264.5 146.86  2261.86 149.5  2258.5 149.5  C 2255.14 149.5  2252.5 146.86  2252.5 143.5  C 2252.5 140.14  2255.14 137.5  2258.5 137.5  Z " stroke-width="1" stroke="#797979" fill="none" />
  <path d="M 2258.5 146.75  C 2256.68 146.75  2255.25 145.32  2255.25 143.5  C 2255.25 141.68  2256.68 140.25  2258.5 140.25  C 2260.32 140.25  2261.75 141.68  2261.75 143.5  C 2261.75 145.32  2260.32 146.75  2258.5 146.75  " fill-rule="nonzero" fill="#797979" stroke="none" />
</svg>