<?xml version="1.0" encoding="utf-8"?>
<svg version="1.1" xmlns:xlink="http://www.w3.org/1999/xlink" width="13px" height="13px" viewBox="2718 715  13 13" xmlns="http://www.w3.org/2000/svg">
  <path d="M 2724.5 715  C 2728.14 715  2731 717.86  2731 721.5  C 2731 725.14  2728.14 728  2724.5 728  C 2720.86 728  2718 725.14  2718 721.5  C 2718 717.86  2720.86 715  2724.5 715  Z " fill-rule="nonzero" fill="#f0f0f0" stroke="none" />
  <path d="M 2724.5 715.5  C 2727.86 715.5  2730.5 718.14  2730.5 721.5  C 2730.5 724.86  2727.86 727.5  2724.5 727.5  C 2721.14 727.5  2718.5 724.86  2718.5 721.5  C 2718.5 718.14  2721.14 715.5  2724.5 715.5  Z " stroke-width="1" stroke="#797979" fill="none" />
  <path d="M 2724.5 724.75  C 2722.68 724.75  2721.25 723.32  2721.25 721.5  C 2721.25 719.68  2722.68 718.25  2724.5 718.25  C 2726.32 718.25  2727.75 719.68  2727.75 721.5  C 2727.75 723.32  2726.32 724.75  2724.5 724.75  " fill-rule="nonzero" fill="#797979" stroke="none" />
</svg>