<?xml version="1.0" encoding="utf-8"?>
<svg version="1.1" xmlns:xlink="http://www.w3.org/1999/xlink" width="24px" height="32px" xmlns="http://www.w3.org/2000/svg">
  <g transform="matrix(1 0 0 1 -1958 -492 )">
    <path d="M 1970 523.0369284683536  C 1965.4 515.4073405959099  1958.5 510.8295878724437  1958.5 503.2  C 1958.5 499.2257142857143  1960.8 492.5  1970 492.5  C 1979.2 492.5  1981.5 499.2257142857143  1981.5 503.2  C 1981.5 510.8295878724437  1974.6 515.4073405959099  1970 523.0369284683536  Z " fill-rule="nonzero" fill="#00c2ff" stroke="none" />
    <path d="M 1970 524  C 1965.2 516  1958 511.2  1958 503.2  C 1958 499.04  1960.4 492  1970 492  C 1979.6 492  1982 499.04  1982 503.2  C 1982 511.2  1974.8 516  1970 524  Z M 1970 522.0738569367072  C 1974.4 514.8146811918198  1981 510.4591757448874  1981 503.2  C 1981 499.4114285714286  1978.8 493  1970 493  C 1961.2 493  1959 499.4114285714286  1959 503.2  C 1959 510.4591757448874  1965.6 514.8146811918198  1970 522.0738569367072  Z " fill-rule="nonzero" fill="#ffffff" stroke="none" />
  </g>
</svg>