<?xml version="1.0" encoding="utf-8"?>
<svg version="1.1" xmlns:xlink="http://www.w3.org/1999/xlink" width="13px" height="13px" viewBox="2457 118  13 13" xmlns="http://www.w3.org/2000/svg">
  <path d="M 2463.5 118  C 2467.14 118  2470 120.86  2470 124.5  C 2470 128.14  2467.14 131  2463.5 131  C 2459.86 131  2457 128.14  2457 124.5  C 2457 120.86  2459.86 118  2463.5 118  Z " fill-rule="nonzero" fill="#ffffff" stroke="none" />
  <path d="M 2463.5 118.5  C 2466.86 118.5  2469.5 121.14  2469.5 124.5  C 2469.5 127.86  2466.86 130.5  2463.5 130.5  C 2460.14 130.5  2457.5 127.86  2457.5 124.5  C 2457.5 121.14  2460.14 118.5  2463.5 118.5  Z " stroke-width="1" stroke="#797979" fill="none" />
  <path d="M 2463.5 127.75  C 2461.68 127.75  2460.25 126.32  2460.25 124.5  C 2460.25 122.68  2461.68 121.25  2463.5 121.25  C 2465.32 121.25  2466.75 122.68  2466.75 124.5  C 2466.75 126.32  2465.32 127.75  2463.5 127.75  " fill-rule="nonzero" fill="#797979" stroke="none" />
</svg>