<?xml version="1.0" encoding="utf-8"?>
<svg version="1.1" xmlns:xlink="http://www.w3.org/1999/xlink" width="88px" height="30px" xmlns="http://www.w3.org/2000/svg">
  <g transform="matrix(1 0 0 1 -305 -202 )">
    <path d="M 306 206  A 3 3 0 0 1 309 203 L 389 203  A 3 3 0 0 1 392 206 L 392 228  A 3 3 0 0 1 389 231 L 309 231  A 3 3 0 0 1 306 228 L 306 206  Z " fill-rule="nonzero" fill="#e4e4e4" stroke="none" />
    <path d="M 305.5 206  A 3.5 3.5 0 0 1 309 202.5 L 389 202.5  A 3.5 3.5 0 0 1 392.5 206 L 392.5 228  A 3.5 3.5 0 0 1 389 231.5 L 309 231.5  A 3.5 3.5 0 0 1 305.5 228 L 305.5 206  Z " stroke-width="1" stroke="#aaaaaa" fill="none" stroke-opacity="0.9921568627450981" />
  </g>
</svg>