<?xml version="1.0" encoding="utf-8"?>
<svg version="1.1" xmlns:xlink="http://www.w3.org/1999/xlink" width="13px" height="13px" viewBox="196 874  13 13" xmlns="http://www.w3.org/2000/svg">
  <path d="M 202.5 874  C 206.14 874  209 876.86  209 880.5  C 209 884.14  206.14 887  202.5 887  C 198.86 887  196 884.14  196 880.5  C 196 876.86  198.86 874  202.5 874  Z " fill-rule="nonzero" fill="#f0f0f0" stroke="none" />
  <path d="M 202.5 874.5  C 205.86 874.5  208.5 877.14  208.5 880.5  C 208.5 883.86  205.86 886.5  202.5 886.5  C 199.14 886.5  196.5 883.86  196.5 880.5  C 196.5 877.14  199.14 874.5  202.5 874.5  Z " stroke-width="1" stroke="#797979" fill="none" />
  <path d="M 202.5 883.75  C 200.68 883.75  199.25 882.32  199.25 880.5  C 199.25 878.68  200.68 877.25  202.5 877.25  C 204.32 877.25  205.75 878.68  205.75 880.5  C 205.75 882.32  204.32 883.75  202.5 883.75  " fill-rule="nonzero" fill="#797979" stroke="none" />
</svg>