<?xml version="1.0" encoding="utf-8"?>
<svg version="1.1" xmlns:xlink="http://www.w3.org/1999/xlink" width="13px" height="13px" viewBox="747 897  13 13" xmlns="http://www.w3.org/2000/svg">
  <path d="M 753.5 897  C 757.14 897  760 899.86  760 903.5  C 760 907.14  757.14 910  753.5 910  C 749.86 910  747 907.14  747 903.5  C 747 899.86  749.86 897  753.5 897  Z " fill-rule="nonzero" fill="#ffffff" stroke="none" />
  <path d="M 753.5 897.5  C 756.86 897.5  759.5 900.14  759.5 903.5  C 759.5 906.86  756.86 909.5  753.5 909.5  C 750.14 909.5  747.5 906.86  747.5 903.5  C 747.5 900.14  750.14 897.5  753.5 897.5  Z " stroke-width="1" stroke="#797979" fill="none" />
  <path d="M 753.5 906.75  C 751.68 906.75  750.25 905.32  750.25 903.5  C 750.25 901.68  751.68 900.25  753.5 900.25  C 755.32 900.25  756.75 901.68  756.75 903.5  C 756.75 905.32  755.32 906.75  753.5 906.75  " fill-rule="nonzero" fill="#797979" stroke="none" />
</svg>