<?xml version="1.0" encoding="utf-8"?>
<svg version="1.1" xmlns:xlink="http://www.w3.org/1999/xlink" width="13px" height="13px" viewBox="1519 898  13 13" xmlns="http://www.w3.org/2000/svg">
  <path d="M 1525.5 898  C 1529.14 898  1532 900.86  1532 904.5  C 1532 908.14  1529.14 911  1525.5 911  C 1521.86 911  1519 908.14  1519 904.5  C 1519 900.86  1521.86 898  1525.5 898  Z " fill-rule="nonzero" fill="#ffffff" stroke="none" />
  <path d="M 1525.5 898.5  C 1528.86 898.5  1531.5 901.14  1531.5 904.5  C 1531.5 907.86  1528.86 910.5  1525.5 910.5  C 1522.14 910.5  1519.5 907.86  1519.5 904.5  C 1519.5 901.14  1522.14 898.5  1525.5 898.5  Z " stroke-width="1" stroke="#797979" fill="none" />
  <path d="M 1525.5 907.75  C 1523.68 907.75  1522.25 906.32  1522.25 904.5  C 1522.25 902.68  1523.68 901.25  1525.5 901.25  C 1527.32 901.25  1528.75 902.68  1528.75 904.5  C 1528.75 906.32  1527.32 907.75  1525.5 907.75  " fill-rule="nonzero" fill="#797979" stroke="none" />
</svg>