<?xml version="1.0" encoding="utf-8"?>
<svg version="1.1" xmlns:xlink="http://www.w3.org/1999/xlink" width="13px" height="13px" viewBox="1061 874  13 13" xmlns="http://www.w3.org/2000/svg">
  <path d="M 1067.5 874  C 1071.14 874  1074 876.86  1074 880.5  C 1074 884.14  1071.14 887  1067.5 887  C 1063.86 887  1061 884.14  1061 880.5  C 1061 876.86  1063.86 874  1067.5 874  Z " fill-rule="nonzero" fill="#ffffff" stroke="none" />
  <path d="M 1067.5 874.5  C 1070.86 874.5  1073.5 877.14  1073.5 880.5  C 1073.5 883.86  1070.86 886.5  1067.5 886.5  C 1064.14 886.5  1061.5 883.86  1061.5 880.5  C 1061.5 877.14  1064.14 874.5  1067.5 874.5  Z " stroke-width="1" stroke="#797979" fill="none" />
  <path d="M 1067.5 883.75  C 1065.68 883.75  1064.25 882.32  1064.25 880.5  C 1064.25 878.68  1065.68 877.25  1067.5 877.25  C 1069.32 877.25  1070.75 878.68  1070.75 880.5  C 1070.75 882.32  1069.32 883.75  1067.5 883.75  " fill-rule="nonzero" fill="#797979" stroke="none" />
</svg>