<?xml version="1.0" encoding="utf-8"?>
<svg version="1.1" xmlns:xlink="http://www.w3.org/1999/xlink" width="13px" height="13px" viewBox="1163 874  13 13" xmlns="http://www.w3.org/2000/svg">
  <path d="M 1169.5 874  C 1173.14 874  1176 876.86  1176 880.5  C 1176 884.14  1173.14 887  1169.5 887  C 1165.86 887  1163 884.14  1163 880.5  C 1163 876.86  1165.86 874  1169.5 874  Z " fill-rule="nonzero" fill="#ffffff" stroke="none" />
  <path d="M 1169.5 874.5  C 1172.86 874.5  1175.5 877.14  1175.5 880.5  C 1175.5 883.86  1172.86 886.5  1169.5 886.5  C 1166.14 886.5  1163.5 883.86  1163.5 880.5  C 1163.5 877.14  1166.14 874.5  1169.5 874.5  Z " stroke-width="1" stroke="#797979" fill="none" />
  <path d="M 1169.5 883.75  C 1167.68 883.75  1166.25 882.32  1166.25 880.5  C 1166.25 878.68  1167.68 877.25  1169.5 877.25  C 1171.32 877.25  1172.75 878.68  1172.75 880.5  C 1172.75 882.32  1171.32 883.75  1169.5 883.75  " fill-rule="nonzero" fill="#797979" stroke="none" />
</svg>