<?xml version="1.0" encoding="utf-8"?>
<svg version="1.1" xmlns:xlink="http://www.w3.org/1999/xlink" width="13px" height="13px" viewBox="2697 136  13 13" xmlns="http://www.w3.org/2000/svg">
  <path d="M 2703.5 136  C 2707.14 136  2710 138.86  2710 142.5  C 2710 146.14  2707.14 149  2703.5 149  C 2699.86 149  2697 146.14  2697 142.5  C 2697 138.86  2699.86 136  2703.5 136  Z " fill-rule="nonzero" fill="#f0f0f0" stroke="none" />
  <path d="M 2703.5 136.5  C 2706.86 136.5  2709.5 139.14  2709.5 142.5  C 2709.5 145.86  2706.86 148.5  2703.5 148.5  C 2700.14 148.5  2697.5 145.86  2697.5 142.5  C 2697.5 139.14  2700.14 136.5  2703.5 136.5  Z " stroke-width="1" stroke="#797979" fill="none" />
  <path d="M 2703.5 145.75  C 2701.68 145.75  2700.25 144.32  2700.25 142.5  C 2700.25 140.68  2701.68 139.25  2703.5 139.25  C 2705.32 139.25  2706.75 140.68  2706.75 142.5  C 2706.75 144.32  2705.32 145.75  2703.5 145.75  " fill-rule="nonzero" fill="#797979" stroke="none" />
</svg>