<?xml version="1.0" encoding="utf-8"?>
<svg version="1.1" xmlns:xlink="http://www.w3.org/1999/xlink" width="13px" height="13px" viewBox="2774 136  13 13" xmlns="http://www.w3.org/2000/svg">
  <path d="M 2780.5 136  C 2784.14 136  2787 138.86  2787 142.5  C 2787 146.14  2784.14 149  2780.5 149  C 2776.86 149  2774 146.14  2774 142.5  C 2774 138.86  2776.86 136  2780.5 136  Z " fill-rule="nonzero" fill="#ffffff" stroke="none" />
  <path d="M 2780.5 136.5  C 2783.86 136.5  2786.5 139.14  2786.5 142.5  C 2786.5 145.86  2783.86 148.5  2780.5 148.5  C 2777.14 148.5  2774.5 145.86  2774.5 142.5  C 2774.5 139.14  2777.14 136.5  2780.5 136.5  Z " stroke-width="1" stroke="#797979" fill="none" />
  <path d="M 2780.5 145.75  C 2778.68 145.75  2777.25 144.32  2777.25 142.5  C 2777.25 140.68  2778.68 139.25  2780.5 139.25  C 2782.32 139.25  2783.75 140.68  2783.75 142.5  C 2783.75 144.32  2782.32 145.75  2780.5 145.75  " fill-rule="nonzero" fill="#797979" stroke="none" />
</svg>