<?xml version="1.0" encoding="utf-8"?>
<svg version="1.1" xmlns:xlink="http://www.w3.org/1999/xlink" width="13px" height="13px" viewBox="2774 335  13 13" xmlns="http://www.w3.org/2000/svg">
  <path d="M 2780.5 335  C 2784.14 335  2787 337.86  2787 341.5  C 2787 345.14  2784.14 348  2780.5 348  C 2776.86 348  2774 345.14  2774 341.5  C 2774 337.86  2776.86 335  2780.5 335  Z " fill-rule="nonzero" fill="#f0f0f0" stroke="none" />
  <path d="M 2780.5 335.5  C 2783.86 335.5  2786.5 338.14  2786.5 341.5  C 2786.5 344.86  2783.86 347.5  2780.5 347.5  C 2777.14 347.5  2774.5 344.86  2774.5 341.5  C 2774.5 338.14  2777.14 335.5  2780.5 335.5  Z " stroke-width="1" stroke="#797979" fill="none" />
  <path d="M 2780.5 344.75  C 2778.68 344.75  2777.25 343.32  2777.25 341.5  C 2777.25 339.68  2778.68 338.25  2780.5 338.25  C 2782.32 338.25  2783.75 339.68  2783.75 341.5  C 2783.75 343.32  2782.32 344.75  2780.5 344.75  " fill-rule="nonzero" fill="#797979" stroke="none" />
</svg>