<?xml version="1.0" encoding="utf-8"?>
<svg version="1.1" xmlns:xlink="http://www.w3.org/1999/xlink" width="13px" height="13px" viewBox="2176 139  13 13" xmlns="http://www.w3.org/2000/svg">
  <path d="M 2182.5 139  C 2186.14 139  2189 141.86  2189 145.5  C 2189 149.14  2186.14 152  2182.5 152  C 2178.86 152  2176 149.14  2176 145.5  C 2176 141.86  2178.86 139  2182.5 139  Z " fill-rule="nonzero" fill="#f0f0f0" stroke="none" />
  <path d="M 2182.5 139.5  C 2185.86 139.5  2188.5 142.14  2188.5 145.5  C 2188.5 148.86  2185.86 151.5  2182.5 151.5  C 2179.14 151.5  2176.5 148.86  2176.5 145.5  C 2176.5 142.14  2179.14 139.5  2182.5 139.5  Z " stroke-width="1" stroke="#797979" fill="none" />
  <path d="M 2182.5 148.75  C 2180.68 148.75  2179.25 147.32  2179.25 145.5  C 2179.25 143.68  2180.68 142.25  2182.5 142.25  C 2184.32 142.25  2185.75 143.68  2185.75 145.5  C 2185.75 147.32  2184.32 148.75  2182.5 148.75  " fill-rule="nonzero" fill="#797979" stroke="none" />
</svg>