<?xml version="1.0" encoding="utf-8"?>
<svg version="1.1" xmlns:xlink="http://www.w3.org/1999/xlink" width="13px" height="13px" viewBox="1403 985  13 13" xmlns="http://www.w3.org/2000/svg">
  <path d="M 1409.5 985  C 1413.14 985  1416 987.86  1416 991.5  C 1416 995.14  1413.14 998  1409.5 998  C 1405.86 998  1403 995.14  1403 991.5  C 1403 987.86  1405.86 985  1409.5 985  Z " fill-rule="nonzero" fill="#f0f0f0" stroke="none" />
  <path d="M 1409.5 985.5  C 1412.86 985.5  1415.5 988.14  1415.5 991.5  C 1415.5 994.86  1412.86 997.5  1409.5 997.5  C 1406.14 997.5  1403.5 994.86  1403.5 991.5  C 1403.5 988.14  1406.14 985.5  1409.5 985.5  Z " stroke-width="1" stroke="#797979" fill="none" />
  <path d="M 1409.5 994.75  C 1407.68 994.75  1406.25 993.32  1406.25 991.5  C 1406.25 989.68  1407.68 988.25  1409.5 988.25  C 1411.32 988.25  1412.75 989.68  1412.75 991.5  C 1412.75 993.32  1411.32 994.75  1409.5 994.75  " fill-rule="nonzero" fill="#797979" stroke="none" />
</svg>