<?xml version="1.0" encoding="utf-8"?>
<svg version="1.1" xmlns:xlink="http://www.w3.org/1999/xlink" width="36px" height="36px" xmlns="http://www.w3.org/2000/svg">
  <g transform="matrix(1 0 0 1 -2240 -2106 )">
    <path d="M 34.5703125 11.015625000000002  C 35.5234375 13.234375  36 15.562499999999998  36 18  C 36 20.437499999999996  35.5234375 22.765624999999996  34.5703125 24.984375000000004  C 33.6171875 27.203125  32.3359375 29.1171875  30.7265625 30.7265625  C 29.117187500000004 32.3359375  27.203125 33.6171875  24.984375 34.5703125  C 22.765625000000004 35.5234375  20.4375 36  18 36  C 15.312500000000002 36  12.7578125 35.43359375  10.3359375 34.30078125  C 7.9140625 33.16796875  5.8515625 31.5703125  4.1484375 29.5078125  C 4.0390625 29.351562499999996  3.9882812500000004 29.175781249999996  3.99609375 28.98046875  C 4.00390625 28.78515625  4.0703125 28.625  4.1953125 28.5  L 7.40625 25.265625000000004  C 7.5625 25.125000000000004  7.7578125 25.054687500000004  7.9921875 25.054687500000004  C 8.2421875 25.085937499999996  8.421875 25.1796875  8.53125 25.335937500000004  C 9.671875000000002 26.8203125  11.0703125 27.96875  12.7265625 28.78125  C 14.382812500000002 29.59375  16.140625 30  18 30  C 19.625000000000004 30  21.17578125 29.68359375  22.65234375 29.05078125  C 24.12890625 28.41796875  25.40625 27.5625  26.484375 26.484374999999996  C 27.5625 25.406250000000004  28.41796875 24.128906249999996  29.05078125 22.652343749999996  C 29.68359375 21.175781249999996  30 19.625  30 18  C 30 16.374999999999996  29.68359375 14.824218749999998  29.05078125 13.347656249999998  C 28.41796875 11.871093749999998  27.5625 10.593750000000002  26.484375 9.515624999999998  C 25.40625 8.4375  24.12890625 7.582031249999998  22.65234375 6.949218749999998  C 21.17578125 6.316406249999998  19.625000000000004 5.999999999999998  18 5.999999999999998  C 16.468750000000004 5.999999999999998  15 6.27734375  13.59375 6.832031250000002  C 12.1875 7.386718749999995  10.937500000000002 8.179687499999998  9.84375 9.2109375  L 13.0546875 12.4453125  C 13.539062500000002 12.914062500000002  13.6484375 13.453124999999998  13.3828125 14.0625  C 13.117187500000002 14.687500000000002  12.65625 14.999999999999998  12 15  L 1.5 15  C 1.09375 14.999999999999998  0.7421875 14.8515625  0.4453125 14.5546875  C 0.1484375 14.2578125  0 13.90625  0 13.5  L 0 3.0000000000000013  C 0 2.3437499999999987  0.31249999999999994 1.8828124999999996  0.9375 1.6171875  C 1.546875 1.3515624999999964  2.0859375 1.4609374999999996  2.5546875 1.9453125000000013  L 5.6015625 4.968750000000002  C 7.273437500000001 3.3906249999999964  9.18359375 2.1679687499999987  11.33203125 1.30078125  C 13.480468750000002 0.43359375000000133  15.703125 0  18 0  C 20.4375 0  22.765625000000004 0.47656249999999956  24.984375 1.4296874999999987  C 27.203125 2.382812499999998  29.117187500000004 3.6640624999999982  30.7265625 5.2734375  C 32.3359375 6.882812499999998  33.6171875 8.796874999999998  34.5703125 11.015625000000002  Z " fill-rule="nonzero" fill="#2a8bfe" stroke="none" transform="matrix(1 0 0 1 2240 2106 )" />
  </g>
</svg>