<?xml version="1.0" encoding="utf-8"?>
<svg version="1.1" xmlns:xlink="http://www.w3.org/1999/xlink" width="15px" height="10px" preserveAspectRatio="xMinYMid meet" viewBox="7369 3313  15 8" xmlns="http://www.w3.org/2000/svg">
  <path d="M 5374.5 3222  L 5374.5 3330  A 5 5 0 0 0 5379 3335.5 L 5485 3335.5  A 3 3 0 0 1 5488 3332.5 A 3 3 0 0 1 5491 3335.5 L 6628 3335.5  A 3 3 0 0 1 6631 3332.5 A 3 3 0 0 1 6634 3335.5 L 7369 3335.5  A 5 5 0 0 0 7374.5 3330.5 L 7374.5 3322  A 5 5 0 0 1 7379.5 3317.5 L 7383 3317.5  " stroke-width="1" stroke="#555555" fill="none" />
  <path d="M 7377.946446609407 3312.8535533905933  L 7382.5928932188135 3317.5  L 7377.946446609407 3322.1464466094067  L 7378.6535533905935 3322.8535533905933  L 7383.6535533905935 3317.8535533905933  L 7384.007106781187 3317.5  L 7383.6535533905935 3317.1464466094067  L 7378.6535533905935 3312.1464466094067  L 7377.946446609407 3312.8535533905933  Z " fill-rule="nonzero" fill="#555555" stroke="none" />
</svg>