<?xml version="1.0" encoding="utf-8"?>
<svg version="1.1" xmlns:xlink="http://www.w3.org/1999/xlink" width="13px" height="13px" viewBox="1582 1010  13 13" xmlns="http://www.w3.org/2000/svg">
  <path d="M 1588.5 1010  C 1592.14 1010  1595 1012.86  1595 1016.5  C 1595 1020.14  1592.14 1023  1588.5 1023  C 1584.86 1023  1582 1020.14  1582 1016.5  C 1582 1012.86  1584.86 1010  1588.5 1010  Z " fill-rule="nonzero" fill="#ffffff" stroke="none" />
  <path d="M 1588.5 1010.5  C 1591.86 1010.5  1594.5 1013.14  1594.5 1016.5  C 1594.5 1019.86  1591.86 1022.5  1588.5 1022.5  C 1585.14 1022.5  1582.5 1019.86  1582.5 1016.5  C 1582.5 1013.14  1585.14 1010.5  1588.5 1010.5  Z " stroke-width="1" stroke="#797979" fill="none" />
  <path d="M 1588.5 1019.75  C 1586.68 1019.75  1585.25 1018.32  1585.25 1016.5  C 1585.25 1014.68  1586.68 1013.25  1588.5 1013.25  C 1590.32 1013.25  1591.75 1014.68  1591.75 1016.5  C 1591.75 1018.32  1590.32 1019.75  1588.5 1019.75  " fill-rule="nonzero" fill="#797979" stroke="none" />
</svg>