<?xml version="1.0" encoding="utf-8"?>
<svg version="1.1" xmlns:xlink="http://www.w3.org/1999/xlink" width="13px" height="13px" viewBox="1496 1010  13 13" xmlns="http://www.w3.org/2000/svg">
  <path d="M 1502.5 1010  C 1506.14 1010  1509 1012.86  1509 1016.5  C 1509 1020.14  1506.14 1023  1502.5 1023  C 1498.86 1023  1496 1020.14  1496 1016.5  C 1496 1012.86  1498.86 1010  1502.5 1010  Z " fill-rule="nonzero" fill="#ffffff" stroke="none" />
  <path d="M 1502.5 1010.5  C 1505.86 1010.5  1508.5 1013.14  1508.5 1016.5  C 1508.5 1019.86  1505.86 1022.5  1502.5 1022.5  C 1499.14 1022.5  1496.5 1019.86  1496.5 1016.5  C 1496.5 1013.14  1499.14 1010.5  1502.5 1010.5  Z " stroke-width="1" stroke="#797979" fill="none" />
  <path d="M 1502.5 1019.75  C 1500.68 1019.75  1499.25 1018.32  1499.25 1016.5  C 1499.25 1014.68  1500.68 1013.25  1502.5 1013.25  C 1504.32 1013.25  1505.75 1014.68  1505.75 1016.5  C 1505.75 1018.32  1504.32 1019.75  1502.5 1019.75  " fill-rule="nonzero" fill="#797979" stroke="none" />
</svg>