<?xml version="1.0" encoding="utf-8"?>
<svg version="1.1" xmlns:xlink="http://www.w3.org/1999/xlink" width="13px" height="13px" viewBox="816 573  13 13" xmlns="http://www.w3.org/2000/svg">
  <path d="M 822.5 573  C 826.14 573  829 575.86  829 579.5  C 829 583.14  826.14 586  822.5 586  C 818.86 586  816 583.14  816 579.5  C 816 575.86  818.86 573  822.5 573  Z " fill-rule="nonzero" fill="#ffffff" stroke="none" />
  <path d="M 822.5 573.5  C 825.86 573.5  828.5 576.14  828.5 579.5  C 828.5 582.86  825.86 585.5  822.5 585.5  C 819.14 585.5  816.5 582.86  816.5 579.5  C 816.5 576.14  819.14 573.5  822.5 573.5  Z " stroke-width="1" stroke="#797979" fill="none" />
  <path d="M 822.5 582.75  C 820.68 582.75  819.25 581.32  819.25 579.5  C 819.25 577.68  820.68 576.25  822.5 576.25  C 824.32 576.25  825.75 577.68  825.75 579.5  C 825.75 581.32  824.32 582.75  822.5 582.75  " fill-rule="nonzero" fill="#797979" stroke="none" />
</svg>