<?xml version="1.0" encoding="utf-8"?>
<svg version="1.1" xmlns:xlink="http://www.w3.org/1999/xlink" width="13px" height="13px" viewBox="880 573  13 13" xmlns="http://www.w3.org/2000/svg">
  <path d="M 886.5 573  C 890.14 573  893 575.86  893 579.5  C 893 583.14  890.14 586  886.5 586  C 882.86 586  880 583.14  880 579.5  C 880 575.86  882.86 573  886.5 573  Z " fill-rule="nonzero" fill="#f0f0f0" stroke="none" />
  <path d="M 886.5 573.5  C 889.86 573.5  892.5 576.14  892.5 579.5  C 892.5 582.86  889.86 585.5  886.5 585.5  C 883.14 585.5  880.5 582.86  880.5 579.5  C 880.5 576.14  883.14 573.5  886.5 573.5  Z " stroke-width="1" stroke="#797979" fill="none" />
  <path d="M 886.5 582.75  C 884.68 582.75  883.25 581.32  883.25 579.5  C 883.25 577.68  884.68 576.25  886.5 576.25  C 888.32 576.25  889.75 577.68  889.75 579.5  C 889.75 581.32  888.32 582.75  886.5 582.75  " fill-rule="nonzero" fill="#797979" stroke="none" />
</svg>