<?xml version="1.0" encoding="utf-8"?>
<svg version="1.1" xmlns:xlink="http://www.w3.org/1999/xlink" width="13px" height="13px" viewBox="288 211  13 13" xmlns="http://www.w3.org/2000/svg">
  <path d="M 294.5 211  C 298.14 211  301 213.86  301 217.5  C 301 221.14  298.14 224  294.5 224  C 290.86 224  288 221.14  288 217.5  C 288 213.86  290.86 211  294.5 211  Z " fill-rule="nonzero" fill="#f0f0f0" stroke="none" />
  <path d="M 294.5 211.5  C 297.86 211.5  300.5 214.14  300.5 217.5  C 300.5 220.86  297.86 223.5  294.5 223.5  C 291.14 223.5  288.5 220.86  288.5 217.5  C 288.5 214.14  291.14 211.5  294.5 211.5  Z " stroke-width="1" stroke="#797979" fill="none" />
  <path d="M 294.5 220.75  C 292.68 220.75  291.25 219.32  291.25 217.5  C 291.25 215.68  292.68 214.25  294.5 214.25  C 296.32 214.25  297.75 215.68  297.75 217.5  C 297.75 219.32  296.32 220.75  294.5 220.75  " fill-rule="nonzero" fill="#797979" stroke="none" />
</svg>