<?xml version="1.0" encoding="utf-8"?>
<svg version="1.1" xmlns:xlink="http://www.w3.org/1999/xlink" width="18px" height="18px" xmlns="http://www.w3.org/2000/svg">
  <g transform="matrix(1 0 0 1 -159 -305 )">
    <path d="M 168 305  C 173.04 305  177 308.96  177 314  C 177 319.04  173.04 323  168 323  C 162.96 323  159 319.04  159 314  C 159 308.96  162.96 305  168 305  Z " fill-rule="nonzero" fill="#ffffff" stroke="none" />
    <path d="M 168 305.5  C 172.76 305.5  176.5 309.24  176.5 314  C 176.5 318.76  172.76 322.5  168 322.5  C 163.24 322.5  159.5 318.76  159.5 314  C 159.5 309.24  163.24 305.5  168 305.5  Z " stroke-width="1" stroke="#797979" fill="none" />
  </g>
</svg>