<?xml version="1.0" encoding="utf-8"?>
<svg version="1.1" xmlns:xlink="http://www.w3.org/1999/xlink" width="13px" height="13px" viewBox="2133 170  13 13" xmlns="http://www.w3.org/2000/svg">
  <path d="M 2139.5 170  C 2143.14 170  2146 172.86  2146 176.5  C 2146 180.14  2143.14 183  2139.5 183  C 2135.86 183  2133 180.14  2133 176.5  C 2133 172.86  2135.86 170  2139.5 170  Z " fill-rule="nonzero" fill="#f0f0f0" stroke="none" />
  <path d="M 2139.5 170.5  C 2142.86 170.5  2145.5 173.14  2145.5 176.5  C 2145.5 179.86  2142.86 182.5  2139.5 182.5  C 2136.14 182.5  2133.5 179.86  2133.5 176.5  C 2133.5 173.14  2136.14 170.5  2139.5 170.5  Z " stroke-width="1" stroke="#797979" fill="none" />
  <path d="M 2139.5 179.75  C 2137.68 179.75  2136.25 178.32  2136.25 176.5  C 2136.25 174.68  2137.68 173.25  2139.5 173.25  C 2141.32 173.25  2142.75 174.68  2142.75 176.5  C 2142.75 178.32  2141.32 179.75  2139.5 179.75  " fill-rule="nonzero" fill="#797979" stroke="none" />
</svg>