<?xml version="1.0" encoding="utf-8"?>
<svg version="1.1" xmlns:xlink="http://www.w3.org/1999/xlink" width="96px" height="30px" xmlns="http://www.w3.org/2000/svg">
  <defs>
    <mask fill="white" id="clip16">
      <path d="M 0 26  L 0 4  C 0 1.759999999999991  1.759999999999991 0  4 0  L 69.25 0  L 92 0  C 94.24000000000001 0  96 1.759999999999991  96 4  L 96 26  C 96 28.24000000000001  94.24000000000001 30  92 30  L 4 30  C 1.759999999999991 30  0 28.24000000000001  0 26  Z " fill-rule="evenodd" />
    </mask>
  </defs>
  <g transform="matrix(1 0 0 1 -1088 -1216 )">
    <path d="M 0 26  L 0 4  C 0 1.759999999999991  1.759999999999991 0  4 0  L 69.25 0  L 92 0  C 94.24000000000001 0  96 1.759999999999991  96 4  L 96 26  C 96 28.24000000000001  94.24000000000001 30  92 30  L 4 30  C 1.759999999999991 30  0 28.24000000000001  0 26  Z " fill-rule="nonzero" fill="#e4e4e4" stroke="none" transform="matrix(1 0 0 1 1088 1216 )" />
    <path d="M 0 26  L 0 4  C 0 1.759999999999991  1.759999999999991 0  4 0  L 69.25 0  L 92 0  C 94.24000000000001 0  96 1.759999999999991  96 4  L 96 26  C 96 28.24000000000001  94.24000000000001 30  92 30  L 4 30  C 1.759999999999991 30  0 28.24000000000001  0 26  Z " stroke-width="2" stroke="#d9d9d9" fill="none" transform="matrix(1 0 0 1 1088 1216 )" mask="url(#clip16)" />
  </g>
</svg>