<?xml version="1.0" encoding="utf-8"?>
<svg version="1.1" xmlns:xlink="http://www.w3.org/1999/xlink" width="13px" height="13px" viewBox="827 1158  13 13" xmlns="http://www.w3.org/2000/svg">
  <path d="M 833.5 1158  C 837.14 1158  840 1160.86  840 1164.5  C 840 1168.14  837.14 1171  833.5 1171  C 829.86 1171  827 1168.14  827 1164.5  C 827 1160.86  829.86 1158  833.5 1158  Z " fill-rule="nonzero" fill="#f0f0f0" stroke="none" />
  <path d="M 833.5 1158.5  C 836.86 1158.5  839.5 1161.14  839.5 1164.5  C 839.5 1167.86  836.86 1170.5  833.5 1170.5  C 830.14 1170.5  827.5 1167.86  827.5 1164.5  C 827.5 1161.14  830.14 1158.5  833.5 1158.5  Z " stroke-width="1" stroke="#797979" fill="none" />
  <path d="M 833.5 1167.75  C 831.68 1167.75  830.25 1166.32  830.25 1164.5  C 830.25 1162.68  831.68 1161.25  833.5 1161.25  C 835.32 1161.25  836.75 1162.68  836.75 1164.5  C 836.75 1166.32  835.32 1167.75  833.5 1167.75  " fill-rule="nonzero" fill="#797979" stroke="none" />
</svg>