<?xml version="1.0" encoding="utf-8"?>
<svg version="1.1" xmlns:xlink="http://www.w3.org/1999/xlink" width="13px" height="13px" viewBox="734 1354  13 13" xmlns="http://www.w3.org/2000/svg">
  <path d="M 740.5 1354  C 744.14 1354  747 1356.86  747 1360.5  C 747 1364.14  744.14 1367  740.5 1367  C 736.86 1367  734 1364.14  734 1360.5  C 734 1356.86  736.86 1354  740.5 1354  Z " fill-rule="nonzero" fill="#f0f0f0" stroke="none" />
  <path d="M 740.5 1354.5  C 743.86 1354.5  746.5 1357.14  746.5 1360.5  C 746.5 1363.86  743.86 1366.5  740.5 1366.5  C 737.14 1366.5  734.5 1363.86  734.5 1360.5  C 734.5 1357.14  737.14 1354.5  740.5 1354.5  Z " stroke-width="1" stroke="#797979" fill="none" />
  <path d="M 740.5 1363.75  C 738.68 1363.75  737.25 1362.32  737.25 1360.5  C 737.25 1358.68  738.68 1357.25  740.5 1357.25  C 742.32 1357.25  743.75 1358.68  743.75 1360.5  C 743.75 1362.32  742.32 1363.75  740.5 1363.75  " fill-rule="nonzero" fill="#797979" stroke="none" />
</svg>