<?xml version="1.0" encoding="utf-8"?>
<svg version="1.1" xmlns:xlink="http://www.w3.org/1999/xlink" width="13px" height="13px" viewBox="827 1354  13 13" xmlns="http://www.w3.org/2000/svg">
  <path d="M 833.5 1354  C 837.14 1354  840 1356.86  840 1360.5  C 840 1364.14  837.14 1367  833.5 1367  C 829.86 1367  827 1364.14  827 1360.5  C 827 1356.86  829.86 1354  833.5 1354  Z " fill-rule="nonzero" fill="#f0f0f0" stroke="none" />
  <path d="M 833.5 1354.5  C 836.86 1354.5  839.5 1357.14  839.5 1360.5  C 839.5 1363.86  836.86 1366.5  833.5 1366.5  C 830.14 1366.5  827.5 1363.86  827.5 1360.5  C 827.5 1357.14  830.14 1354.5  833.5 1354.5  Z " stroke-width="1" stroke="#797979" fill="none" />
  <path d="M 833.5 1363.75  C 831.68 1363.75  830.25 1362.32  830.25 1360.5  C 830.25 1358.68  831.68 1357.25  833.5 1357.25  C 835.32 1357.25  836.75 1358.68  836.75 1360.5  C 836.75 1362.32  835.32 1363.75  833.5 1363.75  " fill-rule="nonzero" fill="#797979" stroke="none" />
</svg>