<?xml version="1.0" encoding="utf-8"?>
<svg version="1.1" xmlns:xlink="http://www.w3.org/1999/xlink" width="13px" height="13px" viewBox="4096 1326  13 13" xmlns="http://www.w3.org/2000/svg">
  <path d="M 4102.5 1326  C 4106.14 1326  4109 1328.86  4109 1332.5  C 4109 1336.14  4106.14 1339  4102.5 1339  C 4098.86 1339  4096 1336.14  4096 1332.5  C 4096 1328.86  4098.86 1326  4102.5 1326  Z " fill-rule="nonzero" fill="#ffffff" stroke="none" />
  <path d="M 4102.5 1326.5  C 4105.86 1326.5  4108.5 1329.14  4108.5 1332.5  C 4108.5 1335.86  4105.86 1338.5  4102.5 1338.5  C 4099.14 1338.5  4096.5 1335.86  4096.5 1332.5  C 4096.5 1329.14  4099.14 1326.5  4102.5 1326.5  Z " stroke-width="1" stroke="#797979" fill="none" />
  <path d="M 4102.5 1335.75  C 4100.68 1335.75  4099.25 1334.32  4099.25 1332.5  C 4099.25 1330.68  4100.68 1329.25  4102.5 1329.25  C 4104.32 1329.25  4105.75 1330.68  4105.75 1332.5  C 4105.75 1334.32  4104.32 1335.75  4102.5 1335.75  " fill-rule="nonzero" fill="#797979" stroke="none" />
</svg>