<?xml version="1.0" encoding="utf-8"?>
<svg version="1.1" xmlns:xlink="http://www.w3.org/1999/xlink" width="13px" height="13px" viewBox="3921 1326  13 13" xmlns="http://www.w3.org/2000/svg">
  <path d="M 3927.5 1326  C 3931.14 1326  3934 1328.86  3934 1332.5  C 3934 1336.14  3931.14 1339  3927.5 1339  C 3923.86 1339  3921 1336.14  3921 1332.5  C 3921 1328.86  3923.86 1326  3927.5 1326  Z " fill-rule="nonzero" fill="#f0f0f0" stroke="none" />
  <path d="M 3927.5 1326.5  C 3930.86 1326.5  3933.5 1329.14  3933.5 1332.5  C 3933.5 1335.86  3930.86 1338.5  3927.5 1338.5  C 3924.14 1338.5  3921.5 1335.86  3921.5 1332.5  C 3921.5 1329.14  3924.14 1326.5  3927.5 1326.5  Z " stroke-width="1" stroke="#797979" fill="none" />
  <path d="M 3927.5 1335.75  C 3925.68 1335.75  3924.25 1334.32  3924.25 1332.5  C 3924.25 1330.68  3925.68 1329.25  3927.5 1329.25  C 3929.32 1329.25  3930.75 1330.68  3930.75 1332.5  C 3930.75 1334.32  3929.32 1335.75  3927.5 1335.75  " fill-rule="nonzero" fill="#797979" stroke="none" />
</svg>