<?xml version="1.0" encoding="utf-8"?>
<svg version="1.1" xmlns:xlink="http://www.w3.org/1999/xlink" width="13px" height="13px" viewBox="2465 1264  13 13" xmlns="http://www.w3.org/2000/svg">
  <path d="M 2471.5 1264  C 2475.14 1264  2478 1266.86  2478 1270.5  C 2478 1274.14  2475.14 1277  2471.5 1277  C 2467.86 1277  2465 1274.14  2465 1270.5  C 2465 1266.86  2467.86 1264  2471.5 1264  Z " fill-rule="nonzero" fill="#f0f0f0" stroke="none" />
  <path d="M 2471.5 1264.5  C 2474.86 1264.5  2477.5 1267.14  2477.5 1270.5  C 2477.5 1273.86  2474.86 1276.5  2471.5 1276.5  C 2468.14 1276.5  2465.5 1273.86  2465.5 1270.5  C 2465.5 1267.14  2468.14 1264.5  2471.5 1264.5  Z " stroke-width="1" stroke="#797979" fill="none" />
  <path d="M 2471.5 1273.75  C 2469.68 1273.75  2468.25 1272.32  2468.25 1270.5  C 2468.25 1268.68  2469.68 1267.25  2471.5 1267.25  C 2473.32 1267.25  2474.75 1268.68  2474.75 1270.5  C 2474.75 1272.32  2473.32 1273.75  2471.5 1273.75  " fill-rule="nonzero" fill="#797979" stroke="none" />
</svg>