<?xml version="1.0" encoding="utf-8"?>
<svg version="1.1" xmlns:xlink="http://www.w3.org/1999/xlink" width="13px" height="13px" viewBox="314 1165  13 13" xmlns="http://www.w3.org/2000/svg">
  <path d="M 320.5 1165  C 324.14 1165  327 1167.86  327 1171.5  C 327 1175.14  324.14 1178  320.5 1178  C 316.86 1178  314 1175.14  314 1171.5  C 314 1167.86  316.86 1165  320.5 1165  Z " fill-rule="nonzero" fill="#ffffff" stroke="none" />
  <path d="M 320.5 1165.5  C 323.86 1165.5  326.5 1168.14  326.5 1171.5  C 326.5 1174.86  323.86 1177.5  320.5 1177.5  C 317.14 1177.5  314.5 1174.86  314.5 1171.5  C 314.5 1168.14  317.14 1165.5  320.5 1165.5  Z " stroke-width="1" stroke="#797979" fill="none" />
  <path d="M 320.5 1174.75  C 318.68 1174.75  317.25 1173.32  317.25 1171.5  C 317.25 1169.68  318.68 1168.25  320.5 1168.25  C 322.32 1168.25  323.75 1169.68  323.75 1171.5  C 323.75 1173.32  322.32 1174.75  320.5 1174.75  " fill-rule="nonzero" fill="#797979" stroke="none" />
</svg>