<?xml version="1.0" encoding="utf-8"?>
<svg version="1.1" xmlns:xlink="http://www.w3.org/1999/xlink" width="13px" height="13px" viewBox="395 1737  13 13" xmlns="http://www.w3.org/2000/svg">
  <path d="M 401.5 1737  C 405.14 1737  408 1739.86  408 1743.5  C 408 1747.14  405.14 1750  401.5 1750  C 397.86 1750  395 1747.14  395 1743.5  C 395 1739.86  397.86 1737  401.5 1737  Z " fill-rule="nonzero" fill="#f0f0f0" stroke="none" />
  <path d="M 401.5 1737.5  C 404.86 1737.5  407.5 1740.14  407.5 1743.5  C 407.5 1746.86  404.86 1749.5  401.5 1749.5  C 398.14 1749.5  395.5 1746.86  395.5 1743.5  C 395.5 1740.14  398.14 1737.5  401.5 1737.5  Z " stroke-width="1" stroke="#797979" fill="none" />
  <path d="M 401.5 1746.75  C 399.68 1746.75  398.25 1745.32  398.25 1743.5  C 398.25 1741.68  399.68 1740.25  401.5 1740.25  C 403.32 1740.25  404.75 1741.68  404.75 1743.5  C 404.75 1745.32  403.32 1746.75  401.5 1746.75  " fill-rule="nonzero" fill="#797979" stroke="none" />
</svg>