<?xml version="1.0" encoding="utf-8"?>
<svg version="1.1" xmlns:xlink="http://www.w3.org/1999/xlink" width="13px" height="13px" viewBox="264 1415  13 13" xmlns="http://www.w3.org/2000/svg">
  <path d="M 270.5 1415  C 274.14 1415  277 1417.86  277 1421.5  C 277 1425.14  274.14 1428  270.5 1428  C 266.86 1428  264 1425.14  264 1421.5  C 264 1417.86  266.86 1415  270.5 1415  Z " fill-rule="nonzero" fill="#f0f0f0" stroke="none" />
  <path d="M 270.5 1415.5  C 273.86 1415.5  276.5 1418.14  276.5 1421.5  C 276.5 1424.86  273.86 1427.5  270.5 1427.5  C 267.14 1427.5  264.5 1424.86  264.5 1421.5  C 264.5 1418.14  267.14 1415.5  270.5 1415.5  Z " stroke-width="1" stroke="#797979" fill="none" />
  <path d="M 270.5 1424.75  C 268.68 1424.75  267.25 1423.32  267.25 1421.5  C 267.25 1419.68  268.68 1418.25  270.5 1418.25  C 272.32 1418.25  273.75 1419.68  273.75 1421.5  C 273.75 1423.32  272.32 1424.75  270.5 1424.75  " fill-rule="nonzero" fill="#797979" stroke="none" />
</svg>