<?xml version="1.0" encoding="utf-8"?>
<svg version="1.1" xmlns:xlink="http://www.w3.org/1999/xlink" width="13px" height="13px" viewBox="357 1415  13 13" xmlns="http://www.w3.org/2000/svg">
  <path d="M 363.5 1415  C 367.14 1415  370 1417.86  370 1421.5  C 370 1425.14  367.14 1428  363.5 1428  C 359.86 1428  357 1425.14  357 1421.5  C 357 1417.86  359.86 1415  363.5 1415  Z " fill-rule="nonzero" fill="#f0f0f0" stroke="none" />
  <path d="M 363.5 1415.5  C 366.86 1415.5  369.5 1418.14  369.5 1421.5  C 369.5 1424.86  366.86 1427.5  363.5 1427.5  C 360.14 1427.5  357.5 1424.86  357.5 1421.5  C 357.5 1418.14  360.14 1415.5  363.5 1415.5  Z " stroke-width="1" stroke="#797979" fill="none" />
  <path d="M 363.5 1424.75  C 361.68 1424.75  360.25 1423.32  360.25 1421.5  C 360.25 1419.68  361.68 1418.25  363.5 1418.25  C 365.32 1418.25  366.75 1419.68  366.75 1421.5  C 366.75 1423.32  365.32 1424.75  363.5 1424.75  " fill-rule="nonzero" fill="#797979" stroke="none" />
</svg>