<?xml version="1.0" encoding="utf-8"?>
<svg version="1.1" xmlns:xlink="http://www.w3.org/1999/xlink" width="13px" height="13px" viewBox="823 1414  13 13" xmlns="http://www.w3.org/2000/svg">
  <path d="M 829.5 1414  C 833.14 1414  836 1416.86  836 1420.5  C 836 1424.14  833.14 1427  829.5 1427  C 825.86 1427  823 1424.14  823 1420.5  C 823 1416.86  825.86 1414  829.5 1414  Z " fill-rule="nonzero" fill="#f0f0f0" stroke="none" />
  <path d="M 829.5 1414.5  C 832.86 1414.5  835.5 1417.14  835.5 1420.5  C 835.5 1423.86  832.86 1426.5  829.5 1426.5  C 826.14 1426.5  823.5 1423.86  823.5 1420.5  C 823.5 1417.14  826.14 1414.5  829.5 1414.5  Z " stroke-width="1" stroke="#797979" fill="none" />
  <path d="M 829.5 1423.75  C 827.68 1423.75  826.25 1422.32  826.25 1420.5  C 826.25 1418.68  827.68 1417.25  829.5 1417.25  C 831.32 1417.25  832.75 1418.68  832.75 1420.5  C 832.75 1422.32  831.32 1423.75  829.5 1423.75  " fill-rule="nonzero" fill="#797979" stroke="none" />
</svg>