<?xml version="1.0" encoding="utf-8"?>
<svg version="1.1" xmlns:xlink="http://www.w3.org/1999/xlink" width="13px" height="13px" viewBox="2158 1280  13 13" xmlns="http://www.w3.org/2000/svg">
  <path d="M 2164.5 1280  C 2168.14 1280  2171 1282.86  2171 1286.5  C 2171 1290.14  2168.14 1293  2164.5 1293  C 2160.86 1293  2158 1290.14  2158 1286.5  C 2158 1282.86  2160.86 1280  2164.5 1280  Z " fill-rule="nonzero" fill="#f0f0f0" stroke="none" />
  <path d="M 2164.5 1280.5  C 2167.86 1280.5  2170.5 1283.14  2170.5 1286.5  C 2170.5 1289.86  2167.86 1292.5  2164.5 1292.5  C 2161.14 1292.5  2158.5 1289.86  2158.5 1286.5  C 2158.5 1283.14  2161.14 1280.5  2164.5 1280.5  Z " stroke-width="1" stroke="#797979" fill="none" />
  <path d="M 2164.5 1289.75  C 2162.68 1289.75  2161.25 1288.32  2161.25 1286.5  C 2161.25 1284.68  2162.68 1283.25  2164.5 1283.25  C 2166.32 1283.25  2167.75 1284.68  2167.75 1286.5  C 2167.75 1288.32  2166.32 1289.75  2164.5 1289.75  " fill-rule="nonzero" fill="#797979" stroke="none" />
</svg>