<?xml version="1.0" encoding="utf-8"?>
<svg version="1.1" xmlns:xlink="http://www.w3.org/1999/xlink" width="13px" height="13px" viewBox="1825 1270  13 13" xmlns="http://www.w3.org/2000/svg">
  <path d="M 1831.5 1270  C 1835.14 1270  1838 1272.86  1838 1276.5  C 1838 1280.14  1835.14 1283  1831.5 1283  C 1827.86 1283  1825 1280.14  1825 1276.5  C 1825 1272.86  1827.86 1270  1831.5 1270  Z " fill-rule="nonzero" fill="#ffffff" stroke="none" />
  <path d="M 1831.5 1270.5  C 1834.86 1270.5  1837.5 1273.14  1837.5 1276.5  C 1837.5 1279.86  1834.86 1282.5  1831.5 1282.5  C 1828.14 1282.5  1825.5 1279.86  1825.5 1276.5  C 1825.5 1273.14  1828.14 1270.5  1831.5 1270.5  Z " stroke-width="1" stroke="#797979" fill="none" />
  <path d="M 1831.5 1279.75  C 1829.68 1279.75  1828.25 1278.32  1828.25 1276.5  C 1828.25 1274.68  1829.68 1273.25  1831.5 1273.25  C 1833.32 1273.25  1834.75 1274.68  1834.75 1276.5  C 1834.75 1278.32  1833.32 1279.75  1831.5 1279.75  " fill-rule="nonzero" fill="#797979" stroke="none" />
</svg>