<?xml version="1.0" encoding="utf-8"?>
<svg version="1.1" xmlns:xlink="http://www.w3.org/1999/xlink" width="13px" height="13px" viewBox="320 1092  13 13" xmlns="http://www.w3.org/2000/svg">
  <path d="M 326.5 1092  C 330.14 1092  333 1094.86  333 1098.5  C 333 1102.14  330.14 1105  326.5 1105  C 322.86 1105  320 1102.14  320 1098.5  C 320 1094.86  322.86 1092  326.5 1092  Z " fill-rule="nonzero" fill="#f0f0f0" stroke="none" />
  <path d="M 326.5 1092.5  C 329.86 1092.5  332.5 1095.14  332.5 1098.5  C 332.5 1101.86  329.86 1104.5  326.5 1104.5  C 323.14 1104.5  320.5 1101.86  320.5 1098.5  C 320.5 1095.14  323.14 1092.5  326.5 1092.5  Z " stroke-width="1" stroke="#797979" fill="none" />
  <path d="M 326.5 1101.75  C 324.68 1101.75  323.25 1100.32  323.25 1098.5  C 323.25 1096.68  324.68 1095.25  326.5 1095.25  C 328.32 1095.25  329.75 1096.68  329.75 1098.5  C 329.75 1100.32  328.32 1101.75  326.5 1101.75  " fill-rule="nonzero" fill="#797979" stroke="none" />
</svg>