<?xml version="1.0" encoding="utf-8"?>
<svg version="1.1" xmlns:xlink="http://www.w3.org/1999/xlink" width="13px" height="13px" viewBox="401 1092  13 13" xmlns="http://www.w3.org/2000/svg">
  <path d="M 407.5 1092  C 411.14 1092  414 1094.86  414 1098.5  C 414 1102.14  411.14 1105  407.5 1105  C 403.86 1105  401 1102.14  401 1098.5  C 401 1094.86  403.86 1092  407.5 1092  Z " fill-rule="nonzero" fill="#ffffff" stroke="none" />
  <path d="M 407.5 1092.5  C 410.86 1092.5  413.5 1095.14  413.5 1098.5  C 413.5 1101.86  410.86 1104.5  407.5 1104.5  C 404.14 1104.5  401.5 1101.86  401.5 1098.5  C 401.5 1095.14  404.14 1092.5  407.5 1092.5  Z " stroke-width="1" stroke="#797979" fill="none" />
  <path d="M 407.5 1101.75  C 405.68 1101.75  404.25 1100.32  404.25 1098.5  C 404.25 1096.68  405.68 1095.25  407.5 1095.25  C 409.32 1095.25  410.75 1096.68  410.75 1098.5  C 410.75 1100.32  409.32 1101.75  407.5 1101.75  " fill-rule="nonzero" fill="#797979" stroke="none" />
</svg>