<?xml version="1.0" encoding="utf-8"?>
<svg version="1.1" xmlns:xlink="http://www.w3.org/1999/xlink" width="13px" height="13px" viewBox="333 2292  13 13" xmlns="http://www.w3.org/2000/svg">
  <path d="M 339.5 2292  C 343.14 2292  346 2294.86  346 2298.5  C 346 2302.14  343.14 2305  339.5 2305  C 335.86 2305  333 2302.14  333 2298.5  C 333 2294.86  335.86 2292  339.5 2292  Z " fill-rule="nonzero" fill="#ffffff" stroke="none" />
  <path d="M 339.5 2292.5  C 342.86 2292.5  345.5 2295.14  345.5 2298.5  C 345.5 2301.86  342.86 2304.5  339.5 2304.5  C 336.14 2304.5  333.5 2301.86  333.5 2298.5  C 333.5 2295.14  336.14 2292.5  339.5 2292.5  Z " stroke-width="1" stroke="#797979" fill="none" />
  <path d="M 339.5 2301.75  C 337.68 2301.75  336.25 2300.32  336.25 2298.5  C 336.25 2296.68  337.68 2295.25  339.5 2295.25  C 341.32 2295.25  342.75 2296.68  342.75 2298.5  C 342.75 2300.32  341.32 2301.75  339.5 2301.75  " fill-rule="nonzero" fill="#797979" stroke="none" />
</svg>