<?xml version="1.0" encoding="utf-8"?>
<svg version="1.1" xmlns:xlink="http://www.w3.org/1999/xlink" width="13px" height="13px" viewBox="414 2292  13 13" xmlns="http://www.w3.org/2000/svg">
  <path d="M 420.5 2292  C 424.14 2292  427 2294.86  427 2298.5  C 427 2302.14  424.14 2305  420.5 2305  C 416.86 2305  414 2302.14  414 2298.5  C 414 2294.86  416.86 2292  420.5 2292  Z " fill-rule="nonzero" fill="#f0f0f0" stroke="none" />
  <path d="M 420.5 2292.5  C 423.86 2292.5  426.5 2295.14  426.5 2298.5  C 426.5 2301.86  423.86 2304.5  420.5 2304.5  C 417.14 2304.5  414.5 2301.86  414.5 2298.5  C 414.5 2295.14  417.14 2292.5  420.5 2292.5  Z " stroke-width="1" stroke="#797979" fill="none" />
  <path d="M 420.5 2301.75  C 418.68 2301.75  417.25 2300.32  417.25 2298.5  C 417.25 2296.68  418.68 2295.25  420.5 2295.25  C 422.32 2295.25  423.75 2296.68  423.75 2298.5  C 423.75 2300.32  422.32 2301.75  420.5 2301.75  " fill-rule="nonzero" fill="#797979" stroke="none" />
</svg>