<?xml version="1.0" encoding="utf-8"?>
<svg version="1.1" xmlns:xlink="http://www.w3.org/1999/xlink" width="14px" height="14px" xmlns="http://www.w3.org/2000/svg">
  <g transform="matrix(1 0 0 1 -351 -1005 )">
    <path d="M 358 1006  C 361.36 1006  364 1008.64  364 1012  C 364 1015.36  361.36 1018  358 1018  C 354.64 1018  352 1015.36  352 1012  C 352 1008.64  354.64 1006  358 1006  Z " fill-rule="nonzero" fill="#ffffff" stroke="none" />
    <path d="M 358 1006  C 361.36 1006  364 1008.64  364 1012  C 364 1015.36  361.36 1018  358 1018  C 354.64 1018  352 1015.36  352 1012  C 352 1008.64  354.64 1006  358 1006  Z " stroke-width="2" stroke="#797979" fill="none" />
  </g>
</svg>