<?xml version="1.0" encoding="utf-8"?>
<svg version="1.1" xmlns:xlink="http://www.w3.org/1999/xlink" width="13px" height="13px" viewBox="401 1871  13 13" xmlns="http://www.w3.org/2000/svg">
  <path d="M 407.5 1871  C 411.14 1871  414 1873.86  414 1877.5  C 414 1881.14  411.14 1884  407.5 1884  C 403.86 1884  401 1881.14  401 1877.5  C 401 1873.86  403.86 1871  407.5 1871  Z " fill-rule="nonzero" fill="#ffffff" stroke="none" />
  <path d="M 407.5 1871.5  C 410.86 1871.5  413.5 1874.14  413.5 1877.5  C 413.5 1880.86  410.86 1883.5  407.5 1883.5  C 404.14 1883.5  401.5 1880.86  401.5 1877.5  C 401.5 1874.14  404.14 1871.5  407.5 1871.5  Z " stroke-width="1" stroke="#797979" fill="none" />
  <path d="M 407.5 1880.75  C 405.68 1880.75  404.25 1879.32  404.25 1877.5  C 404.25 1875.68  405.68 1874.25  407.5 1874.25  C 409.32 1874.25  410.75 1875.68  410.75 1877.5  C 410.75 1879.32  409.32 1880.75  407.5 1880.75  " fill-rule="nonzero" fill="#797979" stroke="none" />
</svg>