<?xml version="1.0" encoding="utf-8"?>
<svg version="1.1" xmlns:xlink="http://www.w3.org/1999/xlink" width="13px" height="13px" viewBox="285 1058  13 13" xmlns="http://www.w3.org/2000/svg">
  <path d="M 291.5 1058  C 295.14 1058  298 1060.86  298 1064.5  C 298 1068.14  295.14 1071  291.5 1071  C 287.86 1071  285 1068.14  285 1064.5  C 285 1060.86  287.86 1058  291.5 1058  Z " fill-rule="nonzero" fill="#ffffff" stroke="none" />
  <path d="M 291.5 1058.5  C 294.86 1058.5  297.5 1061.14  297.5 1064.5  C 297.5 1067.86  294.86 1070.5  291.5 1070.5  C 288.14 1070.5  285.5 1067.86  285.5 1064.5  C 285.5 1061.14  288.14 1058.5  291.5 1058.5  Z " stroke-width="1" stroke="#797979" fill="none" />
  <path d="M 291.5 1067.75  C 289.68 1067.75  288.25 1066.32  288.25 1064.5  C 288.25 1062.68  289.68 1061.25  291.5 1061.25  C 293.32 1061.25  294.75 1062.68  294.75 1064.5  C 294.75 1066.32  293.32 1067.75  291.5 1067.75  " fill-rule="nonzero" fill="#797979" stroke="none" />
</svg>