<?xml version="1.0" encoding="utf-8"?>
<svg version="1.1" xmlns:xlink="http://www.w3.org/1999/xlink" width="13px" height="13px" viewBox="226 2875  13 13" xmlns="http://www.w3.org/2000/svg">
  <path d="M 232.5 2875  C 236.14 2875  239 2877.86  239 2881.5  C 239 2885.14  236.14 2888  232.5 2888  C 228.86 2888  226 2885.14  226 2881.5  C 226 2877.86  228.86 2875  232.5 2875  Z " fill-rule="nonzero" fill="#f0f0f0" stroke="none" />
  <path d="M 232.5 2875.5  C 235.86 2875.5  238.5 2878.14  238.5 2881.5  C 238.5 2884.86  235.86 2887.5  232.5 2887.5  C 229.14 2887.5  226.5 2884.86  226.5 2881.5  C 226.5 2878.14  229.14 2875.5  232.5 2875.5  Z " stroke-width="1" stroke="#797979" fill="none" />
  <path d="M 232.5 2884.75  C 230.68 2884.75  229.25 2883.32  229.25 2881.5  C 229.25 2879.68  230.68 2878.25  232.5 2878.25  C 234.32 2878.25  235.75 2879.68  235.75 2881.5  C 235.75 2883.32  234.32 2884.75  232.5 2884.75  " fill-rule="nonzero" fill="#797979" stroke="none" />
</svg>