<?xml version="1.0" encoding="utf-8"?>
<svg version="1.1" xmlns:xlink="http://www.w3.org/1999/xlink" width="13px" height="13px" viewBox="647 913  13 13" xmlns="http://www.w3.org/2000/svg">
  <path d="M 653.5 913  C 657.14 913  660 915.86  660 919.5  C 660 923.14  657.14 926  653.5 926  C 649.86 926  647 923.14  647 919.5  C 647 915.86  649.86 913  653.5 913  Z " fill-rule="nonzero" fill="#ffffff" stroke="none" />
  <path d="M 653.5 913.5  C 656.86 913.5  659.5 916.14  659.5 919.5  C 659.5 922.86  656.86 925.5  653.5 925.5  C 650.14 925.5  647.5 922.86  647.5 919.5  C 647.5 916.14  650.14 913.5  653.5 913.5  Z " stroke-width="1" stroke="#797979" fill="none" />
  <path d="M 653.5 922.75  C 651.68 922.75  650.25 921.32  650.25 919.5  C 650.25 917.68  651.68 916.25  653.5 916.25  C 655.32 916.25  656.75 917.68  656.75 919.5  C 656.75 921.32  655.32 922.75  653.5 922.75  " fill-rule="nonzero" fill="#797979" stroke="none" />
</svg>