<?xml version="1.0" encoding="utf-8"?>
<svg version="1.1" xmlns:xlink="http://www.w3.org/1999/xlink" width="13px" height="13px" viewBox="307 892  13 13" xmlns="http://www.w3.org/2000/svg">
  <path d="M 313.5 892  C 317.14 892  320 894.86  320 898.5  C 320 902.14  317.14 905  313.5 905  C 309.86 905  307 902.14  307 898.5  C 307 894.86  309.86 892  313.5 892  Z " fill-rule="nonzero" fill="#f0f0f0" stroke="none" />
  <path d="M 313.5 892.5  C 316.86 892.5  319.5 895.14  319.5 898.5  C 319.5 901.86  316.86 904.5  313.5 904.5  C 310.14 904.5  307.5 901.86  307.5 898.5  C 307.5 895.14  310.14 892.5  313.5 892.5  Z " stroke-width="1" stroke="#797979" fill="none" />
  <path d="M 313.5 901.75  C 311.68 901.75  310.25 900.32  310.25 898.5  C 310.25 896.68  311.68 895.25  313.5 895.25  C 315.32 895.25  316.75 896.68  316.75 898.5  C 316.75 900.32  315.32 901.75  313.5 901.75  " fill-rule="nonzero" fill="#797979" stroke="none" />
</svg>