<?xml version="1.0" encoding="utf-8"?>
<svg version="1.1" xmlns:xlink="http://www.w3.org/1999/xlink" width="13px" height="13px" viewBox="1057 882  13 13" xmlns="http://www.w3.org/2000/svg">
  <path d="M 1063.5 882  C 1067.14 882  1070 884.86  1070 888.5  C 1070 892.14  1067.14 895  1063.5 895  C 1059.86 895  1057 892.14  1057 888.5  C 1057 884.86  1059.86 882  1063.5 882  Z " fill-rule="nonzero" fill="#ffffff" stroke="none" />
  <path d="M 1063.5 882.5  C 1066.86 882.5  1069.5 885.14  1069.5 888.5  C 1069.5 891.86  1066.86 894.5  1063.5 894.5  C 1060.14 894.5  1057.5 891.86  1057.5 888.5  C 1057.5 885.14  1060.14 882.5  1063.5 882.5  Z " stroke-width="1" stroke="#797979" fill="none" />
  <path d="M 1063.5 891.75  C 1061.68 891.75  1060.25 890.32  1060.25 888.5  C 1060.25 886.68  1061.68 885.25  1063.5 885.25  C 1065.32 885.25  1066.75 886.68  1066.75 888.5  C 1066.75 890.32  1065.32 891.75  1063.5 891.75  " fill-rule="nonzero" fill="#797979" stroke="none" />
</svg>