<?xml version="1.0" encoding="utf-8"?>
<svg version="1.1" xmlns:xlink="http://www.w3.org/1999/xlink" width="13px" height="13px" viewBox="1515 906  13 13" xmlns="http://www.w3.org/2000/svg">
  <path d="M 1521.5 906  C 1525.14 906  1528 908.86  1528 912.5  C 1528 916.14  1525.14 919  1521.5 919  C 1517.86 919  1515 916.14  1515 912.5  C 1515 908.86  1517.86 906  1521.5 906  Z " fill-rule="nonzero" fill="#f0f0f0" stroke="none" />
  <path d="M 1521.5 906.5  C 1524.86 906.5  1527.5 909.14  1527.5 912.5  C 1527.5 915.86  1524.86 918.5  1521.5 918.5  C 1518.14 918.5  1515.5 915.86  1515.5 912.5  C 1515.5 909.14  1518.14 906.5  1521.5 906.5  Z " stroke-width="1" stroke="#797979" fill="none" />
  <path d="M 1521.5 915.75  C 1519.68 915.75  1518.25 914.32  1518.25 912.5  C 1518.25 910.68  1519.68 909.25  1521.5 909.25  C 1523.32 909.25  1524.75 910.68  1524.75 912.5  C 1524.75 914.32  1523.32 915.75  1521.5 915.75  " fill-rule="nonzero" fill="#797979" stroke="none" />
</svg>