<?xml version="1.0" encoding="utf-8"?>
<svg version="1.1" xmlns:xlink="http://www.w3.org/1999/xlink" width="13px" height="13px" viewBox="738 1007  13 13" xmlns="http://www.w3.org/2000/svg">
  <path d="M 744.5 1007  C 748.14 1007  751 1009.86  751 1013.5  C 751 1017.14  748.14 1020  744.5 1020  C 740.86 1020  738 1017.14  738 1013.5  C 738 1009.86  740.86 1007  744.5 1007  Z " fill-rule="nonzero" fill="#f0f0f0" stroke="none" />
  <path d="M 744.5 1007.5  C 747.86 1007.5  750.5 1010.14  750.5 1013.5  C 750.5 1016.86  747.86 1019.5  744.5 1019.5  C 741.14 1019.5  738.5 1016.86  738.5 1013.5  C 738.5 1010.14  741.14 1007.5  744.5 1007.5  Z " stroke-width="1" stroke="#797979" fill="none" />
  <path d="M 744.5 1016.75  C 742.68 1016.75  741.25 1015.32  741.25 1013.5  C 741.25 1011.68  742.68 1010.25  744.5 1010.25  C 746.32 1010.25  747.75 1011.68  747.75 1013.5  C 747.75 1015.32  746.32 1016.75  744.5 1016.75  " fill-rule="nonzero" fill="#797979" stroke="none" />
</svg>