<?xml version="1.0" encoding="utf-8"?>
<svg version="1.1" xmlns:xlink="http://www.w3.org/1999/xlink" width="13px" height="13px" viewBox="908 1007  13 13" xmlns="http://www.w3.org/2000/svg">
  <path d="M 914.5 1007  C 918.14 1007  921 1009.86  921 1013.5  C 921 1017.14  918.14 1020  914.5 1020  C 910.86 1020  908 1017.14  908 1013.5  C 908 1009.86  910.86 1007  914.5 1007  Z " fill-rule="nonzero" fill="#ffffff" stroke="none" />
  <path d="M 914.5 1007.5  C 917.86 1007.5  920.5 1010.14  920.5 1013.5  C 920.5 1016.86  917.86 1019.5  914.5 1019.5  C 911.14 1019.5  908.5 1016.86  908.5 1013.5  C 908.5 1010.14  911.14 1007.5  914.5 1007.5  Z " stroke-width="1" stroke="#797979" fill="none" />
  <path d="M 914.5 1016.75  C 912.68 1016.75  911.25 1015.32  911.25 1013.5  C 911.25 1011.68  912.68 1010.25  914.5 1010.25  C 916.32 1010.25  917.75 1011.68  917.75 1013.5  C 917.75 1015.32  916.32 1016.75  914.5 1016.75  " fill-rule="nonzero" fill="#797979" stroke="none" />
</svg>