<?xml version="1.0" encoding="utf-8"?>
<svg version="1.1" xmlns:xlink="http://www.w3.org/1999/xlink" width="13px" height="13px" viewBox="831 1203  13 13" xmlns="http://www.w3.org/2000/svg">
  <path d="M 837.5 1203  C 841.14 1203  844 1205.86  844 1209.5  C 844 1213.14  841.14 1216  837.5 1216  C 833.86 1216  831 1213.14  831 1209.5  C 831 1205.86  833.86 1203  837.5 1203  Z " fill-rule="nonzero" fill="#f0f0f0" stroke="none" />
  <path d="M 837.5 1203.5  C 840.86 1203.5  843.5 1206.14  843.5 1209.5  C 843.5 1212.86  840.86 1215.5  837.5 1215.5  C 834.14 1215.5  831.5 1212.86  831.5 1209.5  C 831.5 1206.14  834.14 1203.5  837.5 1203.5  Z " stroke-width="1" stroke="#797979" fill="none" />
  <path d="M 837.5 1212.75  C 835.68 1212.75  834.25 1211.32  834.25 1209.5  C 834.25 1207.68  835.68 1206.25  837.5 1206.25  C 839.32 1206.25  840.75 1207.68  840.75 1209.5  C 840.75 1211.32  839.32 1212.75  837.5 1212.75  " fill-rule="nonzero" fill="#797979" stroke="none" />
</svg>