<?xml version="1.0" encoding="utf-8"?>
<svg version="1.1" xmlns:xlink="http://www.w3.org/1999/xlink" width="13px" height="13px" viewBox="738 1203  13 13" xmlns="http://www.w3.org/2000/svg">
  <path d="M 744.5 1203  C 748.14 1203  751 1205.86  751 1209.5  C 751 1213.14  748.14 1216  744.5 1216  C 740.86 1216  738 1213.14  738 1209.5  C 738 1205.86  740.86 1203  744.5 1203  Z " fill-rule="nonzero" fill="#ffffff" stroke="none" />
  <path d="M 744.5 1203.5  C 747.86 1203.5  750.5 1206.14  750.5 1209.5  C 750.5 1212.86  747.86 1215.5  744.5 1215.5  C 741.14 1215.5  738.5 1212.86  738.5 1209.5  C 738.5 1206.14  741.14 1203.5  744.5 1203.5  Z " stroke-width="1" stroke="#797979" fill="none" />
  <path d="M 744.5 1212.75  C 742.68 1212.75  741.25 1211.32  741.25 1209.5  C 741.25 1207.68  742.68 1206.25  744.5 1206.25  C 746.32 1206.25  747.75 1207.68  747.75 1209.5  C 747.75 1211.32  746.32 1212.75  744.5 1212.75  " fill-rule="nonzero" fill="#797979" stroke="none" />
</svg>