<?xml version="1.0" encoding="utf-8"?>
<svg version="1.1" xmlns:xlink="http://www.w3.org/1999/xlink" width="13px" height="13px" viewBox="908 1203  13 13" xmlns="http://www.w3.org/2000/svg">
  <path d="M 914.5 1203  C 918.14 1203  921 1205.86  921 1209.5  C 921 1213.14  918.14 1216  914.5 1216  C 910.86 1216  908 1213.14  908 1209.5  C 908 1205.86  910.86 1203  914.5 1203  Z " fill-rule="nonzero" fill="#f0f0f0" stroke="none" />
  <path d="M 914.5 1203.5  C 917.86 1203.5  920.5 1206.14  920.5 1209.5  C 920.5 1212.86  917.86 1215.5  914.5 1215.5  C 911.14 1215.5  908.5 1212.86  908.5 1209.5  C 908.5 1206.14  911.14 1203.5  914.5 1203.5  Z " stroke-width="1" stroke="#797979" fill="none" />
  <path d="M 914.5 1212.75  C 912.68 1212.75  911.25 1211.32  911.25 1209.5  C 911.25 1207.68  912.68 1206.25  914.5 1206.25  C 916.32 1206.25  917.75 1207.68  917.75 1209.5  C 917.75 1211.32  916.32 1212.75  914.5 1212.75  " fill-rule="nonzero" fill="#797979" stroke="none" />
</svg>