<?xml version="1.0" encoding="utf-8"?>
<svg version="1.1" xmlns:xlink="http://www.w3.org/1999/xlink" width="13px" height="13px" viewBox="1282 1012  13 13" xmlns="http://www.w3.org/2000/svg">
  <path d="M 1288.5 1012  C 1292.14 1012  1295 1014.86  1295 1018.5  C 1295 1022.14  1292.14 1025  1288.5 1025  C 1284.86 1025  1282 1022.14  1282 1018.5  C 1282 1014.86  1284.86 1012  1288.5 1012  Z " fill-rule="nonzero" fill="#f0f0f0" stroke="none" />
  <path d="M 1288.5 1012.5  C 1291.86 1012.5  1294.5 1015.14  1294.5 1018.5  C 1294.5 1021.86  1291.86 1024.5  1288.5 1024.5  C 1285.14 1024.5  1282.5 1021.86  1282.5 1018.5  C 1282.5 1015.14  1285.14 1012.5  1288.5 1012.5  Z " stroke-width="1" stroke="#797979" fill="none" />
  <path d="M 1288.5 1021.75  C 1286.68 1021.75  1285.25 1020.32  1285.25 1018.5  C 1285.25 1016.68  1286.68 1015.25  1288.5 1015.25  C 1290.32 1015.25  1291.75 1016.68  1291.75 1018.5  C 1291.75 1020.32  1290.32 1021.75  1288.5 1021.75  " fill-rule="nonzero" fill="#797979" stroke="none" />
</svg>