<?xml version="1.0" encoding="utf-8"?>
<svg version="1.1" xmlns:xlink="http://www.w3.org/1999/xlink" width="13px" height="13px" viewBox="1363 1012  13 13" xmlns="http://www.w3.org/2000/svg">
  <path d="M 1369.5 1012  C 1373.14 1012  1376 1014.86  1376 1018.5  C 1376 1022.14  1373.14 1025  1369.5 1025  C 1365.86 1025  1363 1022.14  1363 1018.5  C 1363 1014.86  1365.86 1012  1369.5 1012  Z " fill-rule="nonzero" fill="#f0f0f0" stroke="none" />
  <path d="M 1369.5 1012.5  C 1372.86 1012.5  1375.5 1015.14  1375.5 1018.5  C 1375.5 1021.86  1372.86 1024.5  1369.5 1024.5  C 1366.14 1024.5  1363.5 1021.86  1363.5 1018.5  C 1363.5 1015.14  1366.14 1012.5  1369.5 1012.5  Z " stroke-width="1" stroke="#797979" fill="none" />
  <path d="M 1369.5 1021.75  C 1367.68 1021.75  1366.25 1020.32  1366.25 1018.5  C 1366.25 1016.68  1367.68 1015.25  1369.5 1015.25  C 1371.32 1015.25  1372.75 1016.68  1372.75 1018.5  C 1372.75 1020.32  1371.32 1021.75  1369.5 1021.75  " fill-rule="nonzero" fill="#797979" stroke="none" />
</svg>