<?xml version="1.0" encoding="utf-8"?>
<svg version="1.1" xmlns:xlink="http://www.w3.org/1999/xlink" width="13px" height="13px" viewBox="2375 1113  13 13" xmlns="http://www.w3.org/2000/svg">
  <path d="M 2381.5 1113  C 2385.14 1113  2388 1115.86  2388 1119.5  C 2388 1123.14  2385.14 1126  2381.5 1126  C 2377.86 1126  2375 1123.14  2375 1119.5  C 2375 1115.86  2377.86 1113  2381.5 1113  Z " fill-rule="nonzero" fill="#f0f0f0" stroke="none" />
  <path d="M 2381.5 1113.5  C 2384.86 1113.5  2387.5 1116.14  2387.5 1119.5  C 2387.5 1122.86  2384.86 1125.5  2381.5 1125.5  C 2378.14 1125.5  2375.5 1122.86  2375.5 1119.5  C 2375.5 1116.14  2378.14 1113.5  2381.5 1113.5  Z " stroke-width="1" stroke="#797979" fill="none" />
  <path d="M 2381.5 1122.75  C 2379.68 1122.75  2378.25 1121.32  2378.25 1119.5  C 2378.25 1117.68  2379.68 1116.25  2381.5 1116.25  C 2383.32 1116.25  2384.75 1117.68  2384.75 1119.5  C 2384.75 1121.32  2383.32 1122.75  2381.5 1122.75  " fill-rule="nonzero" fill="#797979" stroke="none" />
</svg>