<?xml version="1.0" encoding="utf-8"?>
<svg version="1.1" xmlns:xlink="http://www.w3.org/1999/xlink" width="13px" height="13px" viewBox="2469 1113  13 13" xmlns="http://www.w3.org/2000/svg">
  <path d="M 2475.5 1113  C 2479.14 1113  2482 1115.86  2482 1119.5  C 2482 1123.14  2479.14 1126  2475.5 1126  C 2471.86 1126  2469 1123.14  2469 1119.5  C 2469 1115.86  2471.86 1113  2475.5 1113  Z " fill-rule="nonzero" fill="#f0f0f0" stroke="none" />
  <path d="M 2475.5 1113.5  C 2478.86 1113.5  2481.5 1116.14  2481.5 1119.5  C 2481.5 1122.86  2478.86 1125.5  2475.5 1125.5  C 2472.14 1125.5  2469.5 1122.86  2469.5 1119.5  C 2469.5 1116.14  2472.14 1113.5  2475.5 1113.5  Z " stroke-width="1" stroke="#797979" fill="none" />
  <path d="M 2475.5 1122.75  C 2473.68 1122.75  2472.25 1121.32  2472.25 1119.5  C 2472.25 1117.68  2473.68 1116.25  2475.5 1116.25  C 2477.32 1116.25  2478.75 1117.68  2478.75 1119.5  C 2478.75 1121.32  2477.32 1122.75  2475.5 1122.75  " fill-rule="nonzero" fill="#797979" stroke="none" />
</svg>