<?xml version="1.0" encoding="utf-8"?>
<svg version="1.1" xmlns:xlink="http://www.w3.org/1999/xlink" width="13px" height="13px" viewBox="224 1014  13 13" xmlns="http://www.w3.org/2000/svg">
  <path d="M 230.5 1014  C 234.14 1014  237 1016.86  237 1020.5  C 237 1024.14  234.14 1027  230.5 1027  C 226.86 1027  224 1024.14  224 1020.5  C 224 1016.86  226.86 1014  230.5 1014  Z " fill-rule="nonzero" fill="#f0f0f0" stroke="none" />
  <path d="M 230.5 1014.5  C 233.86 1014.5  236.5 1017.14  236.5 1020.5  C 236.5 1023.86  233.86 1026.5  230.5 1026.5  C 227.14 1026.5  224.5 1023.86  224.5 1020.5  C 224.5 1017.14  227.14 1014.5  230.5 1014.5  Z " stroke-width="1" stroke="#797979" fill="none" />
  <path d="M 230.5 1023.75  C 228.68 1023.75  227.25 1022.32  227.25 1020.5  C 227.25 1018.68  228.68 1017.25  230.5 1017.25  C 232.32 1017.25  233.75 1018.68  233.75 1020.5  C 233.75 1022.32  232.32 1023.75  230.5 1023.75  " fill-rule="nonzero" fill="#797979" stroke="none" />
</svg>