<?xml version="1.0" encoding="utf-8"?>
<svg version="1.1" xmlns:xlink="http://www.w3.org/1999/xlink" width="13px" height="13px" viewBox="3578 1274  13 13" xmlns="http://www.w3.org/2000/svg">
  <path d="M 3584.5 1274  C 3588.14 1274  3591 1276.86  3591 1280.5  C 3591 1284.14  3588.14 1287  3584.5 1287  C 3580.86 1287  3578 1284.14  3578 1280.5  C 3578 1276.86  3580.86 1274  3584.5 1274  Z " fill-rule="nonzero" fill="#f0f0f0" stroke="none" />
  <path d="M 3584.5 1274.5  C 3587.86 1274.5  3590.5 1277.14  3590.5 1280.5  C 3590.5 1283.86  3587.86 1286.5  3584.5 1286.5  C 3581.14 1286.5  3578.5 1283.86  3578.5 1280.5  C 3578.5 1277.14  3581.14 1274.5  3584.5 1274.5  Z " stroke-width="1" stroke="#797979" fill="none" />
  <path d="M 3584.5 1283.75  C 3582.68 1283.75  3581.25 1282.32  3581.25 1280.5  C 3581.25 1278.68  3582.68 1277.25  3584.5 1277.25  C 3586.32 1277.25  3587.75 1278.68  3587.75 1280.5  C 3587.75 1282.32  3586.32 1283.75  3584.5 1283.75  " fill-rule="nonzero" fill="#797979" stroke="none" />
</svg>