<?xml version="1.0" encoding="utf-8"?>
<svg version="1.1" xmlns:xlink="http://www.w3.org/1999/xlink" width="13px" height="13px" viewBox="3484 1274  13 13" xmlns="http://www.w3.org/2000/svg">
  <path d="M 3490.5 1274  C 3494.14 1274  3497 1276.86  3497 1280.5  C 3497 1284.14  3494.14 1287  3490.5 1287  C 3486.86 1287  3484 1284.14  3484 1280.5  C 3484 1276.86  3486.86 1274  3490.5 1274  Z " fill-rule="nonzero" fill="#f0f0f0" stroke="none" />
  <path d="M 3490.5 1274.5  C 3493.86 1274.5  3496.5 1277.14  3496.5 1280.5  C 3496.5 1283.86  3493.86 1286.5  3490.5 1286.5  C 3487.14 1286.5  3484.5 1283.86  3484.5 1280.5  C 3484.5 1277.14  3487.14 1274.5  3490.5 1274.5  Z " stroke-width="1" stroke="#797979" fill="none" />
  <path d="M 3490.5 1283.75  C 3488.68 1283.75  3487.25 1282.32  3487.25 1280.5  C 3487.25 1278.68  3488.68 1277.25  3490.5 1277.25  C 3492.32 1277.25  3493.75 1278.68  3493.75 1280.5  C 3493.75 1282.32  3492.32 1283.75  3490.5 1283.75  " fill-rule="nonzero" fill="#797979" stroke="none" />
</svg>