<?xml version="1.0" encoding="utf-8"?>
<svg version="1.1" xmlns:xlink="http://www.w3.org/1999/xlink" width="13px" height="13px" viewBox="4015 1326  13 13" xmlns="http://www.w3.org/2000/svg">
  <path d="M 4021.5 1326  C 4025.14 1326  4028 1328.86  4028 1332.5  C 4028 1336.14  4025.14 1339  4021.5 1339  C 4017.86 1339  4015 1336.14  4015 1332.5  C 4015 1328.86  4017.86 1326  4021.5 1326  Z " fill-rule="nonzero" fill="#ffffff" stroke="none" />
  <path d="M 4021.5 1326.5  C 4024.86 1326.5  4027.5 1329.14  4027.5 1332.5  C 4027.5 1335.86  4024.86 1338.5  4021.5 1338.5  C 4018.14 1338.5  4015.5 1335.86  4015.5 1332.5  C 4015.5 1329.14  4018.14 1326.5  4021.5 1326.5  Z " stroke-width="1" stroke="#797979" fill="none" />
  <path d="M 4021.5 1335.75  C 4019.68 1335.75  4018.25 1334.32  4018.25 1332.5  C 4018.25 1330.68  4019.68 1329.25  4021.5 1329.25  C 4023.32 1329.25  4024.75 1330.68  4024.75 1332.5  C 4024.75 1334.32  4023.32 1335.75  4021.5 1335.75  " fill-rule="nonzero" fill="#797979" stroke="none" />
</svg>