<?xml version="1.0" encoding="utf-8"?>
<svg version="1.1" xmlns:xlink="http://www.w3.org/1999/xlink" width="13px" height="13px" viewBox="1359 1163  13 13" xmlns="http://www.w3.org/2000/svg">
  <path d="M 1365.5 1163  C 1369.14 1163  1372 1165.86  1372 1169.5  C 1372 1173.14  1369.14 1176  1365.5 1176  C 1361.86 1176  1359 1173.14  1359 1169.5  C 1359 1165.86  1361.86 1163  1365.5 1163  Z " fill-rule="nonzero" fill="#ffffff" stroke="none" />
  <path d="M 1365.5 1163.5  C 1368.86 1163.5  1371.5 1166.14  1371.5 1169.5  C 1371.5 1172.86  1368.86 1175.5  1365.5 1175.5  C 1362.14 1175.5  1359.5 1172.86  1359.5 1169.5  C 1359.5 1166.14  1362.14 1163.5  1365.5 1163.5  Z " stroke-width="1" stroke="#797979" fill="none" />
  <path d="M 1365.5 1172.75  C 1363.68 1172.75  1362.25 1171.32  1362.25 1169.5  C 1362.25 1167.68  1363.68 1166.25  1365.5 1166.25  C 1367.32 1166.25  1368.75 1167.68  1368.75 1169.5  C 1368.75 1171.32  1367.32 1172.75  1365.5 1172.75  " fill-rule="nonzero" fill="#797979" stroke="none" />
</svg>