<?xml version="1.0" encoding="utf-8"?>
<svg version="1.1" xmlns:xlink="http://www.w3.org/1999/xlink" width="13px" height="13px" viewBox="1184 1163  13 13" xmlns="http://www.w3.org/2000/svg">
  <path d="M 1190.5 1163  C 1194.14 1163  1197 1165.86  1197 1169.5  C 1197 1173.14  1194.14 1176  1190.5 1176  C 1186.86 1176  1184 1173.14  1184 1169.5  C 1184 1165.86  1186.86 1163  1190.5 1163  Z " fill-rule="nonzero" fill="#ffffff" stroke="none" />
  <path d="M 1190.5 1163.5  C 1193.86 1163.5  1196.5 1166.14  1196.5 1169.5  C 1196.5 1172.86  1193.86 1175.5  1190.5 1175.5  C 1187.14 1175.5  1184.5 1172.86  1184.5 1169.5  C 1184.5 1166.14  1187.14 1163.5  1190.5 1163.5  Z " stroke-width="1" stroke="#797979" fill="none" />
  <path d="M 1190.5 1172.75  C 1188.68 1172.75  1187.25 1171.32  1187.25 1169.5  C 1187.25 1167.68  1188.68 1166.25  1190.5 1166.25  C 1192.32 1166.25  1193.75 1167.68  1193.75 1169.5  C 1193.75 1171.32  1192.32 1172.75  1190.5 1172.75  " fill-rule="nonzero" fill="#797979" stroke="none" />
</svg>