<?xml version="1.0" encoding="utf-8"?>
<svg version="1.1" xmlns:xlink="http://www.w3.org/1999/xlink" width="13px" height="13px" viewBox="2038 1254  13 13" xmlns="http://www.w3.org/2000/svg">
  <path d="M 2044.5 1254  C 2048.14 1254  2051 1256.86  2051 1260.5  C 2051 1264.14  2048.14 1267  2044.5 1267  C 2040.86 1267  2038 1264.14  2038 1260.5  C 2038 1256.86  2040.86 1254  2044.5 1254  Z " fill-rule="nonzero" fill="#f0f0f0" stroke="none" />
  <path d="M 2044.5 1254.5  C 2047.86 1254.5  2050.5 1257.14  2050.5 1260.5  C 2050.5 1263.86  2047.86 1266.5  2044.5 1266.5  C 2041.14 1266.5  2038.5 1263.86  2038.5 1260.5  C 2038.5 1257.14  2041.14 1254.5  2044.5 1254.5  Z " stroke-width="1" stroke="#797979" fill="none" />
  <path d="M 2044.5 1263.75  C 2042.68 1263.75  2041.25 1262.32  2041.25 1260.5  C 2041.25 1258.68  2042.68 1257.25  2044.5 1257.25  C 2046.32 1257.25  2047.75 1258.68  2047.75 1260.5  C 2047.75 1262.32  2046.32 1263.75  2044.5 1263.75  " fill-rule="nonzero" fill="#797979" stroke="none" />
</svg>