<?xml version="1.0" encoding="utf-8"?>
<svg version="1.1" xmlns:xlink="http://www.w3.org/1999/xlink" width="13px" height="13px" viewBox="2132 1254  13 13" xmlns="http://www.w3.org/2000/svg">
  <path d="M 2138.5 1254  C 2142.14 1254  2145 1256.86  2145 1260.5  C 2145 1264.14  2142.14 1267  2138.5 1267  C 2134.86 1267  2132 1264.14  2132 1260.5  C 2132 1256.86  2134.86 1254  2138.5 1254  Z " fill-rule="nonzero" fill="#f0f0f0" stroke="none" />
  <path d="M 2138.5 1254.5  C 2141.86 1254.5  2144.5 1257.14  2144.5 1260.5  C 2144.5 1263.86  2141.86 1266.5  2138.5 1266.5  C 2135.14 1266.5  2132.5 1263.86  2132.5 1260.5  C 2132.5 1257.14  2135.14 1254.5  2138.5 1254.5  Z " stroke-width="1" stroke="#797979" fill="none" />
  <path d="M 2138.5 1263.75  C 2136.68 1263.75  2135.25 1262.32  2135.25 1260.5  C 2135.25 1258.68  2136.68 1257.25  2138.5 1257.25  C 2140.32 1257.25  2141.75 1258.68  2141.75 1260.5  C 2141.75 1262.32  2140.32 1263.75  2138.5 1263.75  " fill-rule="nonzero" fill="#797979" stroke="none" />
</svg>