<?xml version="1.0" encoding="utf-8"?>
<svg version="1.1" xmlns:xlink="http://www.w3.org/1999/xlink" width="13px" height="13px" viewBox="220 1737  13 13" xmlns="http://www.w3.org/2000/svg">
  <path d="M 226.5 1737  C 230.14 1737  233 1739.86  233 1743.5  C 233 1747.14  230.14 1750  226.5 1750  C 222.86 1750  220 1747.14  220 1743.5  C 220 1739.86  222.86 1737  226.5 1737  Z " fill-rule="nonzero" fill="#ffffff" stroke="none" />
  <path d="M 226.5 1737.5  C 229.86 1737.5  232.5 1740.14  232.5 1743.5  C 232.5 1746.86  229.86 1749.5  226.5 1749.5  C 223.14 1749.5  220.5 1746.86  220.5 1743.5  C 220.5 1740.14  223.14 1737.5  226.5 1737.5  Z " stroke-width="1" stroke="#797979" fill="none" />
  <path d="M 226.5 1746.75  C 224.68 1746.75  223.25 1745.32  223.25 1743.5  C 223.25 1741.68  224.68 1740.25  226.5 1740.25  C 228.32 1740.25  229.75 1741.68  229.75 1743.5  C 229.75 1745.32  228.32 1746.75  226.5 1746.75  " fill-rule="nonzero" fill="#797979" stroke="none" />
</svg>