<?xml version="1.0" encoding="utf-8"?>
<svg version="1.1" xmlns:xlink="http://www.w3.org/1999/xlink" width="13px" height="13px" viewBox="337 1737  13 13" xmlns="http://www.w3.org/2000/svg">
  <path d="M 343.5 1737  C 347.14 1737  350 1739.86  350 1743.5  C 350 1747.14  347.14 1750  343.5 1750  C 339.86 1750  337 1747.14  337 1743.5  C 337 1739.86  339.86 1737  343.5 1737  Z " fill-rule="nonzero" fill="#f0f0f0" stroke="none" />
  <path d="M 343.5 1737.5  C 346.86 1737.5  349.5 1740.14  349.5 1743.5  C 349.5 1746.86  346.86 1749.5  343.5 1749.5  C 340.14 1749.5  337.5 1746.86  337.5 1743.5  C 337.5 1740.14  340.14 1737.5  343.5 1737.5  Z " stroke-width="1" stroke="#797979" fill="none" />
  <path d="M 343.5 1746.75  C 341.68 1746.75  340.25 1745.32  340.25 1743.5  C 340.25 1741.68  341.68 1740.25  343.5 1740.25  C 345.32 1740.25  346.75 1741.68  346.75 1743.5  C 346.75 1745.32  345.32 1746.75  343.5 1746.75  " fill-rule="nonzero" fill="#797979" stroke="none" />
</svg>