<?xml version="1.0" encoding="utf-8"?>
<svg version="1.1" xmlns:xlink="http://www.w3.org/1999/xlink" width="13px" height="13px" viewBox="278 1764  13 13" xmlns="http://www.w3.org/2000/svg">
  <path d="M 284.5 1764  C 288.14 1764  291 1766.86  291 1770.5  C 291 1774.14  288.14 1777  284.5 1777  C 280.86 1777  278 1774.14  278 1770.5  C 278 1766.86  280.86 1764  284.5 1764  Z " fill-rule="nonzero" fill="#f0f0f0" stroke="none" />
  <path d="M 284.5 1764.5  C 287.86 1764.5  290.5 1767.14  290.5 1770.5  C 290.5 1773.86  287.86 1776.5  284.5 1776.5  C 281.14 1776.5  278.5 1773.86  278.5 1770.5  C 278.5 1767.14  281.14 1764.5  284.5 1764.5  Z " stroke-width="1" stroke="#797979" fill="none" />
  <path d="M 284.5 1773.75  C 282.68 1773.75  281.25 1772.32  281.25 1770.5  C 281.25 1768.68  282.68 1767.25  284.5 1767.25  C 286.32 1767.25  287.75 1768.68  287.75 1770.5  C 287.75 1772.32  286.32 1773.75  284.5 1773.75  " fill-rule="nonzero" fill="#797979" stroke="none" />
</svg>