<?xml version="1.0" encoding="utf-8"?>
<svg version="1.1" xmlns:xlink="http://www.w3.org/1999/xlink" width="13px" height="13px" viewBox="220 1764  13 13" xmlns="http://www.w3.org/2000/svg">
  <path d="M 226.5 1764  C 230.14 1764  233 1766.86  233 1770.5  C 233 1774.14  230.14 1777  226.5 1777  C 222.86 1777  220 1774.14  220 1770.5  C 220 1766.86  222.86 1764  226.5 1764  Z " fill-rule="nonzero" fill="#f0f0f0" stroke="none" />
  <path d="M 226.5 1764.5  C 229.86 1764.5  232.5 1767.14  232.5 1770.5  C 232.5 1773.86  229.86 1776.5  226.5 1776.5  C 223.14 1776.5  220.5 1773.86  220.5 1770.5  C 220.5 1767.14  223.14 1764.5  226.5 1764.5  Z " stroke-width="1" stroke="#797979" fill="none" />
  <path d="M 226.5 1773.75  C 224.68 1773.75  223.25 1772.32  223.25 1770.5  C 223.25 1768.68  224.68 1767.25  226.5 1767.25  C 228.32 1767.25  229.75 1768.68  229.75 1770.5  C 229.75 1772.32  228.32 1773.75  226.5 1773.75  " fill-rule="nonzero" fill="#797979" stroke="none" />
</svg>