<?xml version="1.0" encoding="utf-8"?>
<svg version="1.1" xmlns:xlink="http://www.w3.org/1999/xlink" width="13px" height="13px" viewBox="2341 618  13 13" xmlns="http://www.w3.org/2000/svg">
  <path d="M 2347.5 618  C 2351.14 618  2354 620.86  2354 624.5  C 2354 628.14  2351.14 631  2347.5 631  C 2343.86 631  2341 628.14  2341 624.5  C 2341 620.86  2343.86 618  2347.5 618  Z " fill-rule="nonzero" fill="#f0f0f0" stroke="none" />
  <path d="M 2347.5 618.5  C 2350.86 618.5  2353.5 621.14  2353.5 624.5  C 2353.5 627.86  2350.86 630.5  2347.5 630.5  C 2344.14 630.5  2341.5 627.86  2341.5 624.5  C 2341.5 621.14  2344.14 618.5  2347.5 618.5  Z " stroke-width="1" stroke="#797979" fill="none" />
  <path d="M 2347.5 627.75  C 2345.68 627.75  2344.25 626.32  2344.25 624.5  C 2344.25 622.68  2345.68 621.25  2347.5 621.25  C 2349.32 621.25  2350.75 622.68  2350.75 624.5  C 2350.75 626.32  2349.32 627.75  2347.5 627.75  " fill-rule="nonzero" fill="#797979" stroke="none" />
</svg>