<?xml version="1.0" encoding="utf-8"?>
<svg version="1.1" xmlns:xlink="http://www.w3.org/1999/xlink" width="13px" height="13px" viewBox="2435 618  13 13" xmlns="http://www.w3.org/2000/svg">
  <path d="M 2441.5 618  C 2445.14 618  2448 620.86  2448 624.5  C 2448 628.14  2445.14 631  2441.5 631  C 2437.86 631  2435 628.14  2435 624.5  C 2435 620.86  2437.86 618  2441.5 618  Z " fill-rule="nonzero" fill="#f0f0f0" stroke="none" />
  <path d="M 2441.5 618.5  C 2444.86 618.5  2447.5 621.14  2447.5 624.5  C 2447.5 627.86  2444.86 630.5  2441.5 630.5  C 2438.14 630.5  2435.5 627.86  2435.5 624.5  C 2435.5 621.14  2438.14 618.5  2441.5 618.5  Z " stroke-width="1" stroke="#797979" fill="none" />
  <path d="M 2441.5 627.75  C 2439.68 627.75  2438.25 626.32  2438.25 624.5  C 2438.25 622.68  2439.68 621.25  2441.5 621.25  C 2443.32 621.25  2444.75 622.68  2444.75 624.5  C 2444.75 626.32  2443.32 627.75  2441.5 627.75  " fill-rule="nonzero" fill="#797979" stroke="none" />
</svg>