<?xml version="1.0" encoding="utf-8"?>
<svg version="1.1" xmlns:xlink="http://www.w3.org/1999/xlink" width="13px" height="13px" viewBox="2838 647  13 13" xmlns="http://www.w3.org/2000/svg">
  <path d="M 2844.5 647  C 2848.14 647  2851 649.86  2851 653.5  C 2851 657.14  2848.14 660  2844.5 660  C 2840.86 660  2838 657.14  2838 653.5  C 2838 649.86  2840.86 647  2844.5 647  Z " fill-rule="nonzero" fill="#f0f0f0" stroke="none" />
  <path d="M 2844.5 647.5  C 2847.86 647.5  2850.5 650.14  2850.5 653.5  C 2850.5 656.86  2847.86 659.5  2844.5 659.5  C 2841.14 659.5  2838.5 656.86  2838.5 653.5  C 2838.5 650.14  2841.14 647.5  2844.5 647.5  Z " stroke-width="1" stroke="#797979" fill="none" />
  <path d="M 2844.5 656.75  C 2842.68 656.75  2841.25 655.32  2841.25 653.5  C 2841.25 651.68  2842.68 650.25  2844.5 650.25  C 2846.32 650.25  2847.75 651.68  2847.75 653.5  C 2847.75 655.32  2846.32 656.75  2844.5 656.75  " fill-rule="nonzero" fill="#797979" stroke="none" />
</svg>