<?xml version="1.0" encoding="utf-8"?>
<svg version="1.1" xmlns:xlink="http://www.w3.org/1999/xlink" width="13px" height="13px" viewBox="2744 647  13 13" xmlns="http://www.w3.org/2000/svg">
  <path d="M 2750.5 647  C 2754.14 647  2757 649.86  2757 653.5  C 2757 657.14  2754.14 660  2750.5 660  C 2746.86 660  2744 657.14  2744 653.5  C 2744 649.86  2746.86 647  2750.5 647  Z " fill-rule="nonzero" fill="#ffffff" stroke="none" />
  <path d="M 2750.5 647.5  C 2753.86 647.5  2756.5 650.14  2756.5 653.5  C 2756.5 656.86  2753.86 659.5  2750.5 659.5  C 2747.14 659.5  2744.5 656.86  2744.5 653.5  C 2744.5 650.14  2747.14 647.5  2750.5 647.5  Z " stroke-width="1" stroke="#797979" fill="none" />
  <path d="M 2750.5 656.75  C 2748.68 656.75  2747.25 655.32  2747.25 653.5  C 2747.25 651.68  2748.68 650.25  2750.5 650.25  C 2752.32 650.25  2753.75 651.68  2753.75 653.5  C 2753.75 655.32  2752.32 656.75  2750.5 656.75  " fill-rule="nonzero" fill="#797979" stroke="none" />
</svg>