<?xml version="1.0" encoding="utf-8"?>
<svg version="1.1" xmlns:xlink="http://www.w3.org/1999/xlink" width="13px" height="13px" viewBox="2749 138  13 13" xmlns="http://www.w3.org/2000/svg">
  <path d="M 2755.5 138  C 2759.14 138  2762 140.86  2762 144.5  C 2762 148.14  2759.14 151  2755.5 151  C 2751.86 151  2749 148.14  2749 144.5  C 2749 140.86  2751.86 138  2755.5 138  Z " fill-rule="nonzero" fill="#ffffff" stroke="none" />
  <path d="M 2755.5 138.5  C 2758.86 138.5  2761.5 141.14  2761.5 144.5  C 2761.5 147.86  2758.86 150.5  2755.5 150.5  C 2752.14 150.5  2749.5 147.86  2749.5 144.5  C 2749.5 141.14  2752.14 138.5  2755.5 138.5  Z " stroke-width="1" stroke="#797979" fill="none" />
  <path d="M 2755.5 147.75  C 2753.68 147.75  2752.25 146.32  2752.25 144.5  C 2752.25 142.68  2753.68 141.25  2755.5 141.25  C 2757.32 141.25  2758.75 142.68  2758.75 144.5  C 2758.75 146.32  2757.32 147.75  2755.5 147.75  " fill-rule="nonzero" fill="#797979" stroke="none" />
</svg>