<?xml version="1.0" encoding="utf-8"?>
<svg version="1.1" xmlns:xlink="http://www.w3.org/1999/xlink" width="13px" height="13px" viewBox="2843 337  13 13" xmlns="http://www.w3.org/2000/svg">
  <path d="M 2849.5 337  C 2853.14 337  2856 339.86  2856 343.5  C 2856 347.14  2853.14 350  2849.5 350  C 2845.86 350  2843 347.14  2843 343.5  C 2843 339.86  2845.86 337  2849.5 337  Z " fill-rule="nonzero" fill="#ffffff" stroke="none" />
  <path d="M 2849.5 337.5  C 2852.86 337.5  2855.5 340.14  2855.5 343.5  C 2855.5 346.86  2852.86 349.5  2849.5 349.5  C 2846.14 349.5  2843.5 346.86  2843.5 343.5  C 2843.5 340.14  2846.14 337.5  2849.5 337.5  Z " stroke-width="1" stroke="#797979" fill="none" />
  <path d="M 2849.5 346.75  C 2847.68 346.75  2846.25 345.32  2846.25 343.5  C 2846.25 341.68  2847.68 340.25  2849.5 340.25  C 2851.32 340.25  2852.75 341.68  2852.75 343.5  C 2852.75 345.32  2851.32 346.75  2849.5 346.75  " fill-rule="nonzero" fill="#797979" stroke="none" />
</svg>