<?xml version="1.0" encoding="utf-8"?>
<svg version="1.1" xmlns:xlink="http://www.w3.org/1999/xlink" width="13px" height="13px" viewBox="2749 337  13 13" xmlns="http://www.w3.org/2000/svg">
  <path d="M 2755.5 337  C 2759.14 337  2762 339.86  2762 343.5  C 2762 347.14  2759.14 350  2755.5 350  C 2751.86 350  2749 347.14  2749 343.5  C 2749 339.86  2751.86 337  2755.5 337  Z " fill-rule="nonzero" fill="#ffffff" stroke="none" />
  <path d="M 2755.5 337.5  C 2758.86 337.5  2761.5 340.14  2761.5 343.5  C 2761.5 346.86  2758.86 349.5  2755.5 349.5  C 2752.14 349.5  2749.5 346.86  2749.5 343.5  C 2749.5 340.14  2752.14 337.5  2755.5 337.5  Z " stroke-width="1" stroke="#797979" fill="none" />
  <path d="M 2755.5 346.75  C 2753.68 346.75  2752.25 345.32  2752.25 343.5  C 2752.25 341.68  2753.68 340.25  2755.5 340.25  C 2757.32 340.25  2758.75 341.68  2758.75 343.5  C 2758.75 345.32  2757.32 346.75  2755.5 346.75  " fill-rule="nonzero" fill="#797979" stroke="none" />
</svg>