<?xml version="1.0" encoding="utf-8"?>
<svg version="1.1" xmlns:xlink="http://www.w3.org/1999/xlink" width="13px" height="13px" viewBox="2920 337  13 13" xmlns="http://www.w3.org/2000/svg">
  <path d="M 2926.5 337  C 2930.14 337  2933 339.86  2933 343.5  C 2933 347.14  2930.14 350  2926.5 350  C 2922.86 350  2920 347.14  2920 343.5  C 2920 339.86  2922.86 337  2926.5 337  Z " fill-rule="nonzero" fill="#ffffff" stroke="none" />
  <path d="M 2926.5 337.5  C 2929.86 337.5  2932.5 340.14  2932.5 343.5  C 2932.5 346.86  2929.86 349.5  2926.5 349.5  C 2923.14 349.5  2920.5 346.86  2920.5 343.5  C 2920.5 340.14  2923.14 337.5  2926.5 337.5  Z " stroke-width="1" stroke="#797979" fill="none" />
  <path d="M 2926.5 346.75  C 2924.68 346.75  2923.25 345.32  2923.25 343.5  C 2923.25 341.68  2924.68 340.25  2926.5 340.25  C 2928.32 340.25  2929.75 341.68  2929.75 343.5  C 2929.75 345.32  2928.32 346.75  2926.5 346.75  " fill-rule="nonzero" fill="#797979" stroke="none" />
</svg>