<?xml version="1.0" encoding="utf-8"?>
<svg version="1.1" xmlns:xlink="http://www.w3.org/1999/xlink" width="13px" height="13px" viewBox="2322 141  13 13" xmlns="http://www.w3.org/2000/svg">
  <path d="M 2328.5 141  C 2332.14 141  2335 143.86  2335 147.5  C 2335 151.14  2332.14 154  2328.5 154  C 2324.86 154  2322 151.14  2322 147.5  C 2322 143.86  2324.86 141  2328.5 141  Z " fill-rule="nonzero" fill="#f0f0f0" stroke="none" />
  <path d="M 2328.5 141.5  C 2331.86 141.5  2334.5 144.14  2334.5 147.5  C 2334.5 150.86  2331.86 153.5  2328.5 153.5  C 2325.14 153.5  2322.5 150.86  2322.5 147.5  C 2322.5 144.14  2325.14 141.5  2328.5 141.5  Z " stroke-width="1" stroke="#797979" fill="none" />
  <path d="M 2328.5 150.75  C 2326.68 150.75  2325.25 149.32  2325.25 147.5  C 2325.25 145.68  2326.68 144.25  2328.5 144.25  C 2330.32 144.25  2331.75 145.68  2331.75 147.5  C 2331.75 149.32  2330.32 150.75  2328.5 150.75  " fill-rule="nonzero" fill="#797979" stroke="none" />
</svg>