<?xml version="1.0" encoding="utf-8"?>
<svg version="1.1" xmlns:xlink="http://www.w3.org/1999/xlink" width="94px" height="30px" xmlns="http://www.w3.org/2000/svg">
  <g transform="matrix(1 0 0 1 -230 -218 )">
    <path d="M 231 222  A 3 3 0 0 1 234 219 L 320 219  A 3 3 0 0 1 323 222 L 323 244  A 3 3 0 0 1 320 247 L 234 247  A 3 3 0 0 1 231 244 L 231 222  Z " fill-rule="nonzero" fill="#e4e4e4" stroke="none" />
    <path d="M 230.5 222  A 3.5 3.5 0 0 1 234 218.5 L 320 218.5  A 3.5 3.5 0 0 1 323.5 222 L 323.5 244  A 3.5 3.5 0 0 1 320 247.5 L 234 247.5  A 3.5 3.5 0 0 1 230.5 244 L 230.5 222  Z " stroke-width="1" stroke="#555555" fill="none" stroke-opacity="0.9921568627450981" />
  </g>
</svg>